G04 ================== begin FILE IDENTIFICATION RECORD ==================*
G04 Layout Name:  C:/Users/D/Documents/github/Disceep/allegro/disceep.brd*
G04 Film Name:    BOTTOMSilk*
G04 File Format:  Gerber RS274X*
G04 File Origin:  Cadence Allegro 16.6-P004*
G04 Origin Date:  Thu Jan 15 16:12:53 2015*
G04 *
G04 Layer:  REF DES/SILKSCREEN_BOTTOM*
G04 Layer:  COMPONENT VALUE/SILKSCREEN_BOTTOM*
G04 Layer:  BOARD GEOMETRY/SILKSCREEN_BOTTOM*
G04 *
G04 Offset:    (0.00 0.00)*
G04 Mirror:    No*
G04 Mode:      Positive*
G04 Rotation:  0*
G04 FullContactRelief:  No*
G04 UndefLineWidth:     6.00*
G04 ================== end FILE IDENTIFICATION RECORD ====================*
%FSLAX25Y25*MOIN*%
%IR0*IPPOS*OFA0.00000B0.00000*MIA0B0*SFA1.00000B1.00000*%
%ADD10C,.006*%
G75*
%LPD*%
G75*
G54D10*
G01X-527Y130625D02*
X-997Y130310D01*
X-1545Y130100D01*
X-2172D01*
X-2877Y130415D01*
X-3425Y130940D01*
X-3817Y131570D01*
X-4130Y132620D01*
X-4208Y133565D01*
X-4052Y134510D01*
X-3817Y135140D01*
X-3347Y135770D01*
X-2798Y136190D01*
X-2250Y136400D01*
X-1702D01*
X-1153Y136190D01*
X-683Y135875D01*
X-292Y135455D01*
G01X4990Y136400D02*
Y130100D01*
X2092Y134615D01*
X6008D01*
G01X11290Y136400D02*
Y130100D01*
X8392Y134615D01*
X12308D01*
G01X-427Y163425D02*
X-897Y163110D01*
X-1445Y162900D01*
X-2072D01*
X-2777Y163215D01*
X-3325Y163740D01*
X-3717Y164370D01*
X-4030Y165420D01*
X-4108Y166365D01*
X-3952Y167310D01*
X-3717Y167940D01*
X-3247Y168570D01*
X-2698Y168990D01*
X-2150Y169200D01*
X-1602D01*
X-1053Y168990D01*
X-583Y168675D01*
X-192Y168255D01*
G01X2427Y167940D02*
X2897Y168675D01*
X3523Y169095D01*
X4228Y169200D01*
X4855Y169095D01*
X5482Y168570D01*
X5873Y167940D01*
X5952Y167310D01*
X5795Y166575D01*
X5247Y166050D01*
X4698Y165840D01*
X3993D01*
G01X4698D02*
X5168Y165525D01*
X5560Y165000D01*
X5717Y164370D01*
X5560Y163740D01*
X5168Y163215D01*
X4463Y162900D01*
X3758Y163005D01*
X3053Y163425D01*
G01X8962Y166575D02*
X9510Y165840D01*
X9980Y165420D01*
X10607Y165210D01*
X11155Y165420D01*
X11547Y165840D01*
X11860Y166470D01*
X11938Y167205D01*
X11860Y167835D01*
X11547Y168465D01*
X11077Y168990D01*
X10528Y169200D01*
X9902Y168990D01*
X9353Y168360D01*
X9040Y167415D01*
X8962Y166365D01*
X9118Y165000D01*
X9353Y164265D01*
X9745Y163530D01*
X10293Y163005D01*
X10842Y162900D01*
X11390Y163110D01*
X11782Y163635D01*
G01X31373Y130625D02*
X30903Y130310D01*
X30355Y130100D01*
X29728D01*
X29023Y130415D01*
X28475Y130940D01*
X28083Y131570D01*
X27770Y132620D01*
X27692Y133565D01*
X27848Y134510D01*
X28083Y135140D01*
X28553Y135770D01*
X29102Y136190D01*
X29650Y136400D01*
X30198D01*
X30747Y136190D01*
X31217Y135875D01*
X31608Y135455D01*
G01X36890Y136400D02*
Y130100D01*
X33992Y134615D01*
X37908D01*
G01X42250Y136400D02*
X42798Y136295D01*
X43425Y135980D01*
X43817Y135455D01*
X43973Y134720D01*
X43817Y133985D01*
X43347Y133355D01*
X42642Y133040D01*
X41858D01*
X41388Y132830D01*
X40997Y132305D01*
X40840Y131570D01*
X41075Y130835D01*
X41623Y130310D01*
X42250Y130100D01*
X42877Y130310D01*
X43425Y130835D01*
X43660Y131570D01*
X43503Y132305D01*
X43112Y132830D01*
X42642Y133040D01*
X41858D01*
X41153Y133355D01*
X40683Y133985D01*
X40527Y134720D01*
X40683Y135455D01*
X41075Y135980D01*
X41702Y136295D01*
X42250Y136400D01*
G01X31473Y163425D02*
X31003Y163110D01*
X30455Y162900D01*
X29828D01*
X29123Y163215D01*
X28575Y163740D01*
X28183Y164370D01*
X27870Y165420D01*
X27792Y166365D01*
X27948Y167310D01*
X28183Y167940D01*
X28653Y168570D01*
X29202Y168990D01*
X29750Y169200D01*
X30298D01*
X30847Y168990D01*
X31317Y168675D01*
X31708Y168255D01*
G01X36990Y169200D02*
Y162900D01*
X34092Y167415D01*
X38008D01*
G01X42350Y162900D02*
X41723Y163110D01*
X41253Y163635D01*
X40940Y164265D01*
X40705Y165105D01*
X40627Y166050D01*
X40705Y166995D01*
X40940Y167835D01*
X41253Y168465D01*
X41723Y168990D01*
X42350Y169200D01*
X42977Y168990D01*
X43447Y168465D01*
X43760Y167835D01*
X43995Y166995D01*
X44073Y166050D01*
X43995Y165105D01*
X43760Y164265D01*
X43447Y163635D01*
X42977Y163110D01*
X42350Y162900D01*
G01X62973Y130325D02*
X62503Y130010D01*
X61955Y129800D01*
X61328D01*
X60623Y130115D01*
X60075Y130640D01*
X59683Y131270D01*
X59370Y132320D01*
X59292Y133265D01*
X59448Y134210D01*
X59683Y134840D01*
X60153Y135470D01*
X60702Y135890D01*
X61250Y136100D01*
X61798D01*
X62347Y135890D01*
X62817Y135575D01*
X63208Y135155D01*
G01X66062Y130850D02*
X66532Y130220D01*
X67080Y129905D01*
X67707Y129800D01*
X68490Y130010D01*
X69038Y130535D01*
X69195Y131165D01*
X69117Y131795D01*
X68803Y132320D01*
X67237Y133370D01*
X66532Y134105D01*
X66062Y135155D01*
X65905Y136100D01*
X69195D01*
G01X73850D02*
Y129800D01*
X72910Y131060D01*
G01Y136100D02*
X74790D01*
G01X94173Y130525D02*
X93703Y130210D01*
X93155Y130000D01*
X92528D01*
X91823Y130315D01*
X91275Y130840D01*
X90883Y131470D01*
X90570Y132520D01*
X90492Y133465D01*
X90648Y134410D01*
X90883Y135040D01*
X91353Y135670D01*
X91902Y136090D01*
X92450Y136300D01*
X92998D01*
X93547Y136090D01*
X94017Y135775D01*
X94408Y135355D01*
G01X97027Y135040D02*
X97497Y135775D01*
X98123Y136195D01*
X98828Y136300D01*
X99455Y136195D01*
X100082Y135670D01*
X100473Y135040D01*
X100552Y134410D01*
X100395Y133675D01*
X99847Y133150D01*
X99298Y132940D01*
X98593D01*
G01X99298D02*
X99768Y132625D01*
X100160Y132100D01*
X100317Y131470D01*
X100160Y130840D01*
X99768Y130315D01*
X99063Y130000D01*
X98358Y130105D01*
X97653Y130525D01*
G01X103562Y131050D02*
X104032Y130420D01*
X104580Y130105D01*
X105207Y130000D01*
X105990Y130210D01*
X106538Y130735D01*
X106695Y131365D01*
X106617Y131995D01*
X106303Y132520D01*
X104737Y133570D01*
X104032Y134305D01*
X103562Y135355D01*
X103405Y136300D01*
X106695D01*
M02*
