M48
INCH
T01C.013
T02C.02
;LEADER: 12 
;HEADER: 
;CODE  : ASCII 
;FILE  : disceep-1-2.drl for  ... layers TOP and BOTTOM
;T01 Holesize 1. = 13.000000 Tolerance = +0.000000/-0.000000 PLATED MILS Quantity = 246
;T02 Holesize 2. = 20.000000 Tolerance = +0.000000/-0.000000 PLATED MILS Quantity = 78
%
G90
T01
X0151000Y0088000
X0175000Y0111000
X0145700Y0098700
X0175396Y0084000
X0086000Y0088000
X0110000Y0111000
X0080700Y0098700
X0110396Y0084000
X0151000Y0153000
X0175000Y0176000
X0145700Y0163700
X0175396Y0149000
X0145700Y0033700
X0175396Y0019000
X0151000Y0023000
X0175000Y0046000
X0086000Y0023000
X0110000Y0046000
X0080700Y0033700
X0110396Y0019000
X0015700Y0098700
X0045396Y0084000
X0021000Y0088000
X0045000Y0111000
X0021000Y0023000
X0045000Y0046000
X0045396Y0019000
X0015700Y0033700
X0040200Y0187200
X0060400Y0192200
X0008300Y0187200
X0028500Y0192200
X0102900Y0154300
X0123100Y0159300
X0071700Y0154100
X0091900Y0159100
X0040100Y0154400
X0060300Y0159400
X0008200Y0154400
X0028400Y0159400
X0163000Y0134000
X0158000Y0135000
X0153000Y0137000
X0168000Y0135000
X0173000Y0137000
X0134000Y0163000
X0137000Y0153000
X0135000Y0158000
X0137000Y0173000
X0135000Y0168000
X0191000Y0158000
X0189000Y0153000
X0192000Y0163000
X0191000Y0168000
X0190000Y0173000
X0152000Y0189000
X0157000Y0191000
X0169000Y0191000
X0174000Y0189000
X0109000Y0059000
X0104000Y0061000
X0092000Y0061000
X0087000Y0059000
X0098000Y0062000
X0125000Y0043000
X0126000Y0038000
X0127000Y0033000
X0124000Y0023000
X0126000Y0028000
X0070000Y0038000
X0072000Y0043000
X0070000Y0028000
X0072000Y0023000
X0069000Y0033000
X0108000Y0007000
X0103000Y0005000
X0088000Y0007000
X0093000Y0005000
X0098000Y0004000
X0033000Y0062000
X0027000Y0061000
X0022000Y0059000
X0039000Y0061000
X0044000Y0059000
X0062000Y0033000
X0061000Y0038000
X0060000Y0043000
X0061000Y0028000
X0059000Y0023000
X0004000Y0033000
X0005000Y0038000
X0007000Y0043000
X0005000Y0028000
X0007000Y0023000
X0033000Y0004000
X0028000Y0005000
X0023000Y0007000
X0038000Y0005000
X0043000Y0007000
X0174000Y0059000
X0169000Y0061000
X0157000Y0061000
X0152000Y0059000
X0163000Y0062000
X0190000Y0043000
X0191000Y0038000
X0192000Y0033000
X0189000Y0023000
X0191000Y0028000
X0135000Y0038000
X0137000Y0043000
X0135000Y0028000
X0137000Y0023000
X0134000Y0033000
X0173000Y0007000
X0168000Y0005000
X0153000Y0007000
X0158000Y0005000
X0163000Y0004000
X0044000Y0124000
X0039000Y0126000
X0027000Y0126000
X0022000Y0124000
X0033000Y0127000
X0060000Y0108000
X0061000Y0103000
X0062000Y0098000
X0059000Y0088000
X0061000Y0093000
X0005000Y0103000
X0007000Y0108000
X0005000Y0093000
X0007000Y0088000
X0004000Y0098000
X0043000Y0072000
X0038000Y0070000
X0023000Y0072000
X0028000Y0070000
X0033000Y0069000
X0104000Y0126000
X0092000Y0126000
X0087000Y0124000
X0098000Y0127000
X0125000Y0108000
X0126000Y0103000
X0127000Y0098000
X0124000Y0088000
X0126000Y0093000
X0070000Y0103000
X0072000Y0108000
X0070000Y0093000
X0072000Y0088000
X0069000Y0098000
X0108000Y0072000
X0103000Y0070000
X0088000Y0072000
X0093000Y0070000
X0098000Y0069000
X0109000Y0124000
X0169000Y0126000
X0157000Y0126000
X0152000Y0124000
X0163000Y0127000
X0190000Y0108000
X0191000Y0103000
X0192000Y0098000
X0189000Y0088000
X0191000Y0093000
X0135000Y0103000
X0137000Y0108000
X0135000Y0093000
X0137000Y0088000
X0134000Y0098000
X0173000Y0072000
X0168000Y0070000
X0153000Y0072000
X0158000Y0070000
X0163000Y0069000
X0174000Y0124000
X0163000Y0192000
X0171000Y0152000
X0170000Y0183000
X0156000Y0181000
X0171000Y0144000
X0162000Y0154000
X0152300Y0149000
X0004500Y0192500
X0009500Y0173200
X0024500Y0172200
X0016500Y0180200
X0036400Y0192400
X0041400Y0173200
X0056400Y0172200
X0048400Y0180200
X0072900Y0140100
X0087900Y0139100
X0067900Y0159400
X0079900Y0147100
X0041300Y0140400
X0056300Y0139400
X0036300Y0159200
X0048300Y0147400
X0099100Y0159100
X0104100Y0140300
X0119100Y0139300
X0111100Y0147300
X0004400Y0159400
X0009400Y0140400
X0024400Y0139400
X0016400Y0147400
X0106000Y0087000
X0105000Y0118000
X0091000Y0116000
X0106000Y0079000
X0097000Y0089000
X0087300Y0084000
X0171000Y0087000
X0170000Y0118000
X0156000Y0116000
X0171000Y0079000
X0162000Y0089000
X0152300Y0084000
X0171000Y0022000
X0170000Y0053000
X0156000Y0051000
X0171000Y0014000
X0162000Y0024000
X0152300Y0019000
X0106000Y0022000
X0105000Y0053000
X0091000Y0051000
X0106000Y0014000
X0097000Y0024000
X0087300Y0019000
X0041000Y0087000
X0040000Y0118000
X0026000Y0116000
X0041000Y0079000
X0032000Y0089000
X0022300Y0084000
X0026000Y0051000
X0022300Y0019000
X0041000Y0014000
X0032000Y0024000
X0041000Y0022000
X0040000Y0053000
T02
X0051000Y0025500
R03Y0005000
X0015000Y0028000
X0015000Y0038000
X0051000Y0090500
R03Y0005000
X0015000Y0093000
X0015000Y0103000
X0055900Y0192200
R03X-0005000
X0024000Y0192200
R03X-0005000
X0055800Y0159400
R03X-0005000
X0023900Y0159400
R03X-0005000
X0052400Y0168200
X0042400Y0168200
X0020500Y0168200
X0010500Y0168200
X0052300Y0135400
X0042300Y0135400
X0020400Y0135400
X0010400Y0135400
X0118600Y0159300
R03X-0005000
X0087400Y0159100
R03X-0005000
X0115100Y0135300
X0105100Y0135300
X0083900Y0135100
X0073900Y0135100
X0145000Y0158000
X0145000Y0168000
X0181000Y0025500
R03Y0005000
X0116000Y0090500
R03Y0005000
X0080000Y0093000
X0080000Y0103000
X0145000Y0093000
X0145000Y0103000
X0116000Y0025500
R03Y0005000
X0181000Y0090500
R03Y0005000
X0080000Y0028000
X0080000Y0038000
X0145000Y0028000
X0145000Y0038000
X0181000Y0155500
R03Y0005000
M30
