G04 ================== begin FILE IDENTIFICATION RECORD ==================*
G04 Layout Name:  C:/Users/D/Documents/github/Disceep/allegro/disceep.brd*
G04 Film Name:    DisceepBOTTOM*
G04 File Format:  Gerber RS274X*
G04 File Origin:  Cadence Allegro 16.6-P004*
G04 Origin Date:  Thu Jan 15 22:53:29 2015*
G04 *
G04 Layer:  ETCH/BOTTOM*
G04 Layer:  PIN/BOTTOM*
G04 Layer:  VIA CLASS/BOTTOM*
G04 *
G04 Offset:    (0.00 0.00)*
G04 Mirror:    No*
G04 Mode:      Positive*
G04 Rotation:  0*
G04 FullContactRelief:  No*
G04 UndefLineWidth:     6.00*
G04 ================== end FILE IDENTIFICATION RECORD ====================*
%FSLAX25Y25*MOIN*%
%IR0*IPPOS*OFA0.00000B0.00000*MIA0B0*SFA1.00000B1.00000*%
%ADD10C,.03*%
%ADD11C,.024*%
%ADD12R,.086X.035*%
%ADD13C,.006*%
%ADD14C,.52154*%
G75*
%LPD*%
G75*
G36*
G01X64305Y33000D02*
G02I-31305J0D01*
G37*
G36*
G01Y98000D02*
G02I-31305J0D01*
G37*
G36*
G01X22400Y132900D02*
Y134752D01*
X22409Y134781D01*
G03Y136019I-2009J619D01*
G01X22400Y136048D01*
Y144400D01*
X30400D01*
Y132900D01*
X22400D01*
G37*
G36*
G01X30400Y156400D02*
Y145900D01*
X22400D01*
Y156400D01*
X30400D01*
G37*
G36*
G01X22500Y165700D02*
Y167552D01*
X22509Y167581D01*
G03Y168819I-2009J619D01*
G01X22500Y168848D01*
Y177200D01*
X30500D01*
Y165700D01*
X22500D01*
G37*
G36*
G01X30500Y189200D02*
Y178700D01*
X22500D01*
Y189200D01*
X30500D01*
G37*
G36*
G01X54300Y132900D02*
Y134752D01*
X54309Y134781D01*
G03Y136019I-2009J619D01*
G01X54300Y136048D01*
Y144400D01*
X62300D01*
Y132900D01*
X54300D01*
G37*
G36*
G01X62300Y156400D02*
Y145900D01*
X54300D01*
Y156400D01*
X62300D01*
G37*
G36*
G01X54400Y165700D02*
Y167552D01*
X54409Y167581D01*
G03Y168819I-2009J619D01*
G01X54400Y168848D01*
Y177200D01*
X62400D01*
Y165700D01*
X54400D01*
G37*
G36*
G01X62400Y189200D02*
Y178700D01*
X54400D01*
Y189200D01*
X62400D01*
G37*
G36*
G01X129305Y33000D02*
G02I-31305J0D01*
G37*
G36*
G01Y98000D02*
G02I-31305J0D01*
G37*
G36*
G01X85900Y132600D02*
Y134452D01*
X85909Y134481D01*
G03Y135719I-2009J619D01*
G01X85900Y135748D01*
Y144100D01*
X93900D01*
Y132600D01*
X85900D01*
G37*
G36*
G01X93900Y156100D02*
Y145600D01*
X85900D01*
Y156100D01*
X93900D01*
G37*
G36*
G01X194305Y33000D02*
G02I-31305J0D01*
G37*
G36*
G01Y98000D02*
G02I-31305J0D01*
G37*
G36*
G01X117100Y132800D02*
Y134652D01*
X117109Y134681D01*
G03Y135919I-2009J619D01*
G01X117100Y135948D01*
Y144300D01*
X125100D01*
Y132800D01*
X117100D01*
G37*
G36*
G01X194305Y163000D02*
G02I-31305J0D01*
G37*
G36*
G01X125100Y156300D02*
Y145800D01*
X117100D01*
Y156300D01*
X125100D01*
G37*
%LPC*%
G75*
G54D14*
X33000Y33000D03*
Y98000D03*
X98000Y33000D03*
Y98000D03*
X163000Y33000D03*
Y98000D03*
Y163000D03*
%LPD*%
G75*
G36*
G01X24236Y13000D02*
X24000Y13236D01*
Y18922D01*
G03Y19078I-1700J78D01*
G01Y52683D01*
X24317Y53000D01*
X41714D01*
X42000Y52714D01*
Y13236D01*
X41764Y13000D01*
X24236D01*
G37*
G36*
G01Y78000D02*
X24000Y78236D01*
Y83922D01*
G03Y84078I-1700J78D01*
G01Y117683D01*
X24317Y118000D01*
X41714D01*
X42000Y117714D01*
Y78236D01*
X41764Y78000D01*
X24236D01*
G37*
G36*
G01X89236Y13000D02*
X89000Y13236D01*
Y18922D01*
G03Y19078I-1700J78D01*
G01Y52683D01*
X89317Y53000D01*
X106714D01*
X107000Y52714D01*
Y13236D01*
X106764Y13000D01*
X89236D01*
G37*
G36*
G01Y78000D02*
X89000Y78236D01*
Y83922D01*
G03Y84078I-1700J78D01*
G01Y117683D01*
X89317Y118000D01*
X106714D01*
X107000Y117714D01*
Y78236D01*
X106764Y78000D01*
X89236D01*
G37*
G36*
G01X154236Y13000D02*
X154000Y13236D01*
Y18922D01*
G03Y19078I-1700J78D01*
G01Y52683D01*
X154317Y53000D01*
X171714D01*
X172000Y52714D01*
Y13236D01*
X171764Y13000D01*
X154236D01*
G37*
G36*
G01Y78000D02*
X154000Y78236D01*
Y83922D01*
G03Y84078I-1700J78D01*
G01Y117683D01*
X154317Y118000D01*
X171714D01*
X172000Y117714D01*
Y78236D01*
X171764Y78000D01*
X154236D01*
G37*
G36*
G01Y143000D02*
X154000Y143236D01*
Y148922D01*
G03Y149078I-1700J78D01*
G01Y182683D01*
X154317Y183000D01*
X171714D01*
X172000Y182714D01*
Y143236D01*
X171764Y143000D01*
X154236D01*
G37*
G54D10*
X15000Y28000D03*
Y38000D03*
Y93000D03*
Y103000D03*
X10400Y135400D03*
X8900Y159400D03*
X13900D03*
X10500Y168200D03*
X9000Y192200D03*
X14000D03*
X20400Y135400D03*
X18900Y159400D03*
X23900D03*
X20500Y168200D03*
X19000Y192200D03*
X24000D03*
X51000Y35500D03*
Y30500D03*
Y25500D03*
Y40500D03*
Y95500D03*
Y90500D03*
Y105500D03*
Y100500D03*
X42300Y135400D03*
X52300D03*
X40800Y159400D03*
X45800D03*
X50800D03*
X55800D03*
X42400Y168200D03*
X52400D03*
X40900Y192200D03*
X45900D03*
X50900D03*
X55900D03*
X73900Y135100D03*
X72400Y159100D03*
X77400D03*
X80000Y28000D03*
Y38000D03*
Y93000D03*
Y103000D03*
X83900Y135100D03*
X82400Y159100D03*
X87400D03*
X116000Y35500D03*
Y30500D03*
Y25500D03*
Y40500D03*
Y95500D03*
Y90500D03*
Y105500D03*
Y100500D03*
X105100Y135300D03*
X115100D03*
X103600Y159300D03*
X108600D03*
X113600D03*
X118600D03*
X145000Y28000D03*
Y38000D03*
Y93000D03*
Y103000D03*
Y168000D03*
Y158000D03*
X181000Y35500D03*
Y30500D03*
Y25500D03*
Y40500D03*
Y95500D03*
Y90500D03*
Y105500D03*
Y100500D03*
Y155500D03*
Y170500D03*
Y165500D03*
Y160500D03*
G54D11*
X7000Y23000D03*
X5000Y28000D03*
X4000Y33000D03*
X15700Y33700D03*
X7000Y43000D03*
X5000Y38000D03*
X7000Y88000D03*
X5000Y93000D03*
X4000Y98000D03*
X7000Y108000D03*
X5000Y103000D03*
X15700Y98700D03*
X16400Y147400D03*
X9400Y140400D03*
X8200Y154400D03*
X4400Y159400D03*
X9500Y173200D03*
X4500Y192500D03*
X16500Y180200D03*
X8300Y187200D03*
X23000Y7000D03*
X28000Y5000D03*
X33000Y4000D03*
X32000Y24000D03*
X22300Y19000D03*
X21000Y23000D03*
X26000Y51000D03*
X33000Y69000D03*
X28000Y70000D03*
X23000Y72000D03*
X22000Y59000D03*
X27000Y61000D03*
X33000Y62000D03*
X22300Y84000D03*
X32000Y89000D03*
X21000Y88000D03*
X26000Y116000D03*
X33000Y127000D03*
X22000Y124000D03*
X27000Y126000D03*
X24400Y139400D03*
X36300Y159200D03*
X24500Y172200D03*
X28400Y159400D03*
X36400Y192400D03*
X28500Y192200D03*
X41000Y14000D03*
X43000Y7000D03*
X38000Y5000D03*
X41000Y22000D03*
X45396Y19000D03*
X40000Y53000D03*
X45000Y46000D03*
X38000Y70000D03*
X43000Y72000D03*
X44000Y59000D03*
X39000Y61000D03*
X41000Y79000D03*
Y87000D03*
X45396Y84000D03*
X45000Y111000D03*
X40000Y118000D03*
X39000Y126000D03*
X44000Y124000D03*
X48300Y147400D03*
X56300Y139400D03*
X41300Y140400D03*
X40100Y154400D03*
X41400Y173200D03*
X56400Y172200D03*
X48400Y180200D03*
X40200Y187200D03*
X59000Y23000D03*
X61000Y28000D03*
X62000Y33000D03*
X69000D03*
X72000Y23000D03*
X70000Y28000D03*
X60000Y43000D03*
X61000Y38000D03*
X72000Y43000D03*
X70000Y38000D03*
X72000Y88000D03*
X70000Y93000D03*
X61000D03*
X59000Y88000D03*
X69000Y98000D03*
X72000Y108000D03*
X70000Y103000D03*
X62000Y98000D03*
X61000Y103000D03*
X60000Y108000D03*
X72900Y140100D03*
X71700Y154100D03*
X67900Y159400D03*
X60300D03*
X60400Y192200D03*
X93000Y5000D03*
X88000Y7000D03*
X87300Y19000D03*
X97000Y24000D03*
X80700Y33700D03*
X86000Y23000D03*
X91000Y51000D03*
X93000Y70000D03*
X88000Y72000D03*
X87000Y59000D03*
X92000Y61000D03*
X87300Y84000D03*
X97000Y89000D03*
X86000Y88000D03*
X91000Y116000D03*
X80700Y98700D03*
X87000Y124000D03*
X92000Y126000D03*
X79900Y147100D03*
X87900Y139100D03*
X91900Y159100D03*
X106000Y14000D03*
X98000Y4000D03*
X103000Y5000D03*
X108000Y7000D03*
X106000Y22000D03*
X110396Y19000D03*
X105000Y53000D03*
X110000Y46000D03*
X98000Y69000D03*
X103000Y70000D03*
X108000Y72000D03*
X98000Y62000D03*
X104000Y61000D03*
X109000Y59000D03*
X106000Y79000D03*
Y87000D03*
X110396Y84000D03*
X110000Y111000D03*
X105000Y118000D03*
X109000Y124000D03*
X98000Y127000D03*
X104000Y126000D03*
X111100Y147300D03*
X104100Y140300D03*
X102900Y154300D03*
X99100Y159100D03*
X134000Y33000D03*
X137000Y23000D03*
X135000Y28000D03*
X126000D03*
X124000Y23000D03*
X127000Y33000D03*
X137000Y43000D03*
X135000Y38000D03*
X126000D03*
X125000Y43000D03*
X137000Y88000D03*
X135000Y93000D03*
X126000D03*
X124000Y88000D03*
X134000Y98000D03*
X137000Y108000D03*
X135000Y103000D03*
X127000Y98000D03*
X126000Y103000D03*
X125000Y108000D03*
X119100Y139300D03*
X137000Y153000D03*
X135000Y168000D03*
X137000Y173000D03*
X135000Y158000D03*
X134000Y163000D03*
X123100Y159300D03*
X153000Y7000D03*
X152300Y19000D03*
X151000Y23000D03*
X145700Y33700D03*
X156000Y51000D03*
X153000Y72000D03*
X152000Y59000D03*
X157000Y61000D03*
X152300Y84000D03*
X151000Y88000D03*
X156000Y116000D03*
X145700Y98700D03*
X152000Y124000D03*
X157000Y126000D03*
X153000Y137000D03*
X152300Y149000D03*
X151000Y153000D03*
X145700Y163700D03*
X156000Y181000D03*
X157000Y191000D03*
X152000Y189000D03*
X171000Y14000D03*
X163000Y4000D03*
X158000Y5000D03*
X168000D03*
X173000Y7000D03*
X162000Y24000D03*
X171000Y22000D03*
X175396Y19000D03*
X170000Y53000D03*
X175000Y46000D03*
X163000Y69000D03*
X158000Y70000D03*
X168000D03*
X173000Y72000D03*
X163000Y62000D03*
X169000Y61000D03*
X174000Y59000D03*
X162000Y89000D03*
X171000Y79000D03*
Y87000D03*
X175396Y84000D03*
X175000Y111000D03*
X170000Y118000D03*
X174000Y124000D03*
X163000Y127000D03*
X169000Y126000D03*
X173000Y137000D03*
X168000Y135000D03*
X158000D03*
X163000Y134000D03*
X162000Y154000D03*
X171000Y144000D03*
Y152000D03*
X175396Y149000D03*
X175000Y176000D03*
X170000Y183000D03*
X163000Y192000D03*
X174000Y189000D03*
X169000Y191000D03*
X191000Y28000D03*
X189000Y23000D03*
X192000Y33000D03*
X191000Y38000D03*
X190000Y43000D03*
X191000Y93000D03*
X189000Y88000D03*
X192000Y98000D03*
X191000Y103000D03*
X190000Y108000D03*
X189000Y153000D03*
X190000Y173000D03*
X191000Y168000D03*
X192000Y163000D03*
X191000Y158000D03*
G54D12*
X6100Y144600D03*
Y150200D03*
X6200Y177400D03*
Y183000D03*
X38000Y144600D03*
Y150200D03*
X38100Y177400D03*
Y183000D03*
X69600Y144300D03*
Y149900D03*
X100800Y144500D03*
Y150100D03*
G54D13*
G01X6100Y144600D02*
X13600D01*
X16400Y147400D01*
G01X24400Y139400D02*
X12400D01*
X11400Y140400D01*
X9400D01*
G01D02*
X7400D01*
X6100Y141700D01*
Y144600D01*
G01X4400Y159400D02*
X7300Y156500D01*
X9070D01*
X10300Y155270D01*
Y153500D01*
X16400Y147400D01*
G01X8200Y154400D02*
Y152300D01*
X6100Y150200D01*
G01X9500Y173200D02*
X7500D01*
X6200Y174500D01*
Y177400D01*
G01X24500Y172200D02*
X12500D01*
X11500Y173200D01*
X9500D01*
G01X4500Y192500D02*
X5915Y191085D01*
Y190785D01*
X7400Y189300D01*
X9170D01*
X10400Y188070D01*
Y186300D01*
X16500Y180200D01*
G01X6200Y177400D02*
X13700D01*
X16500Y180200D01*
G01X8300Y187200D02*
Y185100D01*
X6200Y183000D01*
G01X15700Y33700D02*
X17115Y32285D01*
X17715D01*
X18900Y31100D01*
Y17291D01*
X23100Y13091D01*
X23142Y12879D01*
X23183Y12778D01*
X23777Y12184D01*
X23879Y12142D01*
X24091Y12100D01*
X24291Y11900D01*
X41870D01*
X42110Y12140D01*
X42121Y12142D01*
X42222Y12183D01*
X42816Y12777D01*
X42858Y12879D01*
X42860Y12890D01*
X43100Y13130D01*
Y16704D01*
X45396Y19000D01*
G01X22300D02*
X23000D01*
G01D02*
X25000D01*
G01D02*
X24000Y20000D01*
G01D02*
X23000Y19000D01*
G01X21000Y23000D02*
Y50809D01*
X21037Y50995D01*
X25105Y55063D01*
X25291Y55100D01*
X40870D01*
X42109Y53861D01*
X42121Y53858D01*
X42138Y53851D01*
X42851Y53138D01*
X42858Y53121D01*
X42900Y52909D01*
X45000Y50809D01*
Y46000D01*
G01X22300Y84000D02*
X23000D01*
G01D02*
X24000Y85000D01*
G01X25000Y84000D02*
X23000D01*
G01X24000Y85000D02*
X25000Y84000D01*
G01X21000Y88000D02*
Y115809D01*
X21037Y115995D01*
X25105Y120063D01*
X25291Y120100D01*
X40870D01*
X42109Y118861D01*
X42121Y118858D01*
X42138Y118851D01*
X42851Y118138D01*
X42858Y118121D01*
X42900Y117909D01*
X45000Y115809D01*
Y111000D01*
G01X15700Y98700D02*
X17115Y97285D01*
X17715D01*
X18900Y96100D01*
Y82291D01*
X23100Y78091D01*
X23142Y77879D01*
X23183Y77778D01*
X23777Y77184D01*
X23879Y77142D01*
X24091Y77100D01*
X24291Y76900D01*
X41870D01*
X42110Y77140D01*
X42121Y77142D01*
X42222Y77183D01*
X42816Y77777D01*
X42858Y77879D01*
X42860Y77890D01*
X43100Y78130D01*
Y81704D01*
X45396Y84000D01*
G01X23900Y159400D02*
X16400Y151900D01*
Y147400D01*
G01X27900Y154400D02*
X28400Y154900D01*
G01D02*
Y159400D01*
G01X24000Y192200D02*
X16500Y184700D01*
Y180200D01*
G01X28000Y187200D02*
X28500Y187700D01*
G01D02*
Y192200D01*
G01X56500Y40500D02*
X51000D01*
G01X59000Y108000D02*
X56500Y105500D01*
X51000D01*
G01X55800Y159400D02*
X48300Y151900D01*
Y147400D01*
G01X36300Y159200D02*
X37715Y157785D01*
X37915D01*
X39200Y156500D01*
X40970D01*
X42200Y155270D01*
Y153500D01*
X48300Y147400D01*
G01X38000Y144600D02*
X45500D01*
X48300Y147400D01*
G01X56300Y139400D02*
X44300D01*
X43300Y140400D01*
X41300D01*
G01D02*
X39300D01*
X38000Y141700D01*
Y144600D01*
G01X40100Y154400D02*
Y152300D01*
X38000Y150200D01*
G01X41400Y173200D02*
X39400D01*
X38100Y174500D01*
Y177400D01*
G01X56400Y172200D02*
X44400D01*
X43400Y173200D01*
X41400D01*
G01X36400Y192400D02*
X37815Y190985D01*
Y190785D01*
X39300Y189300D01*
X41070D01*
X42300Y188070D01*
Y186300D01*
X48400Y180200D01*
G01X38100Y177400D02*
X45600D01*
X48400Y180200D01*
G01X55900Y192200D02*
X48400Y184700D01*
Y180200D01*
G01X40200Y187200D02*
Y185100D01*
X38100Y183000D01*
G01X59000Y43000D02*
X56500Y40500D01*
G01X67900Y159400D02*
X69315Y157985D01*
Y157685D01*
X70800Y156200D01*
X72570D01*
X73800Y154970D01*
Y153200D01*
X79900Y147100D01*
G01X69600Y144300D02*
X77100D01*
X79900Y147100D01*
G01X87900Y139100D02*
X75900D01*
X74900Y140100D01*
X72900D01*
G01D02*
X70900D01*
X69600Y141400D01*
Y144300D01*
G01X59800Y154400D02*
X60300Y154900D01*
G01D02*
Y159400D01*
G01X71700Y154100D02*
Y152000D01*
X69600Y149900D01*
G01X59900Y187200D02*
X60400Y187700D01*
G01D02*
Y192200D01*
G01X80700Y33700D02*
X82115Y32285D01*
X82715D01*
X83900Y31100D01*
Y17291D01*
X88100Y13091D01*
X88142Y12879D01*
X88183Y12778D01*
X88777Y12184D01*
X88879Y12142D01*
X89091Y12100D01*
X89291Y11900D01*
X106870D01*
X107110Y12140D01*
X107121Y12142D01*
X107222Y12183D01*
X107816Y12777D01*
X107858Y12879D01*
X107860Y12890D01*
X108100Y13130D01*
Y16704D01*
X110396Y19000D01*
G01X88000D02*
X90000D01*
G01X87300D02*
X88000D01*
G01X90000D02*
X89000Y20000D01*
G01D02*
X88000Y19000D01*
G01X86000Y23000D02*
Y50809D01*
X86037Y50995D01*
X90105Y55063D01*
X90291Y55100D01*
X105870D01*
X107109Y53861D01*
X107121Y53858D01*
X107138Y53851D01*
X107851Y53138D01*
X107858Y53121D01*
X107900Y52909D01*
X110000Y50809D01*
Y46000D01*
G01X87300Y84000D02*
X88000D01*
G01D02*
X89000Y85000D01*
G01X90000Y84000D02*
X88000D01*
G01X89000Y85000D02*
X90000Y84000D01*
G01X80700Y98700D02*
X82115Y97285D01*
X82715D01*
X83900Y96100D01*
Y82291D01*
X88100Y78091D01*
X88142Y77879D01*
X88183Y77778D01*
X88777Y77184D01*
X88879Y77142D01*
X89091Y77100D01*
X89291Y76900D01*
X106870D01*
X107110Y77140D01*
X107121Y77142D01*
X107222Y77183D01*
X107816Y77777D01*
X107858Y77879D01*
X107860Y77890D01*
X108100Y78130D01*
Y81704D01*
X110396Y84000D01*
G01X86000Y88000D02*
Y115809D01*
X86037Y115995D01*
X90105Y120063D01*
X90291Y120100D01*
X105870D01*
X107109Y118861D01*
X107121Y118858D01*
X107138Y118851D01*
X107851Y118138D01*
X107858Y118121D01*
X107900Y117909D01*
X110000Y115809D01*
Y111000D01*
G01X87400Y159100D02*
X79900Y151600D01*
Y147100D01*
G01X91400Y154100D02*
X91900Y154600D01*
G01D02*
Y159100D01*
G01X118600Y159300D02*
X111100Y151800D01*
Y147300D01*
G01X100800Y144500D02*
X108300D01*
X111100Y147300D01*
G01X119100Y139300D02*
X107100D01*
X106100Y140300D01*
X104100D01*
G01D02*
X102100D01*
X100800Y141600D01*
Y144500D01*
G01X99100Y159100D02*
X100515Y157685D01*
X100715D01*
X102000Y156400D01*
X103770D01*
X105000Y155170D01*
Y153400D01*
X111100Y147300D01*
G01X102900Y154300D02*
Y152200D01*
X100800Y150100D01*
G01X124000Y43000D02*
X121500Y40500D01*
G01D02*
X116000D01*
G01X124000Y108000D02*
X121500Y105500D01*
X116000D01*
G01X122600Y154300D02*
X123100Y154800D01*
G01D02*
Y159300D01*
G01X145700Y33700D02*
X147115Y32285D01*
X147715D01*
X148900Y31100D01*
Y17291D01*
X153100Y13091D01*
X153142Y12879D01*
X153183Y12778D01*
X153777Y12184D01*
X153879Y12142D01*
X154091Y12100D01*
X154291Y11900D01*
X171870D01*
X172110Y12140D01*
X172121Y12142D01*
X172222Y12183D01*
X172816Y12777D01*
X172858Y12879D01*
X172860Y12890D01*
X173100Y13130D01*
Y16704D01*
X175396Y19000D01*
G01X152300D02*
X153000D01*
G01D02*
X154000Y20000D01*
G01X155000Y19000D02*
X153000D01*
G01X154000Y20000D02*
X155000Y19000D01*
G01X151000Y23000D02*
Y50809D01*
X151037Y50995D01*
X155105Y55063D01*
X155291Y55100D01*
X170870D01*
X172109Y53861D01*
X172121Y53858D01*
X172138Y53851D01*
X172851Y53138D01*
X172858Y53121D01*
X172900Y52909D01*
X175000Y50809D01*
Y46000D01*
G01X152300Y84000D02*
X153000D01*
G01D02*
X154000Y85000D01*
G01X155000Y84000D02*
X153000D01*
G01X154000Y85000D02*
X155000Y84000D01*
G01X145700Y98700D02*
X147115Y97285D01*
X147715D01*
X148900Y96100D01*
Y82291D01*
X153100Y78091D01*
X153142Y77879D01*
X153183Y77778D01*
X153777Y77184D01*
X153879Y77142D01*
X154091Y77100D01*
X154291Y76900D01*
X171870D01*
X172110Y77140D01*
X172121Y77142D01*
X172222Y77183D01*
X172816Y77777D01*
X172858Y77879D01*
X172860Y77890D01*
X173100Y78130D01*
Y81704D01*
X175396Y84000D01*
G01X151000Y88000D02*
Y115809D01*
X151037Y115995D01*
X155105Y120063D01*
X155291Y120100D01*
X170870D01*
X172109Y118861D01*
X172121Y118858D01*
X172138Y118851D01*
X172851Y118138D01*
X172858Y118121D01*
X172900Y117909D01*
X175000Y115809D01*
Y111000D01*
G01X153000Y149000D02*
X155000D01*
G01X152300D02*
X153000D01*
G01X154000Y150000D02*
X153000Y149000D01*
G01X155000D02*
X154000Y150000D01*
G01X145700Y163700D02*
X147115Y162285D01*
X147715D01*
X148900Y161100D01*
Y147291D01*
X153100Y143091D01*
X153142Y142879D01*
X153183Y142778D01*
X153777Y142184D01*
X153879Y142142D01*
X154091Y142100D01*
X154291Y141900D01*
X171870D01*
X172110Y142140D01*
X172121Y142142D01*
X172222Y142183D01*
X172816Y142777D01*
X172858Y142879D01*
X172860Y142890D01*
X173100Y143130D01*
Y146704D01*
X175396Y149000D01*
G01X151000Y153000D02*
Y180809D01*
X151037Y180995D01*
X155105Y185063D01*
X155291Y185100D01*
X170870D01*
X172109Y183861D01*
X172121Y183858D01*
X172138Y183851D01*
X172851Y183138D01*
X172858Y183121D01*
X172900Y182909D01*
X175000Y180809D01*
Y176000D01*
G01X189000Y43000D02*
X186500Y40500D01*
X181000D01*
G01X189000Y108000D02*
X186500Y105500D01*
X181000D01*
G01X189000Y173000D02*
X186500Y170500D01*
G01D02*
X181000D01*
M02*
