G04 ================== begin FILE IDENTIFICATION RECORD ==================*
G04 Layout Name:  C:/Users/D/Documents/github/Disceep/allegro/disceep.brd*
G04 Film Name:    DisceepTOPSilk*
G04 File Format:  Gerber RS274X*
G04 File Origin:  Cadence Allegro 16.6-P004*
G04 Origin Date:  Thu Jan 15 22:53:29 2015*
G04 *
G04 Layer:  REF DES/SILKSCREEN_TOP*
G04 Layer:  PACKAGE GEOMETRY/SILKSCREEN_TOP*
G04 Layer:  COMPONENT VALUE/SILKSCREEN_TOP*
G04 Layer:  BOARD GEOMETRY/SILKSCREEN_TOP*
G04 *
G04 Offset:    (0.00 0.00)*
G04 Mirror:    No*
G04 Mode:      Positive*
G04 Rotation:  0*
G04 FullContactRelief:  No*
G04 UndefLineWidth:     6.00*
G04 ================== end FILE IDENTIFICATION RECORD ====================*
%FSLAX25Y25*MOIN*%
%IR0*IPPOS*OFA0.00000B0.00000*MIA0B0*SFA1.00000B1.00000*%
%ADD10C,.006*%
G75*
%LPD*%
G75*
G36*
G01X11400Y139400D02*
G03I-2300J0D01*
G37*
G36*
G01X11500Y172200D02*
G03I-2300J0D01*
G37*
G36*
G01X43300Y139400D02*
G03I-2300J0D01*
G37*
G36*
G01X43400Y172200D02*
G03I-2300J0D01*
G37*
G36*
G01X74900Y139100D02*
G03I-2300J0D01*
G37*
G36*
G01X106100Y139300D02*
G03I-2300J0D01*
G37*
G54D10*
G01X6287Y19713D02*
X9823Y23248D01*
X10718Y22353D01*
X10900Y21818D01*
X10933Y21313D01*
X10803Y20736D01*
X10570Y20144D01*
X10025Y19510D01*
X9391Y18966D01*
X8800Y18732D01*
X8222Y18602D01*
X7718Y18636D01*
X7183Y18817D01*
X6287Y19713D01*
G01X10600Y16814D02*
X10456Y16133D01*
X10579Y15539D01*
X10923Y15077D01*
X11341Y14777D01*
X11993Y14714D01*
X12571Y14843D01*
X12969Y15152D01*
X13292Y15654D01*
X13273Y16262D01*
X13078Y16694D01*
X12675Y17097D01*
G01X13078Y16694D02*
X13523Y16602D01*
X14042Y16672D01*
X14485Y16936D01*
X14749Y17379D01*
X14819Y17898D01*
X14593Y18478D01*
X14131Y18822D01*
X13492Y18989D01*
G01X9818Y14061D02*
X14061Y9818D01*
X16182Y11939D01*
X11939Y16182D01*
X9818Y14061D01*
G01X19380Y10377D02*
X15845Y6841D01*
X14725Y7961D01*
X14544Y8496D01*
X14555Y8956D01*
X14937Y9517D01*
X15498Y9898D01*
X16061Y9924D01*
X16552Y9788D01*
X17671Y8668D01*
G01X16552Y9788D02*
X17589Y12168D01*
G01X15157Y13186D02*
X15301Y13867D01*
X15178Y14461D01*
X14834Y14923D01*
X14416Y15223D01*
X13764Y15286D01*
X13186Y15157D01*
X12788Y14848D01*
X12465Y14346D01*
X12484Y13738D01*
X12679Y13306D01*
X13082Y12903D01*
G01X12679Y13306D02*
X12234Y13398D01*
X11715Y13328D01*
X11272Y13064D01*
X11008Y12621D01*
X10938Y12102D01*
X11164Y11522D01*
X11626Y11178D01*
X12265Y11011D01*
G01X20182Y15939D02*
X15939Y20182D01*
X13818Y18061D01*
X18061Y13818D01*
X20182Y15939D01*
G01X10100Y33000D02*
Y30750D01*
X11367Y28000D01*
G01X8833D02*
X10100Y30750D01*
G01X5000Y33000D02*
Y28000D01*
X5760Y29000D01*
G01Y33000D02*
X4240D01*
G01X17500Y39200D02*
X12500D01*
Y26800D01*
X17500D01*
Y39200D01*
G01X19713Y59713D02*
X23248Y56177D01*
X22353Y55282D01*
X21818Y55100D01*
X21313Y55067D01*
X20736Y55197D01*
X20144Y55430D01*
X19510Y55975D01*
X18966Y56609D01*
X18732Y57200D01*
X18602Y57778D01*
X18636Y58282D01*
X18817Y58817D01*
X19713Y59713D01*
G01X15122Y55122D02*
X18657Y51586D01*
X18487Y52830D01*
G01X15659Y55659D02*
X14584Y54584D01*
G01X14061Y56182D02*
X9818Y51939D01*
X11939Y49818D01*
X16182Y54061D01*
X14061Y56182D01*
G01X10377Y46620D02*
X6841Y50155D01*
X7961Y51275D01*
X8496Y51456D01*
X8956Y51445D01*
X9517Y51063D01*
X9898Y50502D01*
X9924Y49939D01*
X9788Y49448D01*
X8668Y48329D01*
G01X9788Y49448D02*
X12168Y48411D01*
G01X14878Y51121D02*
X11343Y54657D01*
X11513Y53413D01*
G01X14341Y50584D02*
X15416Y51659D01*
G01X15939Y45818D02*
X20182Y50061D01*
X18061Y52182D01*
X13818Y47939D01*
X15939Y45818D01*
G01X-4183Y137693D02*
X-4433Y137313D01*
X-4600Y136870D01*
Y136363D01*
X-4350Y135793D01*
X-3933Y135350D01*
X-3433Y135033D01*
X-2600Y134780D01*
X-1850Y134717D01*
X-1100Y134843D01*
X-600Y135033D01*
X-100Y135413D01*
X233Y135857D01*
X400Y136300D01*
Y136743D01*
X233Y137187D01*
X-17Y137567D01*
X-350Y137883D01*
G01X400Y141400D02*
X317Y141843D01*
X67Y142350D01*
X-350Y142667D01*
X-933Y142793D01*
X-1517Y142667D01*
X-2017Y142287D01*
X-2267Y141717D01*
Y141083D01*
X-2433Y140703D01*
X-2850Y140387D01*
X-3433Y140260D01*
X-4017Y140450D01*
X-4433Y140893D01*
X-4600Y141400D01*
X-4433Y141907D01*
X-4017Y142350D01*
X-3433Y142540D01*
X-2850Y142413D01*
X-2433Y142097D01*
X-2267Y141717D01*
Y141083D01*
X-2017Y140513D01*
X-1517Y140133D01*
X-933Y140007D01*
X-350Y140133D01*
X67Y140450D01*
X317Y140957D01*
X400Y141400D01*
G01X15400Y130500D02*
X17650D01*
X20400Y131767D01*
G01Y129233D02*
X17650Y130500D01*
G01X16400Y126793D02*
X15817Y126413D01*
X15483Y125907D01*
X15400Y125337D01*
X15483Y124830D01*
X15900Y124323D01*
X16400Y124007D01*
X16900Y123943D01*
X17483Y124070D01*
X17900Y124513D01*
X18067Y124957D01*
Y125527D01*
G01Y124957D02*
X18317Y124577D01*
X18733Y124260D01*
X19233Y124133D01*
X19733Y124260D01*
X20150Y124577D01*
X20400Y125147D01*
X20317Y125717D01*
X19983Y126287D01*
G01X9200Y137900D02*
Y132900D01*
X21600D01*
Y137900D01*
X9200D01*
G01X17400Y155767D02*
X16900Y155450D01*
X16567Y155070D01*
X16400Y154627D01*
X16567Y154120D01*
X16900Y153740D01*
X17400Y153360D01*
X18067Y153233D01*
X21400D01*
G01X17400Y150793D02*
X16817Y150413D01*
X16483Y149907D01*
X16400Y149337D01*
X16483Y148830D01*
X16900Y148323D01*
X17400Y148007D01*
X17900Y147943D01*
X18483Y148070D01*
X18900Y148513D01*
X19067Y148957D01*
Y149527D01*
G01Y148957D02*
X19317Y148577D01*
X19733Y148260D01*
X20233Y148133D01*
X20733Y148260D01*
X21150Y148577D01*
X21400Y149147D01*
X21317Y149717D01*
X20983Y150287D01*
G01X12983Y157107D02*
X13233Y157487D01*
X13400Y157930D01*
Y158437D01*
X13150Y159007D01*
X12733Y159450D01*
X12233Y159767D01*
X11400Y160020D01*
X10650Y160083D01*
X9900Y159957D01*
X9400Y159767D01*
X8900Y159387D01*
X8567Y158943D01*
X8400Y158500D01*
Y158057D01*
X8567Y157613D01*
X8817Y157233D01*
X9150Y156917D01*
G01X8400Y153527D02*
X9483Y153400D01*
X10400Y153210D01*
X11233Y152957D01*
X12150Y152640D01*
X13400Y152133D01*
Y154667D01*
G01X2900Y156400D02*
Y150400D01*
X5900D01*
Y156400D01*
X2900D01*
G01X5900Y138400D02*
Y144400D01*
X2900D01*
Y138400D01*
X5900D01*
G01X15500Y163300D02*
X17750D01*
X20500Y164567D01*
G01Y162033D02*
X17750Y163300D01*
G01X15500Y158200D02*
X20500D01*
X19500Y158960D01*
G01X15500D02*
Y157440D01*
G01Y153100D02*
X20500D01*
X19500Y153860D01*
G01X15500D02*
Y152340D01*
G01X1400Y137907D02*
X4983D01*
X5733Y138160D01*
X6233Y138667D01*
X6400Y139300D01*
X6233Y139933D01*
X5733Y140440D01*
X4983Y140693D01*
X1400D01*
G01X5400Y143007D02*
X5983Y143387D01*
X6317Y143893D01*
X6400Y144463D01*
X6317Y144970D01*
X5900Y145477D01*
X5400Y145793D01*
X4900Y145857D01*
X4317Y145730D01*
X3900Y145287D01*
X3733Y144843D01*
Y144273D01*
G01Y144843D02*
X3483Y145223D01*
X3067Y145540D01*
X2567Y145667D01*
X2067Y145540D01*
X1650Y145223D01*
X1400Y144653D01*
X1483Y144083D01*
X1817Y143513D01*
G01X3900Y161900D02*
Y156900D01*
X28900D01*
Y161900D01*
X3900D01*
G01X-4083Y170493D02*
X-4333Y170113D01*
X-4500Y169670D01*
Y169163D01*
X-4250Y168593D01*
X-3833Y168150D01*
X-3333Y167833D01*
X-2500Y167580D01*
X-1750Y167517D01*
X-1000Y167643D01*
X-500Y167833D01*
X0Y168213D01*
X333Y168657D01*
X500Y169100D01*
Y169543D01*
X333Y169987D01*
X83Y170367D01*
X-250Y170683D01*
G01X-500Y172807D02*
X83Y173187D01*
X417Y173693D01*
X500Y174263D01*
X417Y174770D01*
X0Y175277D01*
X-500Y175593D01*
X-1000Y175657D01*
X-1583Y175530D01*
X-2000Y175087D01*
X-2167Y174643D01*
Y174073D01*
G01Y174643D02*
X-2417Y175023D01*
X-2833Y175340D01*
X-3333Y175467D01*
X-3833Y175340D01*
X-4250Y175023D01*
X-4500Y174453D01*
X-4417Y173883D01*
X-4083Y173313D01*
G01X500Y179300D02*
X417Y179743D01*
X167Y180250D01*
X-250Y180567D01*
X-833Y180693D01*
X-1417Y180567D01*
X-1917Y180187D01*
X-2167Y179617D01*
Y178983D01*
X-2333Y178603D01*
X-2750Y178287D01*
X-3333Y178160D01*
X-3917Y178350D01*
X-4333Y178793D01*
X-4500Y179300D01*
X-4333Y179807D01*
X-3917Y180250D01*
X-3333Y180440D01*
X-2750Y180313D01*
X-2333Y179997D01*
X-2167Y179617D01*
Y178983D01*
X-1917Y178413D01*
X-1417Y178033D01*
X-833Y177907D01*
X-250Y178033D01*
X167Y178350D01*
X417Y178857D01*
X500Y179300D01*
G01X6000Y171200D02*
Y177200D01*
X3000D01*
Y171200D01*
X6000D01*
G01X9300Y170700D02*
Y165700D01*
X21700D01*
Y170700D01*
X9300D01*
G01X1500Y170707D02*
X5083D01*
X5833Y170960D01*
X6333Y171467D01*
X6500Y172100D01*
X6333Y172733D01*
X5833Y173240D01*
X5083Y173493D01*
X1500D01*
G01X6500Y177200D02*
X1500D01*
X2500Y176440D01*
G01X6500D02*
Y177960D01*
G01Y182300D02*
X1500D01*
X2500Y181540D01*
G01X6500D02*
Y183060D01*
G01X17500Y188567D02*
X17000Y188250D01*
X16667Y187870D01*
X16500Y187427D01*
X16667Y186920D01*
X17000Y186540D01*
X17500Y186160D01*
X18167Y186033D01*
X21500D01*
G01X16500Y182200D02*
X21500D01*
X20500Y182960D01*
G01X16500D02*
Y181440D01*
G01Y177100D02*
X21500D01*
X20500Y177860D01*
G01X16500D02*
Y176340D01*
G01X4000Y194700D02*
Y189700D01*
X29000D01*
Y194700D01*
X4000D01*
G01X13083Y189907D02*
X13333Y190287D01*
X13500Y190730D01*
Y191237D01*
X13250Y191807D01*
X12833Y192250D01*
X12333Y192567D01*
X11500Y192820D01*
X10750Y192883D01*
X10000Y192757D01*
X9500Y192567D01*
X9000Y192187D01*
X8667Y191743D01*
X8500Y191300D01*
Y190857D01*
X8667Y190413D01*
X8917Y190033D01*
X9250Y189717D01*
G01X9500Y187593D02*
X8917Y187213D01*
X8583Y186707D01*
X8500Y186137D01*
X8583Y185630D01*
X9000Y185123D01*
X9500Y184807D01*
X10000Y184743D01*
X10583Y184870D01*
X11000Y185313D01*
X11167Y185757D01*
Y186327D01*
G01Y185757D02*
X11417Y185377D01*
X11833Y185060D01*
X12333Y184933D01*
X12833Y185060D01*
X13250Y185377D01*
X13500Y185947D01*
X13417Y186517D01*
X13083Y187087D01*
G01X9500Y182493D02*
X8917Y182113D01*
X8583Y181607D01*
X8500Y181037D01*
X8583Y180530D01*
X9000Y180023D01*
X9500Y179707D01*
X10000Y179643D01*
X10583Y179770D01*
X11000Y180213D01*
X11167Y180657D01*
Y181227D01*
G01Y180657D02*
X11417Y180277D01*
X11833Y179960D01*
X12333Y179833D01*
X12833Y179960D01*
X13250Y180277D01*
X13500Y180847D01*
X13417Y181417D01*
X13083Y181987D01*
G01X3000Y189200D02*
Y183200D01*
X6000D01*
Y189200D01*
X3000D01*
G01X29000Y13500D02*
X35000D01*
Y16500D01*
X29000D01*
Y13500D01*
G01X38367Y17000D02*
Y12000D01*
X36783D01*
X36277Y12250D01*
X35960Y12583D01*
X35833Y13250D01*
X35960Y13917D01*
X36340Y14333D01*
X36783Y14583D01*
X38367D01*
G01X36783D02*
X35833Y17000D01*
G01X33393Y16250D02*
X33013Y16667D01*
X32570Y16917D01*
X32000Y17000D01*
X31430Y16833D01*
X30987Y16500D01*
X30670Y15917D01*
X30607Y15250D01*
X30733Y14583D01*
X31050Y14167D01*
X31493Y13833D01*
X31937Y13750D01*
X32380Y13833D01*
X32950Y14167D01*
X32760Y12000D01*
X31050D01*
G01X25000Y23000D02*
Y43000D01*
X41000D01*
Y23000D01*
X25000D01*
G01X28293Y23583D02*
X27913Y23833D01*
X27470Y24000D01*
X26963D01*
X26393Y23750D01*
X25950Y23333D01*
X25633Y22833D01*
X25380Y22000D01*
X25317Y21250D01*
X25443Y20500D01*
X25633Y20000D01*
X26013Y19500D01*
X26457Y19167D01*
X26900Y19000D01*
X27343D01*
X27787Y19167D01*
X28167Y19417D01*
X28483Y19750D01*
G01X32000Y19000D02*
Y24000D01*
X31240Y23000D01*
G01Y19000D02*
X32760D01*
G01X37100Y24000D02*
X36593Y23833D01*
X36213Y23417D01*
X35960Y22917D01*
X35770Y22250D01*
X35707Y21500D01*
X35770Y20750D01*
X35960Y20083D01*
X36213Y19583D01*
X36593Y19167D01*
X37100Y19000D01*
X37607Y19167D01*
X37987Y19583D01*
X38240Y20083D01*
X38430Y20750D01*
X38493Y21500D01*
X38430Y22250D01*
X38240Y22917D01*
X37987Y23417D01*
X37607Y23833D01*
X37100Y24000D01*
G01X35000Y21500D02*
X29000D01*
Y18500D01*
X35000D01*
Y21500D01*
G01X28000Y40000D02*
G03I-1000J0D01*
G01X36707Y42417D02*
X37087Y42167D01*
X37530Y42000D01*
X38037D01*
X38607Y42250D01*
X39050Y42667D01*
X39367Y43167D01*
X39620Y44000D01*
X39683Y44750D01*
X39557Y45500D01*
X39367Y46000D01*
X38987Y46500D01*
X38543Y46833D01*
X38100Y47000D01*
X37657D01*
X37213Y46833D01*
X36833Y46583D01*
X36517Y46250D01*
G01X33000Y47000D02*
Y42000D01*
X33760Y43000D01*
G01Y47000D02*
X32240D01*
G01X36000Y52500D02*
X30000D01*
Y49500D01*
X36000D01*
Y52500D01*
G01X36707Y37417D02*
X37087Y37167D01*
X37530Y37000D01*
X38037D01*
X38607Y37250D01*
X39050Y37667D01*
X39367Y38167D01*
X39620Y39000D01*
X39683Y39750D01*
X39557Y40500D01*
X39367Y41000D01*
X38987Y41500D01*
X38543Y41833D01*
X38100Y42000D01*
X37657D01*
X37213Y41833D01*
X36833Y41583D01*
X36517Y41250D01*
G01X34203Y37833D02*
X33823Y37333D01*
X33380Y37083D01*
X32873Y37000D01*
X32240Y37167D01*
X31797Y37583D01*
X31670Y38083D01*
X31733Y38583D01*
X31987Y39000D01*
X33253Y39833D01*
X33823Y40417D01*
X34203Y41250D01*
X34330Y42000D01*
X31670D01*
G01X36000Y47500D02*
X30000D01*
Y44500D01*
X36000D01*
Y47500D01*
G01X25000Y88000D02*
Y108000D01*
X41000D01*
Y88000D01*
X25000D01*
G01X19817Y135693D02*
X19567Y135313D01*
X19400Y134870D01*
Y134363D01*
X19650Y133793D01*
X20067Y133350D01*
X20567Y133033D01*
X21400Y132780D01*
X22150Y132717D01*
X22900Y132843D01*
X23400Y133033D01*
X23900Y133413D01*
X24233Y133857D01*
X24400Y134300D01*
Y134743D01*
X24233Y135187D01*
X23983Y135567D01*
X23650Y135883D01*
G01X20233Y138197D02*
X19733Y138577D01*
X19483Y139020D01*
X19400Y139527D01*
X19567Y140160D01*
X19983Y140603D01*
X20483Y140730D01*
X20983Y140667D01*
X21400Y140413D01*
X22233Y139147D01*
X22817Y138577D01*
X23650Y138197D01*
X24400Y138070D01*
Y140730D01*
G01X19400Y144500D02*
X19567Y143993D01*
X19983Y143613D01*
X20483Y143360D01*
X21150Y143170D01*
X21900Y143107D01*
X22650Y143170D01*
X23317Y143360D01*
X23817Y143613D01*
X24233Y143993D01*
X24400Y144500D01*
X24233Y145007D01*
X23817Y145387D01*
X23317Y145640D01*
X22650Y145830D01*
X21900Y145893D01*
X21150Y145830D01*
X20483Y145640D01*
X19983Y145387D01*
X19567Y145007D01*
X19400Y144500D01*
G01X27717Y137693D02*
X27467Y137313D01*
X27300Y136870D01*
Y136363D01*
X27550Y135793D01*
X27967Y135350D01*
X28467Y135033D01*
X29300Y134780D01*
X30050Y134717D01*
X30800Y134843D01*
X31300Y135033D01*
X31800Y135413D01*
X32133Y135857D01*
X32300Y136300D01*
Y136743D01*
X32133Y137187D01*
X31883Y137567D01*
X31550Y137883D01*
G01Y140007D02*
X31967Y140387D01*
X32217Y140830D01*
X32300Y141400D01*
X32133Y141970D01*
X31800Y142413D01*
X31217Y142730D01*
X30550Y142793D01*
X29883Y142667D01*
X29467Y142350D01*
X29133Y141907D01*
X29050Y141463D01*
X29133Y141020D01*
X29467Y140450D01*
X27300Y140640D01*
Y142350D01*
G01Y146500D02*
X27467Y145993D01*
X27883Y145613D01*
X28383Y145360D01*
X29050Y145170D01*
X29800Y145107D01*
X30550Y145170D01*
X31217Y145360D01*
X31717Y145613D01*
X32133Y145993D01*
X32300Y146500D01*
X32133Y147007D01*
X31717Y147387D01*
X31217Y147640D01*
X30550Y147830D01*
X29800Y147893D01*
X29050Y147830D01*
X28383Y147640D01*
X27883Y147387D01*
X27467Y147007D01*
X27300Y146500D01*
G01X29900Y136400D02*
Y142400D01*
X26900D01*
Y136400D01*
X29900D01*
G01X34800Y156400D02*
Y150400D01*
X37800D01*
Y156400D01*
X34800D01*
G01X37800Y138400D02*
Y144400D01*
X34800D01*
Y138400D01*
X37800D01*
G01X25400Y145033D02*
X20400D01*
Y146617D01*
X20650Y147123D01*
X20983Y147440D01*
X21650Y147567D01*
X22317Y147440D01*
X22733Y147060D01*
X22983Y146617D01*
Y145033D01*
G01Y146617D02*
X25400Y147567D01*
G01X21233Y150197D02*
X20733Y150577D01*
X20483Y151020D01*
X20400Y151527D01*
X20567Y152160D01*
X20983Y152603D01*
X21483Y152730D01*
X21983Y152667D01*
X22400Y152413D01*
X23233Y151147D01*
X23817Y150577D01*
X24650Y150197D01*
X25400Y150070D01*
Y152730D01*
G01Y156500D02*
X20400D01*
X21400Y155740D01*
G01X25400D02*
Y157260D01*
G01X29900Y148400D02*
Y154400D01*
X26900D01*
Y148400D01*
X29900D01*
G01X33300Y137907D02*
X36883D01*
X37633Y138160D01*
X38133Y138667D01*
X38300Y139300D01*
X38133Y139933D01*
X37633Y140440D01*
X36883Y140693D01*
X33300D01*
G01X38300Y144400D02*
X33300D01*
X34300Y143640D01*
G01X38300D02*
Y145160D01*
G01Y150260D02*
X33300D01*
X36883Y147917D01*
Y151083D01*
G01X19917Y168493D02*
X19667Y168113D01*
X19500Y167670D01*
Y167163D01*
X19750Y166593D01*
X20167Y166150D01*
X20667Y165833D01*
X21500Y165580D01*
X22250Y165517D01*
X23000Y165643D01*
X23500Y165833D01*
X24000Y166213D01*
X24333Y166657D01*
X24500Y167100D01*
Y167543D01*
X24333Y167987D01*
X24083Y168367D01*
X23750Y168683D01*
G01X23500Y170807D02*
X24083Y171187D01*
X24417Y171693D01*
X24500Y172263D01*
X24417Y172770D01*
X24000Y173277D01*
X23500Y173593D01*
X23000Y173657D01*
X22417Y173530D01*
X22000Y173087D01*
X21833Y172643D01*
Y172073D01*
G01Y172643D02*
X21583Y173023D01*
X21167Y173340D01*
X20667Y173467D01*
X20167Y173340D01*
X19750Y173023D01*
X19500Y172453D01*
X19583Y171883D01*
X19917Y171313D01*
G01X23750Y175907D02*
X24167Y176287D01*
X24417Y176730D01*
X24500Y177300D01*
X24333Y177870D01*
X24000Y178313D01*
X23417Y178630D01*
X22750Y178693D01*
X22083Y178567D01*
X21667Y178250D01*
X21333Y177807D01*
X21250Y177363D01*
X21333Y176920D01*
X21667Y176350D01*
X19500Y176540D01*
Y178250D01*
G01X30000Y169200D02*
Y175200D01*
X27000D01*
Y169200D01*
X30000D01*
G01X27817Y170493D02*
X27567Y170113D01*
X27400Y169670D01*
Y169163D01*
X27650Y168593D01*
X28067Y168150D01*
X28567Y167833D01*
X29400Y167580D01*
X30150Y167517D01*
X30900Y167643D01*
X31400Y167833D01*
X31900Y168213D01*
X32233Y168657D01*
X32400Y169100D01*
Y169543D01*
X32233Y169987D01*
X31983Y170367D01*
X31650Y170683D01*
G01X31400Y172807D02*
X31983Y173187D01*
X32317Y173693D01*
X32400Y174263D01*
X32317Y174770D01*
X31900Y175277D01*
X31400Y175593D01*
X30900Y175657D01*
X30317Y175530D01*
X29900Y175087D01*
X29733Y174643D01*
Y174073D01*
G01Y174643D02*
X29483Y175023D01*
X29067Y175340D01*
X28567Y175467D01*
X28067Y175340D01*
X27650Y175023D01*
X27400Y174453D01*
X27483Y173883D01*
X27817Y173313D01*
G01X32400Y180060D02*
X27400D01*
X30983Y177717D01*
Y180883D01*
G01X37900Y171200D02*
Y177200D01*
X34900D01*
Y171200D01*
X37900D01*
G01X33400Y170707D02*
X36983D01*
X37733Y170960D01*
X38233Y171467D01*
X38400Y172100D01*
X38233Y172733D01*
X37733Y173240D01*
X36983Y173493D01*
X33400D01*
G01X38400Y177200D02*
X33400D01*
X34400Y176440D01*
G01X38400D02*
Y177960D01*
G01X33400Y182300D02*
X33567Y181793D01*
X33983Y181413D01*
X34483Y181160D01*
X35150Y180970D01*
X35900Y180907D01*
X36650Y180970D01*
X37317Y181160D01*
X37817Y181413D01*
X38233Y181793D01*
X38400Y182300D01*
X38233Y182807D01*
X37817Y183187D01*
X37317Y183440D01*
X36650Y183630D01*
X35900Y183693D01*
X35150Y183630D01*
X34483Y183440D01*
X33983Y183187D01*
X33567Y182807D01*
X33400Y182300D01*
G01X34900Y189200D02*
Y183200D01*
X37900D01*
Y189200D01*
X34900D01*
G01X25500Y177833D02*
X20500D01*
Y179417D01*
X20750Y179923D01*
X21083Y180240D01*
X21750Y180367D01*
X22417Y180240D01*
X22833Y179860D01*
X23083Y179417D01*
Y177833D01*
G01Y179417D02*
X25500Y180367D01*
G01X24500Y182807D02*
X25083Y183187D01*
X25417Y183693D01*
X25500Y184263D01*
X25417Y184770D01*
X25000Y185277D01*
X24500Y185593D01*
X24000Y185657D01*
X23417Y185530D01*
X23000Y185087D01*
X22833Y184643D01*
Y184073D01*
G01Y184643D02*
X22583Y185023D01*
X22167Y185340D01*
X21667Y185467D01*
X21167Y185340D01*
X20750Y185023D01*
X20500Y184453D01*
X20583Y183883D01*
X20917Y183313D01*
G01X25500Y189300D02*
X25417Y189743D01*
X25167Y190250D01*
X24750Y190567D01*
X24167Y190693D01*
X23583Y190567D01*
X23083Y190187D01*
X22833Y189617D01*
Y188983D01*
X22667Y188603D01*
X22250Y188287D01*
X21667Y188160D01*
X21083Y188350D01*
X20667Y188793D01*
X20500Y189300D01*
X20667Y189807D01*
X21083Y190250D01*
X21667Y190440D01*
X22250Y190313D01*
X22667Y189997D01*
X22833Y189617D01*
Y188983D01*
X23083Y188413D01*
X23583Y188033D01*
X24167Y187907D01*
X24750Y188033D01*
X25167Y188350D01*
X25417Y188857D01*
X25500Y189300D01*
G01X30000Y181200D02*
Y187200D01*
X27000D01*
Y181200D01*
X30000D01*
G01X46287Y6287D02*
X42752Y9823D01*
X43647Y10718D01*
X44182Y10900D01*
X44687Y10933D01*
X45264Y10803D01*
X45856Y10570D01*
X46490Y10025D01*
X47034Y9391D01*
X47268Y8800D01*
X47398Y8222D01*
X47364Y7718D01*
X47183Y7183D01*
X46287Y6287D01*
G01X47081Y12974D02*
X46997Y13596D01*
X47133Y14086D01*
X47433Y14504D01*
X47998Y14834D01*
X48606Y14852D01*
X49049Y14589D01*
X49358Y14190D01*
X49474Y13716D01*
X49167Y12231D01*
X49177Y11416D01*
X49497Y10558D01*
X49938Y9938D01*
X51819Y11819D01*
G01X51939Y9818D02*
X56182Y14061D01*
X54061Y16182D01*
X49818Y11939D01*
X51939Y9818D01*
G01X55623Y19380D02*
X59159Y15845D01*
X58039Y14725D01*
X57504Y14544D01*
X57044Y14555D01*
X56483Y14937D01*
X56102Y15498D01*
X56076Y16061D01*
X56212Y16552D01*
X57332Y17671D01*
G01X56212Y16552D02*
X53832Y17589D01*
G01X54919Y12783D02*
X55003Y12161D01*
X54867Y11671D01*
X54567Y11253D01*
X54002Y10923D01*
X53394Y10905D01*
X52951Y11168D01*
X52642Y11567D01*
X52526Y12041D01*
X52833Y13526D01*
X52823Y14341D01*
X52503Y15199D01*
X52062Y15819D01*
X50181Y13938D01*
G01X50061Y20182D02*
X45818Y15939D01*
X47939Y13818D01*
X52182Y18061D01*
X50061Y20182D01*
G01X47367Y32000D02*
X47050Y32500D01*
X46670Y32833D01*
X46227Y33000D01*
X45720Y32833D01*
X45340Y32500D01*
X44960Y32000D01*
X44833Y31333D01*
Y28000D01*
G01X41000Y33000D02*
Y28000D01*
X41760Y29000D01*
G01Y33000D02*
X40240D01*
G01X53500Y45500D02*
X48500D01*
Y20500D01*
X53500D01*
Y45500D01*
G01X54307Y44100D02*
Y41878D01*
X54460Y41413D01*
X54767Y41103D01*
X55150Y41000D01*
X55533Y41103D01*
X55840Y41413D01*
X55993Y41878D01*
Y44100D01*
G01X58250Y41000D02*
Y44100D01*
X57790Y43480D01*
G01Y41000D02*
X58710D01*
G01X59713Y46287D02*
X56177Y42752D01*
X55282Y43647D01*
X55100Y44182D01*
X55067Y44687D01*
X55197Y45264D01*
X55430Y45856D01*
X55975Y46490D01*
X56609Y47034D01*
X57200Y47268D01*
X57778Y47398D01*
X58282Y47364D01*
X58817Y47183D01*
X59713Y46287D01*
G01X54584Y51416D02*
X51049Y47880D01*
X55239Y48757D01*
X53000Y50996D01*
G01X56182Y51939D02*
X51939Y56182D01*
X49818Y54061D01*
X54061Y49818D01*
X56182Y51939D01*
G01X46820Y55623D02*
X50355Y59159D01*
X51475Y58039D01*
X51656Y57504D01*
X51645Y57044D01*
X51263Y56483D01*
X50702Y56102D01*
X50139Y56076D01*
X49648Y56212D01*
X48529Y57332D01*
G01X49648Y56212D02*
X48611Y53832D01*
G01X51859Y50584D02*
X55394Y54120D01*
X51204Y53243D01*
X53443Y51004D01*
G01X46018Y50061D02*
X50261Y45818D01*
X52382Y47939D01*
X48139Y52182D01*
X46018Y50061D01*
G01X51717Y135693D02*
X51467Y135313D01*
X51300Y134870D01*
Y134363D01*
X51550Y133793D01*
X51967Y133350D01*
X52467Y133033D01*
X53300Y132780D01*
X54050Y132717D01*
X54800Y132843D01*
X55300Y133033D01*
X55800Y133413D01*
X56133Y133857D01*
X56300Y134300D01*
Y134743D01*
X56133Y135187D01*
X55883Y135567D01*
X55550Y135883D01*
G01X56300Y140160D02*
X51300D01*
X54883Y137817D01*
Y140983D01*
G01X56300Y144373D02*
X55217Y144500D01*
X54300Y144690D01*
X53467Y144943D01*
X52550Y145260D01*
X51300Y145767D01*
Y143233D01*
G01X47300Y130500D02*
X49550D01*
X52300Y131767D01*
G01Y129233D02*
X49550Y130500D01*
G01X47300Y125400D02*
X52300D01*
X51300Y126160D01*
G01X47300D02*
Y124640D01*
G01Y119540D02*
X52300D01*
X48717Y121883D01*
Y118717D01*
G01X41100Y137900D02*
Y132900D01*
X53500D01*
Y137900D01*
X41100D01*
G01X49300Y155767D02*
X48800Y155450D01*
X48467Y155070D01*
X48300Y154627D01*
X48467Y154120D01*
X48800Y153740D01*
X49300Y153360D01*
X49967Y153233D01*
X53300D01*
G01X48300Y149400D02*
X53300D01*
X52300Y150160D01*
G01X48300D02*
Y148640D01*
G01Y143540D02*
X53300D01*
X49717Y145883D01*
Y142717D01*
G01X44883Y157107D02*
X45133Y157487D01*
X45300Y157930D01*
Y158437D01*
X45050Y159007D01*
X44633Y159450D01*
X44133Y159767D01*
X43300Y160020D01*
X42550Y160083D01*
X41800Y159957D01*
X41300Y159767D01*
X40800Y159387D01*
X40467Y158943D01*
X40300Y158500D01*
Y158057D01*
X40467Y157613D01*
X40717Y157233D01*
X41050Y156917D01*
G01X40300Y152640D02*
X45300D01*
X41717Y154983D01*
Y151817D01*
G01X40883Y149377D02*
X40467Y148933D01*
X40300Y148427D01*
X40467Y147920D01*
X40967Y147477D01*
X41717Y147160D01*
X42467Y147033D01*
X43383D01*
X44133Y147160D01*
X44800Y147477D01*
X45133Y147857D01*
X45300Y148300D01*
X45133Y148807D01*
X44800Y149187D01*
X44300Y149440D01*
X43633Y149567D01*
X43050Y149440D01*
X42467Y149123D01*
X42133Y148743D01*
X42050Y148300D01*
X42217Y147793D01*
X42633Y147413D01*
X43383Y147033D01*
G01X57300Y145033D02*
X52300D01*
Y146617D01*
X52550Y147123D01*
X52883Y147440D01*
X53550Y147567D01*
X54217Y147440D01*
X54633Y147060D01*
X54883Y146617D01*
Y145033D01*
G01Y146617D02*
X57300Y147567D01*
G01Y152160D02*
X52300D01*
X55883Y149817D01*
Y152983D01*
G01X57300Y156500D02*
X52300D01*
X53300Y155740D01*
G01X57300D02*
Y157260D01*
G01X47400Y163300D02*
X49650D01*
X52400Y164567D01*
G01Y162033D02*
X49650Y163300D01*
G01X47400Y158200D02*
X52400D01*
X51400Y158960D01*
G01X47400D02*
Y157440D01*
G01X52400Y153100D02*
X52233Y153607D01*
X51817Y153987D01*
X51317Y154240D01*
X50650Y154430D01*
X49900Y154493D01*
X49150Y154430D01*
X48483Y154240D01*
X47983Y153987D01*
X47567Y153607D01*
X47400Y153100D01*
X47567Y152593D01*
X47983Y152213D01*
X48483Y151960D01*
X49150Y151770D01*
X49900Y151707D01*
X50650Y151770D01*
X51317Y151960D01*
X51817Y152213D01*
X52233Y152593D01*
X52400Y153100D01*
G01X35800Y161900D02*
Y156900D01*
X60800D01*
Y161900D01*
X35800D01*
G01X51817Y168493D02*
X51567Y168113D01*
X51400Y167670D01*
Y167163D01*
X51650Y166593D01*
X52067Y166150D01*
X52567Y165833D01*
X53400Y165580D01*
X54150Y165517D01*
X54900Y165643D01*
X55400Y165833D01*
X55900Y166213D01*
X56233Y166657D01*
X56400Y167100D01*
Y167543D01*
X56233Y167987D01*
X55983Y168367D01*
X55650Y168683D01*
G01X55400Y170807D02*
X55983Y171187D01*
X56317Y171693D01*
X56400Y172263D01*
X56317Y172770D01*
X55900Y173277D01*
X55400Y173593D01*
X54900Y173657D01*
X54317Y173530D01*
X53900Y173087D01*
X53733Y172643D01*
Y172073D01*
G01Y172643D02*
X53483Y173023D01*
X53067Y173340D01*
X52567Y173467D01*
X52067Y173340D01*
X51650Y173023D01*
X51400Y172453D01*
X51483Y171883D01*
X51817Y171313D01*
G01X56400Y177300D02*
X51400D01*
X52400Y176540D01*
G01X56400D02*
Y178060D01*
G01X41200Y170700D02*
Y165700D01*
X53600D01*
Y170700D01*
X41200D01*
G01X49400Y188567D02*
X48900Y188250D01*
X48567Y187870D01*
X48400Y187427D01*
X48567Y186920D01*
X48900Y186540D01*
X49400Y186160D01*
X50067Y186033D01*
X53400D01*
G01X48400Y182200D02*
X53400D01*
X52400Y182960D01*
G01X48400D02*
Y181440D01*
G01X53400Y177100D02*
X53233Y177607D01*
X52817Y177987D01*
X52317Y178240D01*
X51650Y178430D01*
X50900Y178493D01*
X50150Y178430D01*
X49483Y178240D01*
X48983Y177987D01*
X48567Y177607D01*
X48400Y177100D01*
X48567Y176593D01*
X48983Y176213D01*
X49483Y175960D01*
X50150Y175770D01*
X50900Y175707D01*
X51650Y175770D01*
X52317Y175960D01*
X52817Y176213D01*
X53233Y176593D01*
X53400Y177100D01*
G01X35900Y194700D02*
Y189700D01*
X60900D01*
Y194700D01*
X35900D01*
G01X44983Y189907D02*
X45233Y190287D01*
X45400Y190730D01*
Y191237D01*
X45150Y191807D01*
X44733Y192250D01*
X44233Y192567D01*
X43400Y192820D01*
X42650Y192883D01*
X41900Y192757D01*
X41400Y192567D01*
X40900Y192187D01*
X40567Y191743D01*
X40400Y191300D01*
Y190857D01*
X40567Y190413D01*
X40817Y190033D01*
X41150Y189717D01*
G01X40400Y185440D02*
X45400D01*
X41817Y187783D01*
Y184617D01*
G01X41150Y182493D02*
X40733Y182113D01*
X40483Y181670D01*
X40400Y181100D01*
X40567Y180530D01*
X40900Y180087D01*
X41483Y179770D01*
X42150Y179707D01*
X42817Y179833D01*
X43233Y180150D01*
X43567Y180593D01*
X43650Y181037D01*
X43567Y181480D01*
X43233Y182050D01*
X45400Y181860D01*
Y180150D01*
G01X57400Y177833D02*
X52400D01*
Y179417D01*
X52650Y179923D01*
X52983Y180240D01*
X53650Y180367D01*
X54317Y180240D01*
X54733Y179860D01*
X54983Y179417D01*
Y177833D01*
G01Y179417D02*
X57400Y180367D01*
G01X56400Y182807D02*
X56983Y183187D01*
X57317Y183693D01*
X57400Y184263D01*
X57317Y184770D01*
X56900Y185277D01*
X56400Y185593D01*
X55900Y185657D01*
X55317Y185530D01*
X54900Y185087D01*
X54733Y184643D01*
Y184073D01*
G01Y184643D02*
X54483Y185023D01*
X54067Y185340D01*
X53567Y185467D01*
X53067Y185340D01*
X52650Y185023D01*
X52400Y184453D01*
X52483Y183883D01*
X52817Y183313D01*
G01X57400Y189173D02*
X56317Y189300D01*
X55400Y189490D01*
X54567Y189743D01*
X53650Y190060D01*
X52400Y190567D01*
Y188033D01*
G01X71287Y19713D02*
X74823Y23248D01*
X75718Y22353D01*
X75900Y21818D01*
X75933Y21313D01*
X75803Y20736D01*
X75570Y20144D01*
X75025Y19510D01*
X74391Y18966D01*
X73800Y18732D01*
X73222Y18602D01*
X72718Y18636D01*
X72183Y18817D01*
X71287Y19713D01*
G01X75878Y15122D02*
X79414Y18657D01*
X78170Y18487D01*
G01X75341Y15659D02*
X76416Y14584D01*
G01X79484Y11516D02*
X83020Y15051D01*
X81776Y14881D01*
G01X78947Y12053D02*
X80022Y10978D01*
G01X74818Y14061D02*
X79061Y9818D01*
X81182Y11939D01*
X76939Y16182D01*
X74818Y14061D01*
G01X84380Y10377D02*
X80845Y6841D01*
X79725Y7961D01*
X79544Y8496D01*
X79555Y8956D01*
X79937Y9517D01*
X80498Y9898D01*
X81061Y9924D01*
X81552Y9788D01*
X82671Y8668D01*
G01X81552Y9788D02*
X82589Y12168D01*
G01X79879Y14878D02*
X76343Y11343D01*
X77587Y11513D01*
G01X80416Y14341D02*
X79341Y15416D01*
G01X76551Y16792D02*
X76695Y17473D01*
X76572Y18067D01*
X76228Y18529D01*
X75810Y18829D01*
X75158Y18892D01*
X74580Y18763D01*
X74182Y18454D01*
X73859Y17952D01*
X73878Y17344D01*
X74073Y16912D01*
X74476Y16509D01*
G01X74073Y16912D02*
X73628Y17004D01*
X73109Y16934D01*
X72666Y16670D01*
X72402Y16227D01*
X72332Y15708D01*
X72558Y15128D01*
X73020Y14784D01*
X73659Y14617D01*
G01X75100Y33000D02*
Y30750D01*
X76367Y28000D01*
G01X73833D02*
X75100Y30750D01*
G01X71393Y32250D02*
X71013Y32667D01*
X70570Y32917D01*
X70000Y33000D01*
X69430Y32833D01*
X68987Y32500D01*
X68670Y31917D01*
X68607Y31250D01*
X68733Y30583D01*
X69050Y30167D01*
X69493Y29833D01*
X69937Y29750D01*
X70380Y29833D01*
X70950Y30167D01*
X70760Y28000D01*
X69050D01*
G01X79061Y56182D02*
X74818Y51939D01*
X76939Y49818D01*
X81182Y54061D01*
X79061Y56182D01*
G01X75377Y46620D02*
X71841Y50155D01*
X72961Y51275D01*
X73496Y51456D01*
X73956Y51445D01*
X74517Y51063D01*
X74898Y50502D01*
X74924Y49939D01*
X74788Y49448D01*
X73668Y48329D01*
G01X74788Y49448D02*
X77168Y48411D01*
G01X79878Y51121D02*
X76343Y54657D01*
X76513Y53413D01*
G01X79341Y50584D02*
X80416Y51659D01*
G01X83484Y54727D02*
X79949Y58263D01*
X80119Y57019D01*
G01X82947Y54190D02*
X84022Y55265D01*
G01X71287Y84713D02*
X74823Y88248D01*
X75718Y87353D01*
X75900Y86818D01*
X75933Y86313D01*
X75803Y85736D01*
X75570Y85144D01*
X75025Y84510D01*
X74391Y83966D01*
X73800Y83732D01*
X73222Y83602D01*
X72718Y83636D01*
X72183Y83817D01*
X71287Y84713D01*
G01X77974Y83919D02*
X78596Y84003D01*
X79086Y83867D01*
X79504Y83567D01*
X79834Y83002D01*
X79852Y82394D01*
X79589Y81951D01*
X79190Y81642D01*
X78716Y81526D01*
X77231Y81833D01*
X76416Y81823D01*
X75558Y81503D01*
X74938Y81062D01*
X76819Y79181D01*
G01X79206Y78208D02*
X79062Y77527D01*
X79185Y76933D01*
X79529Y76471D01*
X79947Y76171D01*
X80599Y76108D01*
X81177Y76237D01*
X81575Y76546D01*
X81898Y77048D01*
X81879Y77656D01*
X81684Y78088D01*
X81281Y78491D01*
G01X81684Y78088D02*
X82129Y77996D01*
X82648Y78066D01*
X83091Y78330D01*
X83355Y78773D01*
X83425Y79292D01*
X83199Y79872D01*
X82737Y80216D01*
X82098Y80383D01*
G01X74818Y79061D02*
X79061Y74818D01*
X81182Y76939D01*
X76939Y81182D01*
X74818Y79061D01*
G01X84380Y75377D02*
X80845Y71841D01*
X79725Y72961D01*
X79544Y73496D01*
X79555Y73956D01*
X79937Y74517D01*
X80498Y74898D01*
X81061Y74924D01*
X81552Y74788D01*
X82671Y73668D01*
G01X81552Y74788D02*
X82589Y77168D01*
G01X80157Y78186D02*
X80301Y78867D01*
X80178Y79461D01*
X79834Y79923D01*
X79416Y80223D01*
X78764Y80286D01*
X78186Y80157D01*
X77788Y79848D01*
X77465Y79346D01*
X77484Y78738D01*
X77679Y78306D01*
X78082Y77903D01*
G01X77679Y78306D02*
X77234Y78398D01*
X76715Y78328D01*
X76272Y78064D01*
X76008Y77621D01*
X75938Y77102D01*
X76164Y76522D01*
X76626Y76178D01*
X77265Y76011D01*
G01X76273Y83484D02*
X72737Y79949D01*
X73981Y80119D01*
G01X76810Y82947D02*
X75735Y84022D01*
G01X75100Y98000D02*
Y95750D01*
X76367Y93000D01*
G01X73833D02*
X75100Y95750D01*
G01X70000Y98000D02*
X69557Y97917D01*
X69050Y97667D01*
X68733Y97250D01*
X68607Y96667D01*
X68733Y96083D01*
X69113Y95583D01*
X69683Y95333D01*
X70317D01*
X70697Y95167D01*
X71013Y94750D01*
X71140Y94167D01*
X70950Y93583D01*
X70507Y93167D01*
X70000Y93000D01*
X69493Y93167D01*
X69050Y93583D01*
X68860Y94167D01*
X68987Y94750D01*
X69303Y95167D01*
X69683Y95333D01*
X70317D01*
X70887Y95583D01*
X71267Y96083D01*
X71393Y96667D01*
X71267Y97250D01*
X70950Y97667D01*
X70443Y97917D01*
X70000Y98000D01*
G01X75377Y111620D02*
X71841Y115155D01*
X72961Y116275D01*
X73496Y116456D01*
X73956Y116445D01*
X74517Y116063D01*
X74898Y115502D01*
X74924Y114939D01*
X74788Y114448D01*
X73668Y113329D01*
G01X74788Y114448D02*
X77168Y113411D01*
G01X76081Y118217D02*
X75997Y118839D01*
X76133Y119329D01*
X76433Y119747D01*
X76998Y120077D01*
X77606Y120095D01*
X78049Y119832D01*
X78358Y119433D01*
X78474Y118959D01*
X78167Y117474D01*
X78177Y116659D01*
X78497Y115801D01*
X78938Y115181D01*
X80819Y117062D01*
G01X82311Y119379D02*
X82919Y119397D01*
X83395Y119638D01*
X83635Y120114D01*
X83595Y120781D01*
X83289Y121535D01*
X82848Y122155D01*
X82200Y122803D01*
X81580Y123244D01*
X80885Y123492D01*
X80380Y123459D01*
X79949Y123263D01*
X79708Y122787D01*
X79676Y122282D01*
X79850Y121750D01*
X80232Y121189D01*
X80734Y120866D01*
X81370Y120677D01*
X81875Y120710D01*
X82247Y120965D01*
X82488Y121441D01*
X82462Y122004D01*
X82200Y122803D01*
G01X59317Y137393D02*
X59067Y137013D01*
X58900Y136570D01*
Y136063D01*
X59150Y135493D01*
X59567Y135050D01*
X60067Y134733D01*
X60900Y134480D01*
X61650Y134417D01*
X62400Y134543D01*
X62900Y134733D01*
X63400Y135113D01*
X63733Y135557D01*
X63900Y136000D01*
Y136443D01*
X63733Y136887D01*
X63483Y137267D01*
X63150Y137583D01*
G01X63900Y141860D02*
X58900D01*
X62483Y139517D01*
Y142683D01*
G01X61817Y144997D02*
X61233Y145440D01*
X60900Y145820D01*
X60733Y146327D01*
X60900Y146770D01*
X61233Y147087D01*
X61733Y147340D01*
X62317Y147403D01*
X62817Y147340D01*
X63317Y147087D01*
X63733Y146707D01*
X63900Y146263D01*
X63733Y145757D01*
X63233Y145313D01*
X62483Y145060D01*
X61650Y144997D01*
X60567Y145123D01*
X59983Y145313D01*
X59400Y145630D01*
X58983Y146073D01*
X58900Y146517D01*
X59067Y146960D01*
X59483Y147277D01*
G01X84713Y124713D02*
X88248Y121177D01*
X87353Y120282D01*
X86818Y120100D01*
X86313Y120067D01*
X85736Y120197D01*
X85144Y120430D01*
X84510Y120975D01*
X83966Y121609D01*
X83732Y122200D01*
X83602Y122778D01*
X83636Y123282D01*
X83817Y123817D01*
X84713Y124713D01*
G01X83919Y118026D02*
X84003Y117404D01*
X83867Y116914D01*
X83567Y116496D01*
X83002Y116166D01*
X82394Y116148D01*
X81951Y116411D01*
X81642Y116810D01*
X81526Y117284D01*
X81833Y118769D01*
X81823Y119584D01*
X81503Y120442D01*
X81062Y121062D01*
X79181Y119181D01*
G01X76516Y116516D02*
X80051Y112980D01*
X79881Y114224D01*
G01X77053Y117053D02*
X75978Y115978D01*
G01X79061Y121182D02*
X74818Y116939D01*
X76939Y114818D01*
X81182Y119061D01*
X79061Y121182D01*
G01X72700Y137600D02*
Y132600D01*
X85100D01*
Y137600D01*
X72700D01*
G01X61800Y136400D02*
Y142400D01*
X58800D01*
Y136400D01*
X61800D01*
G01X76483Y156807D02*
X76733Y157187D01*
X76900Y157630D01*
Y158137D01*
X76650Y158707D01*
X76233Y159150D01*
X75733Y159467D01*
X74900Y159720D01*
X74150Y159783D01*
X73400Y159657D01*
X72900Y159467D01*
X72400Y159087D01*
X72067Y158643D01*
X71900Y158200D01*
Y157757D01*
X72067Y157313D01*
X72317Y156933D01*
X72650Y156617D01*
G01X72900Y154493D02*
X72317Y154113D01*
X71983Y153607D01*
X71900Y153037D01*
X71983Y152530D01*
X72400Y152023D01*
X72900Y151707D01*
X73400Y151643D01*
X73983Y151770D01*
X74400Y152213D01*
X74567Y152657D01*
Y153227D01*
G01Y152657D02*
X74817Y152277D01*
X75233Y151960D01*
X75733Y151833D01*
X76233Y151960D01*
X76650Y152277D01*
X76900Y152847D01*
X76817Y153417D01*
X76483Y153987D01*
G01X71900Y148127D02*
X72983Y148000D01*
X73900Y147810D01*
X74733Y147557D01*
X75650Y147240D01*
X76900Y146733D01*
Y149267D01*
G01X66400Y156100D02*
Y150100D01*
X69400D01*
Y156100D01*
X66400D01*
G01X69400Y138100D02*
Y144100D01*
X66400D01*
Y138100D01*
X69400D01*
G01X61800Y148400D02*
Y154400D01*
X58800D01*
Y148400D01*
X61800D01*
G01X64900Y137607D02*
X68483D01*
X69233Y137860D01*
X69733Y138367D01*
X69900Y139000D01*
X69733Y139633D01*
X69233Y140140D01*
X68483Y140393D01*
X64900D01*
G01X69900Y144100D02*
X64900D01*
X65900Y143340D01*
G01X69900D02*
Y144860D01*
G01X68900Y147807D02*
X69483Y148187D01*
X69817Y148693D01*
X69900Y149263D01*
X69817Y149770D01*
X69400Y150277D01*
X68900Y150593D01*
X68400Y150657D01*
X67817Y150530D01*
X67400Y150087D01*
X67233Y149643D01*
Y149073D01*
G01Y149643D02*
X66983Y150023D01*
X66567Y150340D01*
X66067Y150467D01*
X65567Y150340D01*
X65150Y150023D01*
X64900Y149453D01*
X64983Y148883D01*
X65317Y148313D01*
G01X67400Y161600D02*
Y156600D01*
X92400D01*
Y161600D01*
X67400D01*
G01X61900Y169200D02*
Y175200D01*
X58900D01*
Y169200D01*
X61900D01*
G01Y181200D02*
Y187200D01*
X58900D01*
Y181200D01*
X61900D01*
G01X94000Y13500D02*
X100000D01*
Y16500D01*
X94000D01*
Y13500D01*
G01X103367Y17000D02*
Y12000D01*
X101783D01*
X101277Y12250D01*
X100960Y12583D01*
X100833Y13250D01*
X100960Y13917D01*
X101340Y14333D01*
X101783Y14583D01*
X103367D01*
G01X101783D02*
X100833Y17000D01*
G01X97000D02*
Y12000D01*
X97760Y13000D01*
G01Y17000D02*
X96240D01*
G01X93293Y16250D02*
X92913Y16667D01*
X92470Y16917D01*
X91900Y17000D01*
X91330Y16833D01*
X90887Y16500D01*
X90570Y15917D01*
X90507Y15250D01*
X90633Y14583D01*
X90950Y14167D01*
X91393Y13833D01*
X91837Y13750D01*
X92280Y13833D01*
X92850Y14167D01*
X92660Y12000D01*
X90950D01*
G01X85182Y15939D02*
X80939Y20182D01*
X78818Y18061D01*
X83061Y13818D01*
X85182Y15939D01*
G01X90000Y23000D02*
Y43000D01*
X106000D01*
Y23000D01*
X90000D01*
G01X93293Y23583D02*
X92913Y23833D01*
X92470Y24000D01*
X91963D01*
X91393Y23750D01*
X90950Y23333D01*
X90633Y22833D01*
X90380Y22000D01*
X90317Y21250D01*
X90443Y20500D01*
X90633Y20000D01*
X91013Y19500D01*
X91457Y19167D01*
X91900Y19000D01*
X92343D01*
X92787Y19167D01*
X93167Y19417D01*
X93483Y19750D01*
G01X97000Y19000D02*
Y24000D01*
X96240Y23000D01*
G01Y19000D02*
X97760D01*
G01X100897Y21083D02*
X101340Y21667D01*
X101720Y22000D01*
X102227Y22167D01*
X102670Y22000D01*
X102987Y21667D01*
X103240Y21167D01*
X103303Y20583D01*
X103240Y20083D01*
X102987Y19583D01*
X102607Y19167D01*
X102163Y19000D01*
X101657Y19167D01*
X101213Y19667D01*
X100960Y20417D01*
X100897Y21250D01*
X101023Y22333D01*
X101213Y22917D01*
X101530Y23500D01*
X101973Y23917D01*
X102417Y24000D01*
X102860Y23833D01*
X103177Y23417D01*
G01X100000Y21500D02*
X94000D01*
Y18500D01*
X100000D01*
Y21500D01*
G01X82500Y39200D02*
X77500D01*
Y26800D01*
X82500D01*
Y39200D01*
G01X93000Y40000D02*
G03I-1000J0D01*
G01X101707Y37417D02*
X102087Y37167D01*
X102530Y37000D01*
X103037D01*
X103607Y37250D01*
X104050Y37667D01*
X104367Y38167D01*
X104620Y39000D01*
X104683Y39750D01*
X104557Y40500D01*
X104367Y41000D01*
X103987Y41500D01*
X103543Y41833D01*
X103100Y42000D01*
X102657D01*
X102213Y41833D01*
X101833Y41583D01*
X101517Y41250D01*
G01X98000Y42000D02*
Y37000D01*
X98760Y38000D01*
G01Y42000D02*
X97240D01*
G01X94293Y41250D02*
X93913Y41667D01*
X93470Y41917D01*
X92900Y42000D01*
X92330Y41833D01*
X91887Y41500D01*
X91570Y40917D01*
X91507Y40250D01*
X91633Y39583D01*
X91950Y39167D01*
X92393Y38833D01*
X92837Y38750D01*
X93280Y38833D01*
X93850Y39167D01*
X93660Y37000D01*
X91950D01*
G01X101707Y42417D02*
X102087Y42167D01*
X102530Y42000D01*
X103037D01*
X103607Y42250D01*
X104050Y42667D01*
X104367Y43167D01*
X104620Y44000D01*
X104683Y44750D01*
X104557Y45500D01*
X104367Y46000D01*
X103987Y46500D01*
X103543Y46833D01*
X103100Y47000D01*
X102657D01*
X102213Y46833D01*
X101833Y46583D01*
X101517Y46250D01*
G01X98000Y47000D02*
Y42000D01*
X98760Y43000D01*
G01Y47000D02*
X97240D01*
G01X92140D02*
Y42000D01*
X94483Y45583D01*
X91317D01*
G01X84713Y59713D02*
X88248Y56177D01*
X87353Y55282D01*
X86818Y55100D01*
X86313Y55067D01*
X85736Y55197D01*
X85144Y55430D01*
X84510Y55975D01*
X83966Y56609D01*
X83732Y57200D01*
X83602Y57778D01*
X83636Y58282D01*
X83817Y58817D01*
X84713Y59713D01*
G01X81295Y55470D02*
X80687Y55452D01*
X80211Y55211D01*
X79971Y54735D01*
X80011Y54068D01*
X80317Y53314D01*
X80758Y52694D01*
X81406Y52046D01*
X82026Y51605D01*
X82721Y51357D01*
X83226Y51390D01*
X83657Y51586D01*
X83898Y52062D01*
X83930Y52567D01*
X83756Y53099D01*
X83374Y53660D01*
X82872Y53983D01*
X82236Y54172D01*
X81731Y54139D01*
X81359Y53884D01*
X81118Y53408D01*
X81144Y52845D01*
X81406Y52046D01*
G01X80939Y45818D02*
X85182Y50061D01*
X83061Y52182D01*
X78818Y47939D01*
X80939Y45818D01*
G01X90000Y88000D02*
Y108000D01*
X106000D01*
Y88000D01*
X90000D01*
G01X93293Y88583D02*
X92913Y88833D01*
X92470Y89000D01*
X91963D01*
X91393Y88750D01*
X90950Y88333D01*
X90633Y87833D01*
X90380Y87000D01*
X90317Y86250D01*
X90443Y85500D01*
X90633Y85000D01*
X91013Y84500D01*
X91457Y84167D01*
X91900Y84000D01*
X92343D01*
X92787Y84167D01*
X93167Y84417D01*
X93483Y84750D01*
G01X95797Y88167D02*
X96177Y88667D01*
X96620Y88917D01*
X97127Y89000D01*
X97760Y88833D01*
X98203Y88417D01*
X98330Y87917D01*
X98267Y87417D01*
X98013Y87000D01*
X96747Y86167D01*
X96177Y85583D01*
X95797Y84750D01*
X95670Y84000D01*
X98330D01*
G01X100897Y88167D02*
X101277Y88667D01*
X101720Y88917D01*
X102227Y89000D01*
X102860Y88833D01*
X103303Y88417D01*
X103430Y87917D01*
X103367Y87417D01*
X103113Y87000D01*
X101847Y86167D01*
X101277Y85583D01*
X100897Y84750D01*
X100770Y84000D01*
X103430D01*
G01X94000Y78500D02*
X100000D01*
Y81500D01*
X94000D01*
Y78500D01*
G01X103367Y82000D02*
Y77000D01*
X101783D01*
X101277Y77250D01*
X100960Y77583D01*
X100833Y78250D01*
X100960Y78917D01*
X101340Y79333D01*
X101783Y79583D01*
X103367D01*
G01X101783D02*
X100833Y82000D01*
G01X98393Y81000D02*
X98013Y81583D01*
X97507Y81917D01*
X96937Y82000D01*
X96430Y81917D01*
X95923Y81500D01*
X95607Y81000D01*
X95543Y80500D01*
X95670Y79917D01*
X96113Y79500D01*
X96557Y79333D01*
X97127D01*
G01X96557D02*
X96177Y79083D01*
X95860Y78667D01*
X95733Y78167D01*
X95860Y77667D01*
X96177Y77250D01*
X96747Y77000D01*
X97317Y77083D01*
X97887Y77417D01*
G01X93293Y81000D02*
X92913Y81583D01*
X92407Y81917D01*
X91837Y82000D01*
X91330Y81917D01*
X90823Y81500D01*
X90507Y81000D01*
X90443Y80500D01*
X90570Y79917D01*
X91013Y79500D01*
X91457Y79333D01*
X92027D01*
G01X91457D02*
X91077Y79083D01*
X90760Y78667D01*
X90633Y78167D01*
X90760Y77667D01*
X91077Y77250D01*
X91647Y77000D01*
X92217Y77083D01*
X92787Y77417D01*
G01X100000Y86500D02*
X94000D01*
Y83500D01*
X100000D01*
Y86500D01*
G01X85182Y80939D02*
X80939Y85182D01*
X78818Y83061D01*
X83061Y78818D01*
X85182Y80939D01*
G01X82500Y104200D02*
X77500D01*
Y91800D01*
X82500D01*
Y104200D01*
G01X93000Y105000D02*
G03I-1000J0D01*
G01X101707Y102417D02*
X102087Y102167D01*
X102530Y102000D01*
X103037D01*
X103607Y102250D01*
X104050Y102667D01*
X104367Y103167D01*
X104620Y104000D01*
X104683Y104750D01*
X104557Y105500D01*
X104367Y106000D01*
X103987Y106500D01*
X103543Y106833D01*
X103100Y107000D01*
X102657D01*
X102213Y106833D01*
X101833Y106583D01*
X101517Y106250D01*
G01X99203Y102833D02*
X98823Y102333D01*
X98380Y102083D01*
X97873Y102000D01*
X97240Y102167D01*
X96797Y102583D01*
X96670Y103083D01*
X96733Y103583D01*
X96987Y104000D01*
X98253Y104833D01*
X98823Y105417D01*
X99203Y106250D01*
X99330Y107000D01*
X96670D01*
G01X93027D02*
X92900Y105917D01*
X92710Y105000D01*
X92457Y104167D01*
X92140Y103250D01*
X91633Y102000D01*
X94167D01*
G01X80939Y110818D02*
X85182Y115061D01*
X83061Y117182D01*
X78818Y112939D01*
X80939Y110818D01*
G01X101107Y118417D02*
X101487Y118167D01*
X101930Y118000D01*
X102437D01*
X103007Y118250D01*
X103450Y118667D01*
X103767Y119167D01*
X104020Y120000D01*
X104083Y120750D01*
X103957Y121500D01*
X103767Y122000D01*
X103387Y122500D01*
X102943Y122833D01*
X102500Y123000D01*
X102057D01*
X101613Y122833D01*
X101233Y122583D01*
X100917Y122250D01*
G01X98603Y118833D02*
X98223Y118333D01*
X97780Y118083D01*
X97273Y118000D01*
X96640Y118167D01*
X96197Y118583D01*
X96070Y119083D01*
X96133Y119583D01*
X96387Y120000D01*
X97653Y120833D01*
X98223Y121417D01*
X98603Y122250D01*
X98730Y123000D01*
X96070D01*
G01X93503Y120917D02*
X93060Y120333D01*
X92680Y120000D01*
X92173Y119833D01*
X91730Y120000D01*
X91413Y120333D01*
X91160Y120833D01*
X91097Y121417D01*
X91160Y121917D01*
X91413Y122417D01*
X91793Y122833D01*
X92237Y123000D01*
X92743Y122833D01*
X93187Y122333D01*
X93440Y121583D01*
X93503Y120750D01*
X93377Y119667D01*
X93187Y119083D01*
X92870Y118500D01*
X92427Y118083D01*
X91983Y118000D01*
X91540Y118167D01*
X91223Y118583D01*
G01X83317Y135393D02*
X83067Y135013D01*
X82900Y134570D01*
Y134063D01*
X83150Y133493D01*
X83567Y133050D01*
X84067Y132733D01*
X84900Y132480D01*
X85650Y132417D01*
X86400Y132543D01*
X86900Y132733D01*
X87400Y133113D01*
X87733Y133557D01*
X87900Y134000D01*
Y134443D01*
X87733Y134887D01*
X87483Y135267D01*
X87150Y135583D01*
G01X87900Y139860D02*
X82900D01*
X86483Y137517D01*
Y140683D01*
G01X86900Y142807D02*
X87483Y143187D01*
X87817Y143693D01*
X87900Y144263D01*
X87817Y144770D01*
X87400Y145277D01*
X86900Y145593D01*
X86400Y145657D01*
X85817Y145530D01*
X85400Y145087D01*
X85233Y144643D01*
Y144073D01*
G01Y144643D02*
X84983Y145023D01*
X84567Y145340D01*
X84067Y145467D01*
X83567Y145340D01*
X83150Y145023D01*
X82900Y144453D01*
X82983Y143883D01*
X83317Y143313D01*
G01X90517Y137593D02*
X90267Y137213D01*
X90100Y136770D01*
Y136263D01*
X90350Y135693D01*
X90767Y135250D01*
X91267Y134933D01*
X92100Y134680D01*
X92850Y134617D01*
X93600Y134743D01*
X94100Y134933D01*
X94600Y135313D01*
X94933Y135757D01*
X95100Y136200D01*
Y136643D01*
X94933Y137087D01*
X94683Y137467D01*
X94350Y137783D01*
G01X95100Y142060D02*
X90100D01*
X93683Y139717D01*
Y142883D01*
G01X90933Y145197D02*
X90433Y145577D01*
X90183Y146020D01*
X90100Y146527D01*
X90267Y147160D01*
X90683Y147603D01*
X91183Y147730D01*
X91683Y147667D01*
X92100Y147413D01*
X92933Y146147D01*
X93517Y145577D01*
X94350Y145197D01*
X95100Y145070D01*
Y147730D01*
G01X78900Y130200D02*
X81150D01*
X83900Y131467D01*
G01Y128933D02*
X81150Y130200D01*
G01X78900Y125100D02*
X83900D01*
X82900Y125860D01*
G01X78900D02*
Y124340D01*
G01X79900Y121393D02*
X79317Y121013D01*
X78983Y120507D01*
X78900Y119937D01*
X78983Y119430D01*
X79400Y118923D01*
X79900Y118607D01*
X80400Y118543D01*
X80983Y118670D01*
X81400Y119113D01*
X81567Y119557D01*
Y120127D01*
G01Y119557D02*
X81817Y119177D01*
X82233Y118860D01*
X82733Y118733D01*
X83233Y118860D01*
X83650Y119177D01*
X83900Y119747D01*
X83817Y120317D01*
X83483Y120887D01*
G01X80900Y155467D02*
X80400Y155150D01*
X80067Y154770D01*
X79900Y154327D01*
X80067Y153820D01*
X80400Y153440D01*
X80900Y153060D01*
X81567Y152933D01*
X84900D01*
G01X79900Y149100D02*
X84900D01*
X83900Y149860D01*
G01X79900D02*
Y148340D01*
G01X80900Y145393D02*
X80317Y145013D01*
X79983Y144507D01*
X79900Y143937D01*
X79983Y143430D01*
X80400Y142923D01*
X80900Y142607D01*
X81400Y142543D01*
X81983Y142670D01*
X82400Y143113D01*
X82567Y143557D01*
Y144127D01*
G01Y143557D02*
X82817Y143177D01*
X83233Y142860D01*
X83733Y142733D01*
X84233Y142860D01*
X84650Y143177D01*
X84900Y143747D01*
X84817Y144317D01*
X84483Y144887D01*
G01X93400Y136100D02*
Y142100D01*
X90400D01*
Y136100D01*
X93400D01*
G01X88900Y144733D02*
X83900D01*
Y146317D01*
X84150Y146823D01*
X84483Y147140D01*
X85150Y147267D01*
X85817Y147140D01*
X86233Y146760D01*
X86483Y146317D01*
Y144733D01*
G01Y146317D02*
X88900Y147267D01*
G01Y151860D02*
X83900D01*
X87483Y149517D01*
Y152683D01*
G01X83900Y156200D02*
X84067Y155693D01*
X84483Y155313D01*
X84983Y155060D01*
X85650Y154870D01*
X86400Y154807D01*
X87150Y154870D01*
X87817Y155060D01*
X88317Y155313D01*
X88733Y155693D01*
X88900Y156200D01*
X88733Y156707D01*
X88317Y157087D01*
X87817Y157340D01*
X87150Y157530D01*
X86400Y157593D01*
X85650Y157530D01*
X84983Y157340D01*
X84483Y157087D01*
X84067Y156707D01*
X83900Y156200D01*
G01X93400Y148100D02*
Y154100D01*
X90400D01*
Y148100D01*
X93400D01*
G01X111287Y6287D02*
X107752Y9823D01*
X108647Y10718D01*
X109182Y10900D01*
X109687Y10933D01*
X110264Y10803D01*
X110856Y10570D01*
X111490Y10025D01*
X112034Y9391D01*
X112268Y8800D01*
X112398Y8222D01*
X112364Y7718D01*
X112183Y7183D01*
X111287Y6287D01*
G01X115878Y10878D02*
X112343Y14414D01*
X112513Y13170D01*
G01X115341Y10341D02*
X116416Y11416D01*
G01X115949Y18020D02*
X115708Y17544D01*
X115735Y16981D01*
X115909Y16448D01*
X116246Y15842D01*
X116732Y15267D01*
X117307Y14781D01*
X117912Y14444D01*
X118445Y14270D01*
X119008Y14244D01*
X119484Y14484D01*
X119725Y14961D01*
X119699Y15524D01*
X119525Y16057D01*
X119188Y16662D01*
X118702Y17237D01*
X118127Y17723D01*
X117521Y18060D01*
X116988Y18234D01*
X116425Y18260D01*
X115949Y18020D01*
G01X116939Y9818D02*
X121182Y14061D01*
X119061Y16182D01*
X114818Y11939D01*
X116939Y9818D01*
G01X120623Y19380D02*
X124159Y15845D01*
X123039Y14725D01*
X122504Y14544D01*
X122044Y14555D01*
X121483Y14937D01*
X121102Y15498D01*
X121076Y16061D01*
X121212Y16552D01*
X122332Y17671D01*
G01X121212Y16552D02*
X118832Y17589D01*
G01X116122Y14879D02*
X119657Y11343D01*
X119487Y12587D01*
G01X116659Y15416D02*
X115584Y14341D01*
G01X116313Y9177D02*
X116397Y8555D01*
X116261Y8065D01*
X115961Y7647D01*
X115396Y7317D01*
X114788Y7299D01*
X114345Y7562D01*
X114036Y7961D01*
X113920Y8435D01*
X114227Y9920D01*
X114217Y10735D01*
X113897Y11593D01*
X113456Y12213D01*
X111575Y10332D01*
G01X115061Y20182D02*
X110818Y15939D01*
X112939Y13818D01*
X117182Y18061D01*
X115061Y20182D01*
G01X112367Y32000D02*
X112050Y32500D01*
X111670Y32833D01*
X111227Y33000D01*
X110720Y32833D01*
X110340Y32500D01*
X109960Y32000D01*
X109833Y31333D01*
Y28000D01*
G01X107393Y32250D02*
X107013Y32667D01*
X106570Y32917D01*
X106000Y33000D01*
X105430Y32833D01*
X104987Y32500D01*
X104670Y31917D01*
X104607Y31250D01*
X104733Y30583D01*
X105050Y30167D01*
X105493Y29833D01*
X105937Y29750D01*
X106380Y29833D01*
X106950Y30167D01*
X106760Y28000D01*
X105050D01*
G01X118500Y45500D02*
X113500D01*
Y20500D01*
X118500D01*
Y45500D01*
G01X101000Y47500D02*
X95000D01*
Y44500D01*
X101000D01*
Y47500D01*
G01Y52500D02*
X95000D01*
Y49500D01*
X101000D01*
Y52500D01*
G01X124713Y46287D02*
X121177Y42752D01*
X120282Y43647D01*
X120100Y44182D01*
X120067Y44687D01*
X120197Y45264D01*
X120430Y45856D01*
X120975Y46490D01*
X121609Y47034D01*
X122200Y47268D01*
X122778Y47398D01*
X123282Y47364D01*
X123817Y47183D01*
X124713Y46287D01*
G01X120122Y50878D02*
X116586Y47343D01*
X117830Y47513D01*
G01X120659Y50341D02*
X119584Y51416D01*
G01X114420Y50687D02*
X113798Y50603D01*
X113308Y50739D01*
X112890Y51039D01*
X112560Y51604D01*
X112542Y52212D01*
X112805Y52655D01*
X113204Y52964D01*
X113678Y53080D01*
X115163Y52773D01*
X115978Y52783D01*
X116836Y53103D01*
X117456Y53544D01*
X115575Y55425D01*
G01X121182Y51939D02*
X116939Y56182D01*
X114818Y54061D01*
X119061Y49818D01*
X121182Y51939D01*
G01X111620Y55623D02*
X115155Y59159D01*
X116275Y58039D01*
X116456Y57504D01*
X116445Y57044D01*
X116063Y56483D01*
X115502Y56102D01*
X114939Y56076D01*
X114448Y56212D01*
X113329Y57332D01*
G01X114448Y56212D02*
X113411Y53832D01*
G01X116121Y51122D02*
X119657Y54657D01*
X118413Y54487D01*
G01X115584Y51659D02*
X116659Y50584D01*
G01X120265Y46978D02*
X123800Y50514D01*
X119610Y49637D01*
X121849Y47398D01*
G01X110818Y50061D02*
X115061Y45818D01*
X117182Y47939D01*
X112939Y52182D01*
X110818Y50061D01*
G01X111287Y71287D02*
X107752Y74823D01*
X108647Y75718D01*
X109182Y75900D01*
X109687Y75933D01*
X110264Y75803D01*
X110856Y75570D01*
X111490Y75025D01*
X112034Y74391D01*
X112268Y73800D01*
X112398Y73222D01*
X112364Y72718D01*
X112183Y72183D01*
X111287Y71287D01*
G01X112081Y77974D02*
X111997Y78596D01*
X112133Y79086D01*
X112433Y79504D01*
X112998Y79834D01*
X113606Y79852D01*
X114049Y79589D01*
X114358Y79190D01*
X114474Y78716D01*
X114167Y77231D01*
X114177Y76416D01*
X114497Y75558D01*
X114938Y74938D01*
X116819Y76819D01*
G01X115687Y81580D02*
X115603Y82202D01*
X115739Y82692D01*
X116039Y83110D01*
X116604Y83440D01*
X117212Y83458D01*
X117655Y83195D01*
X117964Y82796D01*
X118080Y82322D01*
X117773Y80837D01*
X117783Y80022D01*
X118103Y79164D01*
X118544Y78544D01*
X120425Y80425D01*
G01X120623Y84380D02*
X124159Y80845D01*
X123039Y79725D01*
X122504Y79544D01*
X122044Y79555D01*
X121483Y79937D01*
X121102Y80498D01*
X121076Y81061D01*
X121212Y81552D01*
X122332Y82671D01*
G01X121212Y81552D02*
X118832Y82589D01*
G01X117814Y80157D02*
X117133Y80301D01*
X116539Y80178D01*
X116077Y79834D01*
X115777Y79416D01*
X115714Y78764D01*
X115843Y78186D01*
X116152Y77788D01*
X116654Y77465D01*
X117262Y77484D01*
X117694Y77679D01*
X118097Y78082D01*
G01X117694Y77679D02*
X117602Y77234D01*
X117672Y76715D01*
X117936Y76272D01*
X118379Y76008D01*
X118898Y75938D01*
X119478Y76164D01*
X119822Y76626D01*
X119989Y77265D01*
G01X116051Y72737D02*
X116292Y73213D01*
X116265Y73776D01*
X116091Y74309D01*
X115754Y74915D01*
X115268Y75490D01*
X114693Y75976D01*
X114088Y76313D01*
X113555Y76487D01*
X112992Y76513D01*
X112516Y76273D01*
X112275Y75796D01*
X112301Y75233D01*
X112475Y74700D01*
X112812Y74095D01*
X113298Y73520D01*
X113873Y73034D01*
X114479Y72697D01*
X115012Y72523D01*
X115575Y72497D01*
X116051Y72737D01*
G01X112367Y97000D02*
X112050Y97500D01*
X111670Y97833D01*
X111227Y98000D01*
X110720Y97833D01*
X110340Y97500D01*
X109960Y97000D01*
X109833Y96333D01*
Y93000D01*
G01X106000Y98000D02*
X105557Y97917D01*
X105050Y97667D01*
X104733Y97250D01*
X104607Y96667D01*
X104733Y96083D01*
X105113Y95583D01*
X105683Y95333D01*
X106317D01*
X106697Y95167D01*
X107013Y94750D01*
X107140Y94167D01*
X106950Y93583D01*
X106507Y93167D01*
X106000Y93000D01*
X105493Y93167D01*
X105050Y93583D01*
X104860Y94167D01*
X104987Y94750D01*
X105303Y95167D01*
X105683Y95333D01*
X106317D01*
X106887Y95583D01*
X107267Y96083D01*
X107393Y96667D01*
X107267Y97250D01*
X106950Y97667D01*
X106443Y97917D01*
X106000Y98000D01*
G01X118500Y110500D02*
X113500D01*
Y85500D01*
X118500D01*
Y110500D01*
G01X116939Y74818D02*
X121182Y79061D01*
X119061Y81182D01*
X114818Y76939D01*
X116939Y74818D01*
G01X115061Y85182D02*
X110818Y80939D01*
X112939Y78818D01*
X117182Y83061D01*
X115061Y85182D01*
G01X101000Y117500D02*
X95000D01*
Y114500D01*
X101000D01*
Y117500D01*
G01Y112500D02*
X95000D01*
Y109500D01*
X101000D01*
Y112500D01*
G01X124713Y111287D02*
X121177Y107752D01*
X120282Y108647D01*
X120100Y109182D01*
X120067Y109687D01*
X120197Y110264D01*
X120430Y110856D01*
X120975Y111490D01*
X121609Y112034D01*
X122200Y112268D01*
X122778Y112398D01*
X123282Y112364D01*
X123817Y112183D01*
X124713Y111287D01*
G01X118026Y112081D02*
X117404Y111997D01*
X116914Y112133D01*
X116496Y112433D01*
X116166Y112998D01*
X116148Y113606D01*
X116411Y114049D01*
X116810Y114358D01*
X117284Y114474D01*
X118769Y114167D01*
X119584Y114177D01*
X120442Y114497D01*
X121062Y114938D01*
X119181Y116819D01*
G01X115978Y120022D02*
X112443Y116486D01*
X116633Y117363D01*
X114394Y119602D01*
G01X111620Y120623D02*
X115155Y124159D01*
X116275Y123039D01*
X116456Y122504D01*
X116445Y122044D01*
X116063Y121483D01*
X115502Y121102D01*
X114939Y121076D01*
X114448Y121212D01*
X113329Y122332D01*
G01X114448Y121212D02*
X113411Y118832D01*
G01X118217Y119919D02*
X118839Y120003D01*
X119329Y119867D01*
X119747Y119567D01*
X120077Y119002D01*
X120095Y118394D01*
X119832Y117951D01*
X119433Y117642D01*
X118959Y117526D01*
X117474Y117833D01*
X116659Y117823D01*
X115801Y117503D01*
X115181Y117062D01*
X117062Y115181D01*
G01X119638Y112605D02*
X120493Y113282D01*
X121276Y113795D01*
X122044Y114206D01*
X122917Y114630D01*
X124159Y115155D01*
X122367Y116947D01*
G01X110818Y115061D02*
X115061Y110818D01*
X117182Y112939D01*
X112939Y117182D01*
X110818Y115061D01*
G01X114517Y135593D02*
X114267Y135213D01*
X114100Y134770D01*
Y134263D01*
X114350Y133693D01*
X114767Y133250D01*
X115267Y132933D01*
X116100Y132680D01*
X116850Y132617D01*
X117600Y132743D01*
X118100Y132933D01*
X118600Y133313D01*
X118933Y133757D01*
X119100Y134200D01*
Y134643D01*
X118933Y135087D01*
X118683Y135467D01*
X118350Y135783D01*
G01X118100Y137907D02*
X118683Y138287D01*
X119017Y138793D01*
X119100Y139363D01*
X119017Y139870D01*
X118600Y140377D01*
X118100Y140693D01*
X117600Y140757D01*
X117017Y140630D01*
X116600Y140187D01*
X116433Y139743D01*
Y139173D01*
G01Y139743D02*
X116183Y140123D01*
X115767Y140440D01*
X115267Y140567D01*
X114767Y140440D01*
X114350Y140123D01*
X114100Y139553D01*
X114183Y138983D01*
X114517Y138413D01*
G01X118517Y143323D02*
X118933Y143767D01*
X119100Y144273D01*
X118933Y144780D01*
X118433Y145223D01*
X117683Y145540D01*
X116933Y145667D01*
X116017D01*
X115267Y145540D01*
X114600Y145223D01*
X114267Y144843D01*
X114100Y144400D01*
X114267Y143893D01*
X114600Y143513D01*
X115100Y143260D01*
X115767Y143133D01*
X116350Y143260D01*
X116933Y143577D01*
X117267Y143957D01*
X117350Y144400D01*
X117183Y144907D01*
X116767Y145287D01*
X116017Y145667D01*
G01X121182Y116939D02*
X116939Y121182D01*
X114818Y119061D01*
X119061Y114818D01*
X121182Y116939D01*
G01X110100Y130400D02*
X112350D01*
X115100Y131667D01*
G01Y129133D02*
X112350Y130400D01*
G01X110100Y125300D02*
X115100D01*
X114100Y126060D01*
G01X110100D02*
Y124540D01*
G01X114267Y121403D02*
X114767Y121023D01*
X115017Y120580D01*
X115100Y120073D01*
X114933Y119440D01*
X114517Y118997D01*
X114017Y118870D01*
X113517Y118933D01*
X113100Y119187D01*
X112267Y120453D01*
X111683Y121023D01*
X110850Y121403D01*
X110100Y121530D01*
Y118870D01*
G01X103900Y137800D02*
Y132800D01*
X116300D01*
Y137800D01*
X103900D01*
G01X112100Y155667D02*
X111600Y155350D01*
X111267Y154970D01*
X111100Y154527D01*
X111267Y154020D01*
X111600Y153640D01*
X112100Y153260D01*
X112767Y153133D01*
X116100D01*
G01X111100Y149300D02*
X116100D01*
X115100Y150060D01*
G01X111100D02*
Y148540D01*
G01X115267Y145403D02*
X115767Y145023D01*
X116017Y144580D01*
X116100Y144073D01*
X115933Y143440D01*
X115517Y142997D01*
X115017Y142870D01*
X114517Y142933D01*
X114100Y143187D01*
X113267Y144453D01*
X112683Y145023D01*
X111850Y145403D01*
X111100Y145530D01*
Y142870D01*
G01X107683Y157007D02*
X107933Y157387D01*
X108100Y157830D01*
Y158337D01*
X107850Y158907D01*
X107433Y159350D01*
X106933Y159667D01*
X106100Y159920D01*
X105350Y159983D01*
X104600Y159857D01*
X104100Y159667D01*
X103600Y159287D01*
X103267Y158843D01*
X103100Y158400D01*
Y157957D01*
X103267Y157513D01*
X103517Y157133D01*
X103850Y156817D01*
G01X103100Y152540D02*
X108100D01*
X104517Y154883D01*
Y151717D01*
G01X103100Y148200D02*
X108100D01*
X107100Y148960D01*
G01X103100D02*
Y147440D01*
G01X97600Y156300D02*
Y150300D01*
X100600D01*
Y156300D01*
X97600D01*
G01X100600Y138300D02*
Y144300D01*
X97600D01*
Y138300D01*
X100600D01*
G01X96100Y137807D02*
X99683D01*
X100433Y138060D01*
X100933Y138567D01*
X101100Y139200D01*
X100933Y139833D01*
X100433Y140340D01*
X99683Y140593D01*
X96100D01*
G01X101100Y144300D02*
X96100D01*
X97100Y143540D01*
G01X101100D02*
Y145060D01*
G01X96933Y148197D02*
X96433Y148577D01*
X96183Y149020D01*
X96100Y149527D01*
X96267Y150160D01*
X96683Y150603D01*
X97183Y150730D01*
X97683Y150667D01*
X98100Y150413D01*
X98933Y149147D01*
X99517Y148577D01*
X100350Y148197D01*
X101100Y148070D01*
Y150730D01*
G01X98600Y161800D02*
Y156800D01*
X123600D01*
Y161800D01*
X98600D01*
G01X119307Y44100D02*
Y41878D01*
X119460Y41413D01*
X119767Y41103D01*
X120150Y41000D01*
X120533Y41103D01*
X120840Y41413D01*
X120993Y41878D01*
Y44100D01*
G01X122407Y41465D02*
X122637Y41207D01*
X122905Y41052D01*
X123250Y41000D01*
X123595Y41103D01*
X123863Y41310D01*
X124055Y41672D01*
X124093Y42085D01*
X124017Y42498D01*
X123825Y42757D01*
X123557Y42963D01*
X123288Y43015D01*
X123020Y42963D01*
X122675Y42757D01*
X122790Y44100D01*
X123825D01*
G01X136287Y84713D02*
X139823Y88248D01*
X140718Y87353D01*
X140900Y86818D01*
X140933Y86313D01*
X140803Y85736D01*
X140570Y85144D01*
X140025Y84510D01*
X139391Y83966D01*
X138800Y83732D01*
X138222Y83602D01*
X137718Y83636D01*
X137183Y83817D01*
X136287Y84713D01*
G01X142974Y83919D02*
X143596Y84003D01*
X144086Y83867D01*
X144504Y83567D01*
X144834Y83002D01*
X144852Y82394D01*
X144589Y81951D01*
X144190Y81642D01*
X143716Y81526D01*
X142231Y81833D01*
X141416Y81823D01*
X140558Y81503D01*
X139938Y81062D01*
X141819Y79181D01*
G01X144395Y76605D02*
X145250Y77282D01*
X146033Y77795D01*
X146801Y78206D01*
X147674Y78630D01*
X148916Y79155D01*
X147124Y80947D01*
G01X140100Y98000D02*
Y95750D01*
X141367Y93000D01*
G01X138833D02*
X140100Y95750D01*
G01X136077Y97417D02*
X135633Y97833D01*
X135127Y98000D01*
X134620Y97833D01*
X134177Y97333D01*
X133860Y96583D01*
X133733Y95833D01*
Y94917D01*
X133860Y94167D01*
X134177Y93500D01*
X134557Y93167D01*
X135000Y93000D01*
X135507Y93167D01*
X135887Y93500D01*
X136140Y94000D01*
X136267Y94667D01*
X136140Y95250D01*
X135823Y95833D01*
X135443Y96167D01*
X135000Y96250D01*
X134493Y96083D01*
X134113Y95667D01*
X133733Y94917D01*
G01X119307Y109100D02*
Y106878D01*
X119460Y106413D01*
X119767Y106103D01*
X120150Y106000D01*
X120533Y106103D01*
X120840Y106413D01*
X120993Y106878D01*
Y109100D01*
G01X123250Y106000D02*
X123518Y106052D01*
X123825Y106207D01*
X124017Y106465D01*
X124093Y106827D01*
X124017Y107188D01*
X123787Y107498D01*
X123442Y107653D01*
X123058D01*
X122828Y107757D01*
X122637Y108015D01*
X122560Y108377D01*
X122675Y108738D01*
X122943Y108997D01*
X123250Y109100D01*
X123557Y108997D01*
X123825Y108738D01*
X123940Y108377D01*
X123863Y108015D01*
X123672Y107757D01*
X123442Y107653D01*
X123058D01*
X122713Y107498D01*
X122483Y107188D01*
X122407Y106827D01*
X122483Y106465D01*
X122675Y106207D01*
X122982Y106052D01*
X123250Y106000D01*
G01X124600Y136300D02*
Y142300D01*
X121600D01*
Y136300D01*
X124600D01*
G01X136287Y149713D02*
X139823Y153248D01*
X140718Y152353D01*
X140900Y151818D01*
X140933Y151313D01*
X140803Y150736D01*
X140570Y150144D01*
X140025Y149510D01*
X139391Y148966D01*
X138800Y148732D01*
X138222Y148602D01*
X137718Y148636D01*
X137183Y148817D01*
X136287Y149713D01*
G01X140878Y145122D02*
X144414Y148657D01*
X143170Y148487D01*
G01X140341Y145659D02*
X141416Y144584D01*
G01X144136Y142689D02*
X144154Y142081D01*
X144395Y141605D01*
X144871Y141365D01*
X145538Y141405D01*
X146292Y141711D01*
X146912Y142152D01*
X147560Y142800D01*
X148001Y143420D01*
X148249Y144115D01*
X148216Y144620D01*
X148020Y145051D01*
X147544Y145292D01*
X147039Y145324D01*
X146507Y145150D01*
X145946Y144768D01*
X145623Y144266D01*
X145434Y143630D01*
X145467Y143125D01*
X145722Y142753D01*
X146198Y142512D01*
X146761Y142538D01*
X147560Y142800D01*
G01X120100Y144933D02*
X115100D01*
Y146517D01*
X115350Y147023D01*
X115683Y147340D01*
X116350Y147467D01*
X117017Y147340D01*
X117433Y146960D01*
X117683Y146517D01*
Y144933D01*
G01Y146517D02*
X120100Y147467D01*
G01X119100Y149907D02*
X119683Y150287D01*
X120017Y150793D01*
X120100Y151363D01*
X120017Y151870D01*
X119600Y152377D01*
X119100Y152693D01*
X118600Y152757D01*
X118017Y152630D01*
X117600Y152187D01*
X117433Y151743D01*
Y151173D01*
G01Y151743D02*
X117183Y152123D01*
X116767Y152440D01*
X116267Y152567D01*
X115767Y152440D01*
X115350Y152123D01*
X115100Y151553D01*
X115183Y150983D01*
X115517Y150413D01*
G01X119517Y155323D02*
X119933Y155767D01*
X120100Y156273D01*
X119933Y156780D01*
X119433Y157223D01*
X118683Y157540D01*
X117933Y157667D01*
X117017D01*
X116267Y157540D01*
X115600Y157223D01*
X115267Y156843D01*
X115100Y156400D01*
X115267Y155893D01*
X115600Y155513D01*
X116100Y155260D01*
X116767Y155133D01*
X117350Y155260D01*
X117933Y155577D01*
X118267Y155957D01*
X118350Y156400D01*
X118183Y156907D01*
X117767Y157287D01*
X117017Y157667D01*
G01X124600Y148300D02*
Y154300D01*
X121600D01*
Y148300D01*
X124600D01*
G01X140100Y163000D02*
Y160750D01*
X141367Y158000D01*
G01X138833D02*
X140100Y160750D01*
G01X135127Y163000D02*
X135000Y161917D01*
X134810Y161000D01*
X134557Y160167D01*
X134240Y159250D01*
X133733Y158000D01*
X136267D01*
G01X139818Y79061D02*
X144061Y74818D01*
X146182Y76939D01*
X141939Y81182D01*
X139818Y79061D01*
G01X149380Y75377D02*
X145845Y71841D01*
X144725Y72961D01*
X144544Y73496D01*
X144555Y73956D01*
X144937Y74517D01*
X145498Y74898D01*
X146061Y74924D01*
X146552Y74788D01*
X147671Y73668D01*
G01X146552Y74788D02*
X147589Y77168D01*
G01X145157Y78186D02*
X145301Y78867D01*
X145178Y79461D01*
X144834Y79923D01*
X144416Y80223D01*
X143764Y80286D01*
X143186Y80157D01*
X142788Y79848D01*
X142465Y79346D01*
X142484Y78738D01*
X142679Y78306D01*
X143082Y77903D01*
G01X142679Y78306D02*
X142234Y78398D01*
X141715Y78328D01*
X141272Y78064D01*
X141008Y77621D01*
X140938Y77102D01*
X141164Y76522D01*
X141626Y76178D01*
X142265Y76011D01*
G01X140650Y81161D02*
X139924Y81061D01*
X139420Y81095D01*
X138944Y81335D01*
X138748Y81766D01*
X138760Y82226D01*
X138934Y82759D01*
X139302Y83216D01*
X139700Y83525D01*
X140233Y83699D01*
X140796Y83725D01*
X141228Y83529D01*
X141468Y83053D01*
X141428Y82386D01*
X141077Y81677D01*
X140532Y81043D01*
X139677Y80366D01*
X139130Y80088D01*
X138494Y79899D01*
X137885Y79918D01*
X137513Y80173D01*
X137317Y80604D01*
X137388Y81123D01*
G01X150182Y80939D02*
X145939Y85182D01*
X143818Y83061D01*
X148061Y78818D01*
X150182Y80939D01*
G01X147500Y104200D02*
X142500D01*
Y91800D01*
X147500D01*
Y104200D01*
G01X149713Y124713D02*
X153248Y121177D01*
X152353Y120282D01*
X151818Y120100D01*
X151313Y120067D01*
X150736Y120197D01*
X150144Y120430D01*
X149510Y120975D01*
X148966Y121609D01*
X148732Y122200D01*
X148602Y122778D01*
X148636Y123282D01*
X148817Y123817D01*
X149713Y124713D01*
G01X148919Y118026D02*
X149003Y117404D01*
X148867Y116914D01*
X148567Y116496D01*
X148002Y116166D01*
X147394Y116148D01*
X146951Y116411D01*
X146642Y116810D01*
X146526Y117284D01*
X146833Y118769D01*
X146823Y119584D01*
X146503Y120442D01*
X146062Y121062D01*
X144181Y119181D01*
G01X143031Y116971D02*
X142468Y116996D01*
X141977Y116860D01*
X141516Y116516D01*
X141230Y115995D01*
X141152Y115446D01*
X141341Y114809D01*
X141768Y114293D01*
X142329Y113911D01*
X142847Y113840D01*
X143396Y113918D01*
X143769Y114173D01*
X144023Y114545D01*
X144191Y115184D01*
X145588Y113517D01*
X144379Y112308D01*
G01X144061Y121182D02*
X139818Y116939D01*
X141939Y114818D01*
X146182Y119061D01*
X144061Y121182D01*
G01X140377Y111620D02*
X136841Y115155D01*
X137961Y116275D01*
X138496Y116456D01*
X138956Y116445D01*
X139517Y116063D01*
X139898Y115502D01*
X139924Y114939D01*
X139788Y114448D01*
X138668Y113329D01*
G01X139788Y114448D02*
X142168Y113411D01*
G01X143186Y115843D02*
X143867Y115699D01*
X144461Y115822D01*
X144923Y116166D01*
X145223Y116584D01*
X145286Y117236D01*
X145157Y117814D01*
X144848Y118212D01*
X144346Y118535D01*
X143738Y118516D01*
X143306Y118321D01*
X142903Y117918D01*
G01X143306Y118321D02*
X143398Y118766D01*
X143328Y119285D01*
X143064Y119728D01*
X142621Y119992D01*
X142102Y120062D01*
X141522Y119836D01*
X141178Y119374D01*
X141011Y118735D01*
G01X149022Y120265D02*
X145486Y123800D01*
X146363Y119610D01*
X148602Y121849D01*
G01X145939Y110818D02*
X150182Y115061D01*
X148061Y117182D01*
X143818Y112939D01*
X145939Y110818D01*
G01X139818Y144061D02*
X144061Y139818D01*
X146182Y141939D01*
X141939Y146182D01*
X139818Y144061D01*
G01X149380Y140377D02*
X145845Y136841D01*
X144725Y137961D01*
X144544Y138496D01*
X144555Y138956D01*
X144937Y139517D01*
X145498Y139898D01*
X146061Y139924D01*
X146552Y139788D01*
X147671Y138668D01*
G01X146552Y139788D02*
X147589Y142168D01*
G01X142783Y141081D02*
X142161Y140997D01*
X141671Y141133D01*
X141253Y141433D01*
X140923Y141998D01*
X140905Y142606D01*
X141168Y143049D01*
X141567Y143358D01*
X142041Y143474D01*
X143526Y143167D01*
X144341Y143177D01*
X145199Y143497D01*
X145819Y143938D01*
X143938Y145819D01*
G01X140650Y146161D02*
X139924Y146061D01*
X139420Y146095D01*
X138944Y146335D01*
X138748Y146766D01*
X138760Y147226D01*
X138934Y147759D01*
X139302Y148216D01*
X139700Y148525D01*
X140233Y148699D01*
X140796Y148725D01*
X141228Y148529D01*
X141468Y148053D01*
X141428Y147386D01*
X141077Y146677D01*
X140532Y146043D01*
X139677Y145366D01*
X139130Y145088D01*
X138494Y144899D01*
X137885Y144918D01*
X137513Y145173D01*
X137317Y145604D01*
X137388Y146123D01*
G01X150182Y145939D02*
X145939Y150182D01*
X143818Y148061D01*
X148061Y143818D01*
X150182Y145939D01*
G01X140377Y176620D02*
X136841Y180155D01*
X137961Y181275D01*
X138496Y181456D01*
X138956Y181445D01*
X139517Y181063D01*
X139898Y180502D01*
X139924Y179939D01*
X139788Y179448D01*
X138668Y178329D01*
G01X139788Y179448D02*
X142168Y178411D01*
G01X141081Y183217D02*
X140997Y183839D01*
X141133Y184329D01*
X141433Y184747D01*
X141998Y185077D01*
X142606Y185095D01*
X143049Y184832D01*
X143358Y184433D01*
X143474Y183959D01*
X143167Y182474D01*
X143177Y181659D01*
X143497Y180801D01*
X143938Y180181D01*
X145819Y182062D01*
G01X149022Y185265D02*
X145486Y188800D01*
X146363Y184610D01*
X148602Y186849D01*
G01X147500Y169200D02*
X142500D01*
Y156800D01*
X147500D01*
Y169200D01*
G01X149713Y189713D02*
X153248Y186177D01*
X152353Y185282D01*
X151818Y185100D01*
X151313Y185067D01*
X150736Y185197D01*
X150144Y185430D01*
X149510Y185975D01*
X148966Y186609D01*
X148732Y187200D01*
X148602Y187778D01*
X148636Y188282D01*
X148817Y188817D01*
X149713Y189713D01*
G01X145122Y185122D02*
X148657Y181586D01*
X148487Y182830D01*
G01X145659Y185659D02*
X144584Y184584D01*
G01X141605Y181605D02*
X142282Y180750D01*
X142795Y179967D01*
X143206Y179199D01*
X143630Y178326D01*
X144155Y177084D01*
X145947Y178876D01*
G01X144061Y186182D02*
X139818Y181939D01*
X141939Y179818D01*
X146182Y184061D01*
X144061Y186182D01*
G01X145939Y175818D02*
X150182Y180061D01*
X148061Y182182D01*
X143818Y177939D01*
X145939Y175818D01*
G01X155000Y23000D02*
Y43000D01*
X171000D01*
Y23000D01*
X155000D01*
G01X176287Y71287D02*
X172752Y74823D01*
X173647Y75718D01*
X174182Y75900D01*
X174687Y75933D01*
X175264Y75803D01*
X175856Y75570D01*
X176490Y75025D01*
X177034Y74391D01*
X177268Y73800D01*
X177398Y73222D01*
X177364Y72718D01*
X177183Y72183D01*
X176287Y71287D01*
G01X177081Y77974D02*
X176997Y78596D01*
X177133Y79086D01*
X177433Y79504D01*
X177998Y79834D01*
X178606Y79852D01*
X179049Y79589D01*
X179358Y79190D01*
X179474Y78716D01*
X179167Y77231D01*
X179177Y76416D01*
X179497Y75558D01*
X179938Y74938D01*
X181819Y76819D01*
G01X182161Y80107D02*
X182061Y80833D01*
X182095Y81337D01*
X182335Y81813D01*
X182766Y82009D01*
X183226Y81997D01*
X183759Y81823D01*
X184216Y81455D01*
X184525Y81057D01*
X184699Y80524D01*
X184725Y79961D01*
X184529Y79529D01*
X184053Y79289D01*
X183386Y79329D01*
X182677Y79680D01*
X182043Y80225D01*
X181366Y81080D01*
X181088Y81627D01*
X180899Y82263D01*
X180918Y82872D01*
X181173Y83244D01*
X181604Y83440D01*
X182123Y83369D01*
G01X155000Y88000D02*
Y108000D01*
X171000D01*
Y88000D01*
X155000D01*
G01X177367Y97000D02*
X177050Y97500D01*
X176670Y97833D01*
X176227Y98000D01*
X175720Y97833D01*
X175340Y97500D01*
X174960Y97000D01*
X174833Y96333D01*
Y93000D01*
G01X172077Y97417D02*
X171633Y97833D01*
X171127Y98000D01*
X170620Y97833D01*
X170177Y97333D01*
X169860Y96583D01*
X169733Y95833D01*
Y94917D01*
X169860Y94167D01*
X170177Y93500D01*
X170557Y93167D01*
X171000Y93000D01*
X171507Y93167D01*
X171887Y93500D01*
X172140Y94000D01*
X172267Y94667D01*
X172140Y95250D01*
X171823Y95833D01*
X171443Y96167D01*
X171000Y96250D01*
X170493Y96083D01*
X170113Y95667D01*
X169733Y94917D01*
G01X158293Y88583D02*
X157913Y88833D01*
X157470Y89000D01*
X156963D01*
X156393Y88750D01*
X155950Y88333D01*
X155633Y87833D01*
X155380Y87000D01*
X155317Y86250D01*
X155443Y85500D01*
X155633Y85000D01*
X156013Y84500D01*
X156457Y84167D01*
X156900Y84000D01*
X157343D01*
X157787Y84167D01*
X158167Y84417D01*
X158483Y84750D01*
G01X160797Y88167D02*
X161177Y88667D01*
X161620Y88917D01*
X162127Y89000D01*
X162760Y88833D01*
X163203Y88417D01*
X163330Y87917D01*
X163267Y87417D01*
X163013Y87000D01*
X161747Y86167D01*
X161177Y85583D01*
X160797Y84750D01*
X160670Y84000D01*
X163330D01*
G01X165707Y84750D02*
X166087Y84333D01*
X166530Y84083D01*
X167100Y84000D01*
X167670Y84167D01*
X168113Y84500D01*
X168430Y85083D01*
X168493Y85750D01*
X168367Y86417D01*
X168050Y86833D01*
X167607Y87167D01*
X167163Y87250D01*
X166720Y87167D01*
X166150Y86833D01*
X166340Y89000D01*
X168050D01*
G01X159000Y78500D02*
X165000D01*
Y81500D01*
X159000D01*
Y78500D01*
G01X168367Y82000D02*
Y77000D01*
X166783D01*
X166277Y77250D01*
X165960Y77583D01*
X165833Y78250D01*
X165960Y78917D01*
X166340Y79333D01*
X166783Y79583D01*
X168367D01*
G01X166783D02*
X165833Y82000D01*
G01X163203Y77833D02*
X162823Y77333D01*
X162380Y77083D01*
X161873Y77000D01*
X161240Y77167D01*
X160797Y77583D01*
X160670Y78083D01*
X160733Y78583D01*
X160987Y79000D01*
X162253Y79833D01*
X162823Y80417D01*
X163203Y81250D01*
X163330Y82000D01*
X160670D01*
G01X158293Y81000D02*
X157913Y81583D01*
X157407Y81917D01*
X156837Y82000D01*
X156330Y81917D01*
X155823Y81500D01*
X155507Y81000D01*
X155443Y80500D01*
X155570Y79917D01*
X156013Y79500D01*
X156457Y79333D01*
X157027D01*
G01X156457D02*
X156077Y79083D01*
X155760Y78667D01*
X155633Y78167D01*
X155760Y77667D01*
X156077Y77250D01*
X156647Y77000D01*
X157217Y77083D01*
X157787Y77417D01*
G01X165000Y86500D02*
X159000D01*
Y83500D01*
X165000D01*
Y86500D01*
G01X185623Y84380D02*
X189159Y80845D01*
X188039Y79725D01*
X187504Y79544D01*
X187044Y79555D01*
X186483Y79937D01*
X186102Y80498D01*
X186076Y81061D01*
X186212Y81552D01*
X187332Y82671D01*
G01X186212Y81552D02*
X183832Y82589D01*
G01X182814Y80157D02*
X182133Y80301D01*
X181539Y80178D01*
X181077Y79834D01*
X180777Y79416D01*
X180714Y78764D01*
X180843Y78186D01*
X181152Y77788D01*
X181654Y77465D01*
X182262Y77484D01*
X182694Y77679D01*
X183097Y78082D01*
G01X182694Y77679D02*
X182602Y77234D01*
X182672Y76715D01*
X182936Y76272D01*
X183379Y76008D01*
X183898Y75938D01*
X184478Y76164D01*
X184822Y76626D01*
X184989Y77265D01*
G01X179031Y76728D02*
X178468Y76753D01*
X177977Y76617D01*
X177516Y76273D01*
X177230Y75752D01*
X177152Y75203D01*
X177341Y74566D01*
X177768Y74050D01*
X178329Y73668D01*
X178847Y73597D01*
X179396Y73675D01*
X179769Y73930D01*
X180023Y74302D01*
X180191Y74941D01*
X181588Y73274D01*
X180379Y72065D01*
G01X158000Y105000D02*
G03I-1000J0D01*
G01X166707Y107417D02*
X167087Y107167D01*
X167530Y107000D01*
X168037D01*
X168607Y107250D01*
X169050Y107667D01*
X169367Y108167D01*
X169620Y109000D01*
X169683Y109750D01*
X169557Y110500D01*
X169367Y111000D01*
X168987Y111500D01*
X168543Y111833D01*
X168100Y112000D01*
X167657D01*
X167213Y111833D01*
X166833Y111583D01*
X166517Y111250D01*
G01X164203Y107833D02*
X163823Y107333D01*
X163380Y107083D01*
X162873Y107000D01*
X162240Y107167D01*
X161797Y107583D01*
X161670Y108083D01*
X161733Y108583D01*
X161987Y109000D01*
X163253Y109833D01*
X163823Y110417D01*
X164203Y111250D01*
X164330Y112000D01*
X161670D01*
G01X158977Y111417D02*
X158533Y111833D01*
X158027Y112000D01*
X157520Y111833D01*
X157077Y111333D01*
X156760Y110583D01*
X156633Y109833D01*
Y108917D01*
X156760Y108167D01*
X157077Y107500D01*
X157457Y107167D01*
X157900Y107000D01*
X158407Y107167D01*
X158787Y107500D01*
X159040Y108000D01*
X159167Y108667D01*
X159040Y109250D01*
X158723Y109833D01*
X158343Y110167D01*
X157900Y110250D01*
X157393Y110083D01*
X157013Y109667D01*
X156633Y108917D01*
G01X166000Y117500D02*
X160000D01*
Y114500D01*
X166000D01*
Y117500D01*
G01X166707Y102417D02*
X167087Y102167D01*
X167530Y102000D01*
X168037D01*
X168607Y102250D01*
X169050Y102667D01*
X169367Y103167D01*
X169620Y104000D01*
X169683Y104750D01*
X169557Y105500D01*
X169367Y106000D01*
X168987Y106500D01*
X168543Y106833D01*
X168100Y107000D01*
X167657D01*
X167213Y106833D01*
X166833Y106583D01*
X166517Y106250D01*
G01X164393Y106000D02*
X164013Y106583D01*
X163507Y106917D01*
X162937Y107000D01*
X162430Y106917D01*
X161923Y106500D01*
X161607Y106000D01*
X161543Y105500D01*
X161670Y104917D01*
X162113Y104500D01*
X162557Y104333D01*
X163127D01*
G01X162557D02*
X162177Y104083D01*
X161860Y103667D01*
X161733Y103167D01*
X161860Y102667D01*
X162177Y102250D01*
X162747Y102000D01*
X163317Y102083D01*
X163887Y102417D01*
G01X157900Y102000D02*
X158407Y102167D01*
X158787Y102583D01*
X159040Y103083D01*
X159230Y103750D01*
X159293Y104500D01*
X159230Y105250D01*
X159040Y105917D01*
X158787Y106417D01*
X158407Y106833D01*
X157900Y107000D01*
X157393Y106833D01*
X157013Y106417D01*
X156760Y105917D01*
X156570Y105250D01*
X156507Y104500D01*
X156570Y103750D01*
X156760Y103083D01*
X157013Y102583D01*
X157393Y102167D01*
X157900Y102000D01*
G01X166000Y112500D02*
X160000D01*
Y109500D01*
X166000D01*
Y112500D01*
G01X176620Y120623D02*
X180155Y124159D01*
X181275Y123039D01*
X181456Y122504D01*
X181445Y122044D01*
X181063Y121483D01*
X180502Y121102D01*
X179939Y121076D01*
X179448Y121212D01*
X178329Y122332D01*
G01X179448Y121212D02*
X178411Y118832D01*
G01X180843Y117814D02*
X180699Y117133D01*
X180822Y116539D01*
X181166Y116077D01*
X181584Y115777D01*
X182236Y115714D01*
X182814Y115843D01*
X183212Y116152D01*
X183535Y116654D01*
X183516Y117262D01*
X183321Y117694D01*
X182918Y118097D01*
G01X183321Y117694D02*
X183766Y117602D01*
X184285Y117672D01*
X184728Y117936D01*
X184992Y118379D01*
X185062Y118898D01*
X184836Y119478D01*
X184374Y119822D01*
X183735Y119989D01*
G01X186823Y116313D02*
X187445Y116397D01*
X187935Y116261D01*
X188353Y115961D01*
X188683Y115396D01*
X188701Y114788D01*
X188438Y114345D01*
X188039Y114036D01*
X187565Y113920D01*
X186080Y114227D01*
X185265Y114217D01*
X184407Y113897D01*
X183787Y113456D01*
X185668Y111575D01*
G01X155000Y153000D02*
Y173000D01*
X171000D01*
Y153000D01*
X155000D01*
G01X158293Y153583D02*
X157913Y153833D01*
X157470Y154000D01*
X156963D01*
X156393Y153750D01*
X155950Y153333D01*
X155633Y152833D01*
X155380Y152000D01*
X155317Y151250D01*
X155443Y150500D01*
X155633Y150000D01*
X156013Y149500D01*
X156457Y149167D01*
X156900Y149000D01*
X157343D01*
X157787Y149167D01*
X158167Y149417D01*
X158483Y149750D01*
G01X160797Y153167D02*
X161177Y153667D01*
X161620Y153917D01*
X162127Y154000D01*
X162760Y153833D01*
X163203Y153417D01*
X163330Y152917D01*
X163267Y152417D01*
X163013Y152000D01*
X161747Y151167D01*
X161177Y150583D01*
X160797Y149750D01*
X160670Y149000D01*
X163330D01*
G01X167100D02*
X167543Y149083D01*
X168050Y149333D01*
X168367Y149750D01*
X168493Y150333D01*
X168367Y150917D01*
X167987Y151417D01*
X167417Y151667D01*
X166783D01*
X166403Y151833D01*
X166087Y152250D01*
X165960Y152833D01*
X166150Y153417D01*
X166593Y153833D01*
X167100Y154000D01*
X167607Y153833D01*
X168050Y153417D01*
X168240Y152833D01*
X168113Y152250D01*
X167797Y151833D01*
X167417Y151667D01*
X166783D01*
X166213Y151417D01*
X165833Y150917D01*
X165707Y150333D01*
X165833Y149750D01*
X166150Y149333D01*
X166657Y149083D01*
X167100Y149000D01*
G01X159000Y143500D02*
X165000D01*
Y146500D01*
X159000D01*
Y143500D01*
G01X176287Y136287D02*
X172752Y139823D01*
X173647Y140718D01*
X174182Y140900D01*
X174687Y140933D01*
X175264Y140803D01*
X175856Y140570D01*
X176490Y140025D01*
X177034Y139391D01*
X177268Y138800D01*
X177398Y138222D01*
X177364Y137718D01*
X177183Y137183D01*
X176287Y136287D01*
G01X180878Y140878D02*
X177343Y144414D01*
X177513Y143170D01*
G01X180341Y140341D02*
X181416Y141416D01*
G01X184484Y144484D02*
X184739Y144857D01*
X184921Y145392D01*
X184850Y145910D01*
X184527Y146413D01*
X184025Y146735D01*
X183403Y146820D01*
X182823Y146594D01*
X182375Y146146D01*
X181988Y145995D01*
X181470Y146066D01*
X180968Y146389D01*
X180690Y146936D01*
X180708Y147544D01*
X180949Y148020D01*
X181425Y148260D01*
X182033Y148279D01*
X182580Y148001D01*
X182903Y147499D01*
X182974Y146981D01*
X182823Y146594D01*
X182375Y146146D01*
X182149Y145566D01*
X182234Y144944D01*
X182556Y144442D01*
X183059Y144119D01*
X183577Y144048D01*
X184112Y144230D01*
X184484Y144484D01*
G01X168367Y147000D02*
Y142000D01*
X166783D01*
X166277Y142250D01*
X165960Y142583D01*
X165833Y143250D01*
X165960Y143917D01*
X166340Y144333D01*
X166783Y144583D01*
X168367D01*
G01X166783D02*
X165833Y147000D01*
G01X163203Y142833D02*
X162823Y142333D01*
X162380Y142083D01*
X161873Y142000D01*
X161240Y142167D01*
X160797Y142583D01*
X160670Y143083D01*
X160733Y143583D01*
X160987Y144000D01*
X162253Y144833D01*
X162823Y145417D01*
X163203Y146250D01*
X163330Y147000D01*
X160670D01*
G01X156900D02*
X156457Y146917D01*
X155950Y146667D01*
X155633Y146250D01*
X155507Y145667D01*
X155633Y145083D01*
X156013Y144583D01*
X156583Y144333D01*
X157217D01*
X157597Y144167D01*
X157913Y143750D01*
X158040Y143167D01*
X157850Y142583D01*
X157407Y142167D01*
X156900Y142000D01*
X156393Y142167D01*
X155950Y142583D01*
X155760Y143167D01*
X155887Y143750D01*
X156203Y144167D01*
X156583Y144333D01*
X157217D01*
X157787Y144583D01*
X158167Y145083D01*
X158293Y145667D01*
X158167Y146250D01*
X157850Y146667D01*
X157343Y146917D01*
X156900Y147000D01*
G01X165000Y151500D02*
X159000D01*
Y148500D01*
X165000D01*
Y151500D01*
G01X185623Y149380D02*
X189159Y145845D01*
X188039Y144725D01*
X187504Y144544D01*
X187044Y144555D01*
X186483Y144937D01*
X186102Y145498D01*
X186076Y146061D01*
X186212Y146552D01*
X187332Y147671D01*
G01X186212Y146552D02*
X183832Y147589D01*
G01X184919Y142783D02*
X185003Y142161D01*
X184867Y141671D01*
X184567Y141253D01*
X184002Y140923D01*
X183394Y140905D01*
X182951Y141168D01*
X182642Y141567D01*
X182526Y142041D01*
X182833Y143526D01*
X182823Y144341D01*
X182503Y145199D01*
X182062Y145819D01*
X180181Y143938D01*
G01X179031Y141728D02*
X178468Y141753D01*
X177977Y141617D01*
X177516Y141273D01*
X177230Y140752D01*
X177152Y140203D01*
X177341Y139566D01*
X177768Y139050D01*
X178329Y138668D01*
X178847Y138597D01*
X179396Y138675D01*
X179769Y138930D01*
X180023Y139302D01*
X180191Y139941D01*
X181588Y138274D01*
X180379Y137065D01*
G01X158000Y170000D02*
G03I-1000J0D01*
G01X177367Y162000D02*
X177050Y162500D01*
X176670Y162833D01*
X176227Y163000D01*
X175720Y162833D01*
X175340Y162500D01*
X174960Y162000D01*
X174833Y161333D01*
Y158000D01*
G01X171127Y163000D02*
X171000Y161917D01*
X170810Y161000D01*
X170557Y160167D01*
X170240Y159250D01*
X169733Y158000D01*
X172267D01*
G01X166707Y172417D02*
X167087Y172167D01*
X167530Y172000D01*
X168037D01*
X168607Y172250D01*
X169050Y172667D01*
X169367Y173167D01*
X169620Y174000D01*
X169683Y174750D01*
X169557Y175500D01*
X169367Y176000D01*
X168987Y176500D01*
X168543Y176833D01*
X168100Y177000D01*
X167657D01*
X167213Y176833D01*
X166833Y176583D01*
X166517Y176250D01*
G01X164203Y172833D02*
X163823Y172333D01*
X163380Y172083D01*
X162873Y172000D01*
X162240Y172167D01*
X161797Y172583D01*
X161670Y173083D01*
X161733Y173583D01*
X161987Y174000D01*
X163253Y174833D01*
X163823Y175417D01*
X164203Y176250D01*
X164330Y177000D01*
X161670D01*
G01X159293Y176000D02*
X158913Y176583D01*
X158407Y176917D01*
X157837Y177000D01*
X157330Y176917D01*
X156823Y176500D01*
X156507Y176000D01*
X156443Y175500D01*
X156570Y174917D01*
X157013Y174500D01*
X157457Y174333D01*
X158027D01*
G01X157457D02*
X157077Y174083D01*
X156760Y173667D01*
X156633Y173167D01*
X156760Y172667D01*
X157077Y172250D01*
X157647Y172000D01*
X158217Y172083D01*
X158787Y172417D01*
G01X166707Y167417D02*
X167087Y167167D01*
X167530Y167000D01*
X168037D01*
X168607Y167250D01*
X169050Y167667D01*
X169367Y168167D01*
X169620Y169000D01*
X169683Y169750D01*
X169557Y170500D01*
X169367Y171000D01*
X168987Y171500D01*
X168543Y171833D01*
X168100Y172000D01*
X167657D01*
X167213Y171833D01*
X166833Y171583D01*
X166517Y171250D01*
G01X164203Y167833D02*
X163823Y167333D01*
X163380Y167083D01*
X162873Y167000D01*
X162240Y167167D01*
X161797Y167583D01*
X161670Y168083D01*
X161733Y168583D01*
X161987Y169000D01*
X163253Y169833D01*
X163823Y170417D01*
X164203Y171250D01*
X164330Y172000D01*
X161670D01*
G01X157140D02*
Y167000D01*
X159483Y170583D01*
X156317D01*
G01X166000Y177500D02*
X160000D01*
Y174500D01*
X166000D01*
Y177500D01*
G01Y182500D02*
X160000D01*
Y179500D01*
X166000D01*
Y182500D01*
G01X176620Y185623D02*
X180155Y189159D01*
X181275Y188039D01*
X181456Y187504D01*
X181445Y187044D01*
X181063Y186483D01*
X180502Y186102D01*
X179939Y186076D01*
X179448Y186212D01*
X178329Y187332D01*
G01X179448Y186212D02*
X178411Y183832D01*
G01X183217Y184919D02*
X183839Y185003D01*
X184329Y184867D01*
X184747Y184567D01*
X185077Y184002D01*
X185095Y183394D01*
X184832Y182951D01*
X184433Y182642D01*
X183959Y182526D01*
X182474Y182833D01*
X181659Y182823D01*
X180801Y182503D01*
X180181Y182062D01*
X182062Y180181D01*
G01X186823Y181313D02*
X187445Y181397D01*
X187935Y181261D01*
X188353Y180961D01*
X188683Y180396D01*
X188701Y179788D01*
X188438Y179345D01*
X188039Y179036D01*
X187565Y178920D01*
X186080Y179227D01*
X185265Y179217D01*
X184407Y178897D01*
X183787Y178456D01*
X185668Y176575D01*
G01X181939Y74818D02*
X186182Y79061D01*
X184061Y81182D01*
X179818Y76939D01*
X181939Y74818D01*
G01X183500Y110500D02*
X178500D01*
Y85500D01*
X183500D01*
Y110500D01*
G01X180061Y85182D02*
X175818Y80939D01*
X177939Y78818D01*
X182182Y83061D01*
X180061Y85182D01*
G01X184307Y109100D02*
Y106878D01*
X184460Y106413D01*
X184767Y106103D01*
X185150Y106000D01*
X185533Y106103D01*
X185840Y106413D01*
X185993Y106878D01*
Y109100D01*
G01X187598Y106362D02*
X187867Y106103D01*
X188173Y106000D01*
X188480Y106103D01*
X188748Y106413D01*
X188940Y106878D01*
X189017Y107343D01*
Y107912D01*
X188940Y108377D01*
X188748Y108790D01*
X188518Y108997D01*
X188250Y109100D01*
X187943Y108997D01*
X187713Y108790D01*
X187560Y108480D01*
X187483Y108067D01*
X187560Y107705D01*
X187752Y107343D01*
X187982Y107137D01*
X188250Y107085D01*
X188557Y107188D01*
X188787Y107447D01*
X189017Y107912D01*
G01X189713Y111287D02*
X186177Y107752D01*
X185282Y108647D01*
X185100Y109182D01*
X185067Y109687D01*
X185197Y110264D01*
X185430Y110856D01*
X185975Y111490D01*
X186609Y112034D01*
X187200Y112268D01*
X187778Y112398D01*
X188282Y112364D01*
X188817Y112183D01*
X189713Y111287D01*
G01X183026Y112081D02*
X182404Y111997D01*
X181914Y112133D01*
X181496Y112433D01*
X181166Y112998D01*
X181148Y113606D01*
X181411Y114049D01*
X181810Y114358D01*
X182284Y114474D01*
X183769Y114167D01*
X184584Y114177D01*
X185442Y114497D01*
X186062Y114938D01*
X184181Y116819D01*
G01X181516Y119484D02*
X181143Y119739D01*
X180608Y119921D01*
X180090Y119850D01*
X179587Y119527D01*
X179265Y119025D01*
X179180Y118403D01*
X179406Y117823D01*
X179854Y117375D01*
X180005Y116988D01*
X179934Y116470D01*
X179611Y115968D01*
X179064Y115690D01*
X178456Y115708D01*
X177980Y115949D01*
X177740Y116425D01*
X177721Y117033D01*
X177999Y117580D01*
X178501Y117903D01*
X179019Y117974D01*
X179406Y117823D01*
X179854Y117375D01*
X180434Y117149D01*
X181056Y117234D01*
X181558Y117556D01*
X181881Y118059D01*
X181952Y118577D01*
X181770Y119112D01*
X181516Y119484D01*
G01X186182Y116939D02*
X181939Y121182D01*
X179818Y119061D01*
X184061Y114818D01*
X186182Y116939D01*
G01X175818Y115061D02*
X180061Y110818D01*
X182182Y112939D01*
X177939Y117182D01*
X175818Y115061D01*
G01X183500Y175500D02*
X178500D01*
Y150500D01*
X183500D01*
Y175500D01*
G01X181939Y139818D02*
X186182Y144061D01*
X184061Y146182D01*
X179818Y141939D01*
X181939Y139818D01*
G01X180061Y150182D02*
X175818Y145939D01*
X177939Y143818D01*
X182182Y148061D01*
X180061Y150182D01*
G01X184307Y174100D02*
Y171878D01*
X184460Y171413D01*
X184767Y171103D01*
X185150Y171000D01*
X185533Y171103D01*
X185840Y171413D01*
X185993Y171878D01*
Y174100D01*
G01X188173Y171000D02*
X188250Y171672D01*
X188365Y172240D01*
X188518Y172757D01*
X188710Y173325D01*
X189017Y174100D01*
X187483D01*
G01X189713Y176287D02*
X186177Y172752D01*
X185282Y173647D01*
X185100Y174182D01*
X185067Y174687D01*
X185197Y175264D01*
X185430Y175856D01*
X185975Y176490D01*
X186609Y177034D01*
X187200Y177268D01*
X187778Y177398D01*
X188282Y177364D01*
X188817Y177183D01*
X189713Y176287D01*
G01X183026Y177081D02*
X182404Y176997D01*
X181914Y177133D01*
X181496Y177433D01*
X181166Y177998D01*
X181148Y178606D01*
X181411Y179049D01*
X181810Y179358D01*
X182284Y179474D01*
X183769Y179167D01*
X184584Y179177D01*
X185442Y179497D01*
X186062Y179938D01*
X184181Y181819D01*
G01X177980Y180949D02*
X178456Y180708D01*
X179019Y180735D01*
X179552Y180909D01*
X180158Y181246D01*
X180733Y181732D01*
X181219Y182307D01*
X181556Y182912D01*
X181730Y183445D01*
X181756Y184008D01*
X181516Y184484D01*
X181039Y184725D01*
X180476Y184699D01*
X179943Y184525D01*
X179338Y184188D01*
X178763Y183702D01*
X178277Y183127D01*
X177940Y182521D01*
X177766Y181988D01*
X177740Y181425D01*
X177980Y180949D01*
G01X186182Y181939D02*
X181939Y186182D01*
X179818Y184061D01*
X184061Y179818D01*
X186182Y181939D01*
G01X175818Y180061D02*
X180061Y175818D01*
X182182Y177939D01*
X177939Y182182D01*
X175818Y180061D01*
M02*
