G04 ================== begin FILE IDENTIFICATION RECORD ==================*
G04 Layout Name:  C:/Users/D/Documents/github/Disceep/allegro/disceep.brd*
G04 Film Name:    DisceepBOTTOMSilk*
G04 File Format:  Gerber RS274X*
G04 File Origin:  Cadence Allegro 16.6-P004*
G04 Origin Date:  Thu Jan 15 23:06:35 2015*
G04 *
G04 Layer:  REF DES/SILKSCREEN_BOTTOM*
G04 Layer:  COMPONENT VALUE/SILKSCREEN_BOTTOM*
G04 Layer:  BOARD GEOMETRY/SILKSCREEN_BOTTOM*
G04 *
G04 Offset:    (0.00 0.00)*
G04 Mirror:    No*
G04 Mode:      Positive*
G04 Rotation:  0*
G04 FullContactRelief:  No*
G04 UndefLineWidth:     6.00*
G04 ================== end FILE IDENTIFICATION RECORD ====================*
%FSLAX25Y25*MOIN*%
%IR0*IPPOS*OFA0.00000B0.00000*MIA0B0*SFA1.00000B1.00000*%
%ADD10C,.006*%
G75*
%LPD*%
G75*
G54D10*
G01X473Y131625D02*
X3Y131310D01*
X-545Y131100D01*
X-1172D01*
X-1877Y131415D01*
X-2425Y131940D01*
X-2817Y132570D01*
X-3130Y133620D01*
X-3208Y134565D01*
X-3052Y135510D01*
X-2817Y136140D01*
X-2347Y136770D01*
X-1798Y137190D01*
X-1250Y137400D01*
X-702D01*
X-153Y137190D01*
X317Y136875D01*
X708Y136455D01*
G01X5990Y137400D02*
Y131100D01*
X3092Y135615D01*
X7008D01*
G01X12290Y137400D02*
Y131100D01*
X9392Y135615D01*
X13308D01*
G01X573Y164425D02*
X103Y164110D01*
X-445Y163900D01*
X-1072D01*
X-1777Y164215D01*
X-2325Y164740D01*
X-2717Y165370D01*
X-3030Y166420D01*
X-3108Y167365D01*
X-2952Y168310D01*
X-2717Y168940D01*
X-2247Y169570D01*
X-1698Y169990D01*
X-1150Y170200D01*
X-602D01*
X-53Y169990D01*
X417Y169675D01*
X808Y169255D01*
G01X3427Y168940D02*
X3897Y169675D01*
X4523Y170095D01*
X5228Y170200D01*
X5855Y170095D01*
X6482Y169570D01*
X6873Y168940D01*
X6952Y168310D01*
X6795Y167575D01*
X6247Y167050D01*
X5698Y166840D01*
X4993D01*
G01X5698D02*
X6168Y166525D01*
X6560Y166000D01*
X6717Y165370D01*
X6560Y164740D01*
X6168Y164215D01*
X5463Y163900D01*
X4758Y164005D01*
X4053Y164425D01*
G01X9962Y167575D02*
X10510Y166840D01*
X10980Y166420D01*
X11607Y166210D01*
X12155Y166420D01*
X12547Y166840D01*
X12860Y167470D01*
X12938Y168205D01*
X12860Y168835D01*
X12547Y169465D01*
X12077Y169990D01*
X11528Y170200D01*
X10902Y169990D01*
X10353Y169360D01*
X10040Y168415D01*
X9962Y167365D01*
X10118Y166000D01*
X10353Y165265D01*
X10745Y164530D01*
X11293Y164005D01*
X11842Y163900D01*
X12390Y164110D01*
X12782Y164635D01*
G01X32373Y131625D02*
X31903Y131310D01*
X31355Y131100D01*
X30728D01*
X30023Y131415D01*
X29475Y131940D01*
X29083Y132570D01*
X28770Y133620D01*
X28692Y134565D01*
X28848Y135510D01*
X29083Y136140D01*
X29553Y136770D01*
X30102Y137190D01*
X30650Y137400D01*
X31198D01*
X31747Y137190D01*
X32217Y136875D01*
X32608Y136455D01*
G01X37890Y137400D02*
Y131100D01*
X34992Y135615D01*
X38908D01*
G01X43250Y137400D02*
X43798Y137295D01*
X44425Y136980D01*
X44817Y136455D01*
X44973Y135720D01*
X44817Y134985D01*
X44347Y134355D01*
X43642Y134040D01*
X42858D01*
X42388Y133830D01*
X41997Y133305D01*
X41840Y132570D01*
X42075Y131835D01*
X42623Y131310D01*
X43250Y131100D01*
X43877Y131310D01*
X44425Y131835D01*
X44660Y132570D01*
X44503Y133305D01*
X44112Y133830D01*
X43642Y134040D01*
X42858D01*
X42153Y134355D01*
X41683Y134985D01*
X41527Y135720D01*
X41683Y136455D01*
X42075Y136980D01*
X42702Y137295D01*
X43250Y137400D01*
G01X32473Y164425D02*
X32003Y164110D01*
X31455Y163900D01*
X30828D01*
X30123Y164215D01*
X29575Y164740D01*
X29183Y165370D01*
X28870Y166420D01*
X28792Y167365D01*
X28948Y168310D01*
X29183Y168940D01*
X29653Y169570D01*
X30202Y169990D01*
X30750Y170200D01*
X31298D01*
X31847Y169990D01*
X32317Y169675D01*
X32708Y169255D01*
G01X37990Y170200D02*
Y163900D01*
X35092Y168415D01*
X39008D01*
G01X43350Y163900D02*
X42723Y164110D01*
X42253Y164635D01*
X41940Y165265D01*
X41705Y166105D01*
X41627Y167050D01*
X41705Y167995D01*
X41940Y168835D01*
X42253Y169465D01*
X42723Y169990D01*
X43350Y170200D01*
X43977Y169990D01*
X44447Y169465D01*
X44760Y168835D01*
X44995Y167995D01*
X45073Y167050D01*
X44995Y166105D01*
X44760Y165265D01*
X44447Y164635D01*
X43977Y164110D01*
X43350Y163900D01*
G01X63973Y131325D02*
X63503Y131010D01*
X62955Y130800D01*
X62328D01*
X61623Y131115D01*
X61075Y131640D01*
X60683Y132270D01*
X60370Y133320D01*
X60292Y134265D01*
X60448Y135210D01*
X60683Y135840D01*
X61153Y136470D01*
X61702Y136890D01*
X62250Y137100D01*
X62798D01*
X63347Y136890D01*
X63817Y136575D01*
X64208Y136155D01*
G01X67062Y131850D02*
X67532Y131220D01*
X68080Y130905D01*
X68707Y130800D01*
X69490Y131010D01*
X70038Y131535D01*
X70195Y132165D01*
X70117Y132795D01*
X69803Y133320D01*
X68237Y134370D01*
X67532Y135105D01*
X67062Y136155D01*
X66905Y137100D01*
X70195D01*
G01X74850D02*
Y130800D01*
X73910Y132060D01*
G01Y137100D02*
X75790D01*
G01X95173Y131525D02*
X94703Y131210D01*
X94155Y131000D01*
X93528D01*
X92823Y131315D01*
X92275Y131840D01*
X91883Y132470D01*
X91570Y133520D01*
X91492Y134465D01*
X91648Y135410D01*
X91883Y136040D01*
X92353Y136670D01*
X92902Y137090D01*
X93450Y137300D01*
X93998D01*
X94547Y137090D01*
X95017Y136775D01*
X95408Y136355D01*
G01X98027Y136040D02*
X98497Y136775D01*
X99123Y137195D01*
X99828Y137300D01*
X100455Y137195D01*
X101082Y136670D01*
X101473Y136040D01*
X101552Y135410D01*
X101395Y134675D01*
X100847Y134150D01*
X100298Y133940D01*
X99593D01*
G01X100298D02*
X100768Y133625D01*
X101160Y133100D01*
X101317Y132470D01*
X101160Y131840D01*
X100768Y131315D01*
X100063Y131000D01*
X99358Y131105D01*
X98653Y131525D01*
G01X104562Y132050D02*
X105032Y131420D01*
X105580Y131105D01*
X106207Y131000D01*
X106990Y131210D01*
X107538Y131735D01*
X107695Y132365D01*
X107617Y132995D01*
X107303Y133520D01*
X105737Y134570D01*
X105032Y135305D01*
X104562Y136355D01*
X104405Y137300D01*
X107695D01*
M02*
