G04 ================== begin FILE IDENTIFICATION RECORD ==================*
G04 Layout Name:  C:/Users/D/Documents/github/Disceep/allegro/disceep.brd*
G04 Film Name:    TOP*
G04 File Format:  Gerber RS274X*
G04 File Origin:  Cadence Allegro 16.6-P004*
G04 Origin Date:  Thu Jan 15 16:12:53 2015*
G04 *
G04 Layer:  ETCH/TOP*
G04 Layer:  PIN/TOP*
G04 Layer:  VIA CLASS/TOP*
G04 *
G04 Offset:    (0.00 0.00)*
G04 Mirror:    No*
G04 Mode:      Positive*
G04 Rotation:  0*
G04 FullContactRelief:  No*
G04 UndefLineWidth:     6.00*
G04 ================== end FILE IDENTIFICATION RECORD ====================*
%FSLAX25Y25*MOIN*%
%IR0*IPPOS*OFA0.00000B0.00000*MIA0B0*SFA1.00000B1.00000*%
%AMMACRO10*
21,1,.036,.032,0.0,0.0,135.*%
%ADD10MACRO10*%
%ADD11C,.03*%
%ADD12C,.024*%
%ADD15R,.085X.085*%
%ADD16R,.036X.012*%
%ADD17R,.012X.036*%
%ADD14R,.032X.036*%
%AMMACRO13*
21,1,.036,.032,0.0,0.0,45.*%
%ADD13MACRO13*%
%ADD18R,.036X.032*%
%ADD19R,.065X.013*%
%ADD20C,.012*%
%ADD21C,.006*%
G75*
%LPD*%
G75*
G36*
G01X9500Y44500D02*
Y19500D01*
X-500D01*
Y44500D01*
X9500D01*
G37*
G36*
G01Y109500D02*
Y84500D01*
X-500D01*
Y109500D01*
X9500D01*
G37*
G36*
G01X44500Y9269D02*
Y-500D01*
X19500D01*
Y9500D01*
X42112D01*
X42193Y9418D01*
X44313D01*
X44335Y9414D01*
X44357Y9405D01*
X44378Y9391D01*
X44500Y9269D01*
G37*
G36*
G01Y74269D02*
Y64500D01*
X19500D01*
Y74500D01*
X42112D01*
X42193Y74418D01*
X44313D01*
X44335Y74414D01*
X44357Y74405D01*
X44378Y74391D01*
X44500Y74269D01*
G37*
G36*
G01X19643Y54595D02*
X19622Y54609D01*
X19500Y54731D01*
Y64500D01*
X44500D01*
Y54500D01*
X21888D01*
X21807Y54582D01*
X19687D01*
X19665Y54586D01*
X19643Y54595D01*
G37*
G36*
G01X44500Y129500D02*
Y119500D01*
X21888D01*
X21807Y119582D01*
X19687D01*
X19665Y119586D01*
X19643Y119595D01*
X19622Y119609D01*
X19500Y119731D01*
Y129500D01*
X44500D01*
G37*
G36*
G01X74500Y44500D02*
Y19500D01*
X64500D01*
Y44500D01*
X74500D01*
G37*
G36*
G01X64500D02*
Y19500D01*
X54500D01*
Y44500D01*
X64500D01*
G37*
G36*
G01X74500Y109500D02*
Y84500D01*
X64500D01*
Y109500D01*
X74500D01*
G37*
G36*
G01X64500D02*
Y84500D01*
X54500D01*
Y109500D01*
X64500D01*
G37*
G36*
G01X109500Y9269D02*
Y-500D01*
X84500D01*
Y9500D01*
X107112D01*
X107193Y9418D01*
X109313D01*
X109335Y9414D01*
X109357Y9405D01*
X109378Y9391D01*
X109500Y9269D01*
G37*
G36*
G01Y74269D02*
Y64500D01*
X84500D01*
Y74500D01*
X107112D01*
X107193Y74418D01*
X109313D01*
X109335Y74414D01*
X109357Y74405D01*
X109378Y74391D01*
X109500Y74269D01*
G37*
G36*
G01Y64500D02*
Y54500D01*
X86888D01*
X86807Y54582D01*
X84687D01*
X84665Y54586D01*
X84643Y54595D01*
X84622Y54609D01*
X84500Y54731D01*
Y64500D01*
X109500D01*
G37*
G36*
G01Y129500D02*
Y119500D01*
X86888D01*
X86807Y119582D01*
X84687D01*
X84665Y119586D01*
X84643Y119595D01*
X84622Y119609D01*
X84500Y119731D01*
Y129500D01*
X109500D01*
G37*
G36*
G01X139500Y44500D02*
Y19500D01*
X129500D01*
Y44500D01*
X139500D01*
G37*
G36*
G01X129500D02*
Y19500D01*
X119500D01*
Y44500D01*
X129500D01*
G37*
G36*
G01X139500Y109500D02*
Y84500D01*
X129500D01*
Y109500D01*
X139500D01*
G37*
G36*
G01X129500D02*
Y84500D01*
X119500D01*
Y109500D01*
X129500D01*
G37*
G36*
G01X139500Y174500D02*
Y149500D01*
X129500D01*
Y174500D01*
X139500D01*
G37*
G36*
G01X174500Y9269D02*
Y-500D01*
X149500D01*
Y9500D01*
X172112D01*
X172193Y9418D01*
X174313D01*
X174335Y9414D01*
X174357Y9405D01*
X174378Y9391D01*
X174500Y9269D01*
G37*
G36*
G01Y74269D02*
Y64500D01*
X149500D01*
Y74500D01*
X172112D01*
X172193Y74418D01*
X174313D01*
X174335Y74414D01*
X174357Y74405D01*
X174378Y74391D01*
X174500Y74269D01*
G37*
G36*
G01Y64500D02*
Y54500D01*
X151888D01*
X151807Y54582D01*
X149687D01*
X149665Y54586D01*
X149643Y54595D01*
X149622Y54609D01*
X149500Y54731D01*
Y64500D01*
X174500D01*
G37*
G36*
G01Y139269D02*
Y129500D01*
X149500D01*
Y139500D01*
X172112D01*
X172193Y139418D01*
X174313D01*
X174335Y139414D01*
X174357Y139405D01*
X174378Y139391D01*
X174500Y139269D01*
G37*
G36*
G01Y129500D02*
Y119500D01*
X151888D01*
X151807Y119582D01*
X149687D01*
X149665Y119586D01*
X149643Y119595D01*
X149622Y119609D01*
X149500Y119731D01*
Y129500D01*
X174500D01*
G37*
G36*
G01Y194500D02*
Y184500D01*
X151888D01*
X151807Y184582D01*
X149687D01*
X149665Y184586D01*
X149643Y184595D01*
X149622Y184609D01*
X149500Y184731D01*
Y194500D01*
X174500D01*
G37*
G36*
G01X194500Y44500D02*
Y19500D01*
X184500D01*
Y44500D01*
X194500D01*
G37*
G36*
G01Y109500D02*
Y84500D01*
X184500D01*
Y109500D01*
X194500D01*
G37*
G36*
G01Y174500D02*
Y149500D01*
X184500D01*
Y174500D01*
X194500D01*
G37*
G54D10*
X14121Y9879D03*
X9879Y14121D03*
X13525Y18475D03*
X14121Y74879D03*
X9879Y79121D03*
X13525Y83475D03*
X18475Y13525D03*
Y78525D03*
X49879Y54121D03*
X54121Y49879D03*
X50675Y45525D03*
X45725Y50475D03*
X54121Y114879D03*
X50475Y110525D03*
X45525Y115475D03*
X49879Y119121D03*
X74879Y14121D03*
Y79121D03*
X79121Y9879D03*
X83475Y13525D03*
X78525Y18475D03*
X79121Y74879D03*
X78525Y83475D03*
X83475Y78525D03*
X114879Y54121D03*
X115475Y45525D03*
X110525Y50475D03*
X115475Y110525D03*
X110525Y115475D03*
X114879Y119121D03*
X119121Y49879D03*
Y114879D03*
X144121Y9879D03*
X139879Y14121D03*
X148475Y13525D03*
X143525Y18475D03*
X144121Y74879D03*
X139879Y79121D03*
X143525Y83475D03*
X148475Y78525D03*
X144121Y139879D03*
X139879Y144121D03*
X143525Y148475D03*
X148475Y143525D03*
X175525Y50475D03*
Y115475D03*
Y180475D03*
X179879Y54121D03*
X184121Y49879D03*
X180475Y45525D03*
X184121Y114879D03*
X180475Y110525D03*
X179879Y119121D03*
X180475Y175525D03*
X179879Y184121D03*
X184121Y179879D03*
G54D20*
G01X29000Y45000D02*
Y50000D01*
G01Y45000D02*
Y42000D01*
X26700Y39700D01*
X20700D01*
G01X29000Y50000D02*
Y57000D01*
G01D02*
X26000Y60000D01*
G01X29000Y110000D02*
Y107000D01*
X26700Y104700D01*
X20700D01*
G01X29000Y110000D02*
Y115000D01*
G01D02*
Y122000D01*
G01D02*
X26000Y125000D01*
G01X35000Y50000D02*
Y45000D01*
G01X39000Y52000D02*
X37000D01*
X35000Y50000D01*
G01Y45000D02*
X39450D01*
X43300Y41150D01*
Y39700D01*
G01X35000Y110000D02*
X39450D01*
X43300Y106150D01*
Y104700D01*
G01X35000Y115000D02*
Y110000D01*
G01Y115000D02*
X37000Y117000D01*
X39000D01*
G01X94000Y45000D02*
Y42000D01*
X91700Y39700D01*
X85700D01*
G01X94000Y45000D02*
Y50000D01*
G01D02*
Y57000D01*
G01D02*
X91000Y60000D01*
G01X94000Y110000D02*
Y107000D01*
X91700Y104700D01*
X85700D01*
G01X94000Y110000D02*
Y115000D01*
G01D02*
Y122000D01*
G01D02*
X91000Y125000D01*
G01X100000Y45000D02*
X104450D01*
X108300Y41150D01*
Y39700D01*
G01X100000Y50000D02*
Y45000D01*
G01Y50000D02*
X102000Y52000D01*
X104000D01*
G01X100000Y110000D02*
X104450D01*
X108300Y106150D01*
Y104700D01*
G01X100000Y115000D02*
Y110000D01*
G01Y115000D02*
X102000Y117000D01*
X104000D01*
G01X159000Y45000D02*
Y42000D01*
X156700Y39700D01*
X150700D01*
G01X159000Y110000D02*
Y107000D01*
X156700Y104700D01*
X150700D01*
G01X159000Y175000D02*
Y172000D01*
X156700Y169700D01*
X150700D01*
G01X165000Y45000D02*
X169450D01*
X173300Y41150D01*
Y39700D01*
G01X165000Y50000D02*
Y45000D01*
G01Y50000D02*
X167000Y52000D01*
X169000D01*
G01X159000Y45000D02*
Y50000D01*
G01D02*
Y57000D01*
G01D02*
X156000Y60000D01*
G01X165000Y110000D02*
X169450D01*
X173300Y106150D01*
Y104700D01*
G01X165000Y115000D02*
Y110000D01*
G01X159000D02*
Y115000D01*
G01X165000D02*
X167000Y117000D01*
X169000D01*
G01X156000Y125000D02*
X159000Y122000D01*
G01D02*
Y115000D01*
G01X165000Y175000D02*
X169450D01*
X173300Y171150D01*
Y169700D01*
G01X165000Y180000D02*
Y175000D01*
G01Y180000D02*
X167000Y182000D01*
X169000D01*
G01X159000Y175000D02*
Y180000D01*
G01X156000Y190000D02*
X159000Y187000D01*
G01D02*
Y180000D01*
G54D11*
X14000Y27000D03*
Y37000D03*
Y92000D03*
Y102000D03*
X9400Y134400D03*
X7900Y158400D03*
X12900D03*
X9500Y167200D03*
X8000Y191200D03*
X13000D03*
X19400Y134400D03*
X17900Y158400D03*
X22900D03*
X19500Y167200D03*
X18000Y191200D03*
X23000D03*
X50000Y34500D03*
Y29500D03*
Y24500D03*
Y39500D03*
Y94500D03*
Y89500D03*
Y104500D03*
Y99500D03*
X41300Y134400D03*
X51300D03*
X39800Y158400D03*
X44800D03*
X49800D03*
X54800D03*
X41400Y167200D03*
X51400D03*
X39900Y191200D03*
X44900D03*
X49900D03*
X54900D03*
X72900Y134100D03*
X71400Y158100D03*
X76400D03*
X79000Y27000D03*
Y37000D03*
Y92000D03*
Y102000D03*
X82900Y134100D03*
X81400Y158100D03*
X86400D03*
X115000Y34500D03*
Y29500D03*
Y24500D03*
Y39500D03*
Y94500D03*
Y89500D03*
Y104500D03*
Y99500D03*
X104100Y134300D03*
X114100D03*
X102600Y158300D03*
X107600D03*
X112600D03*
X117600D03*
X144000Y27000D03*
Y37000D03*
Y92000D03*
Y102000D03*
Y167000D03*
Y157000D03*
X180000Y34500D03*
Y29500D03*
Y24500D03*
Y39500D03*
Y94500D03*
Y89500D03*
Y104500D03*
Y99500D03*
Y154500D03*
Y169500D03*
Y164500D03*
Y159500D03*
G54D21*
G01X21300Y18000D02*
X17104D01*
X13084Y13980D01*
X10020D01*
X9879Y14121D01*
G01X14121Y9879D02*
X14829D01*
X18475Y13525D01*
G01X14000Y37000D02*
X11900Y34900D01*
Y31207D01*
X12507Y30600D01*
X15570D01*
X16990Y32020D01*
X20700D01*
G01X14000Y27000D02*
X16550D01*
X16650Y26900D01*
X20700D01*
G01Y29460D02*
X16128D01*
X16068Y29400D01*
X13005D01*
X10460Y26855D01*
Y21540D01*
X13525Y18475D01*
G01X25000Y50000D02*
X21400Y53600D01*
X19591D01*
X19379Y53642D01*
X19179Y53725D01*
X18998Y53845D01*
X18581Y54262D01*
X14262D01*
X14121Y54121D01*
G01X9879Y49879D02*
Y49171D01*
X13525Y45525D01*
G01X21300Y83000D02*
X17104D01*
X13084Y78980D01*
X10020D01*
X9879Y79121D01*
G01X14121Y74879D02*
X14829D01*
X18475Y78525D01*
G01X20700Y94460D02*
X16128D01*
X16068Y94400D01*
X13005D01*
X10460Y91855D01*
Y86540D01*
X13525Y83475D01*
G01X14000Y92000D02*
X16550D01*
X16650Y91900D01*
X20700D01*
G01X14000Y102000D02*
X11900Y99900D01*
Y96207D01*
X12507Y95600D01*
X15570D01*
X16990Y97020D01*
X20700D01*
G01X9879Y114879D02*
Y114171D01*
X13525Y110525D01*
G01X25000Y115000D02*
X21400Y118600D01*
X19591D01*
X19379Y118642D01*
X19179Y118725D01*
X18998Y118845D01*
X18581Y119262D01*
X14262D01*
X14121Y119121D01*
G01X8300Y150200D02*
X12600D01*
X15200Y147600D01*
G01D02*
X8300D01*
G01X3400Y137400D02*
X6400D01*
X8400Y139400D01*
G01X8300Y145000D02*
X5000D01*
X3400Y143400D01*
G01X8300Y142400D02*
X4400D01*
X3400Y143400D01*
G01D02*
Y149400D01*
G01D02*
Y149600D01*
X7200Y153400D01*
G01X7900Y158400D02*
X7200Y157700D01*
Y153400D01*
G01X9400Y134400D02*
X14500D01*
X16800Y136700D01*
Y139300D01*
G01X3400Y155400D02*
Y158400D01*
G01D02*
Y160400D01*
X3000Y160800D01*
Y161900D01*
X3600Y162500D01*
X35000D01*
G01X3500Y170200D02*
X6500D01*
X8500Y172200D01*
G01X7900Y158400D02*
X10300Y160800D01*
X25000D01*
X27400Y158400D01*
G01X16600Y153500D02*
Y154700D01*
X12900Y158400D01*
G01X9500Y167200D02*
X14600D01*
X16900Y169500D01*
Y172100D01*
G01X8400Y183000D02*
X12700D01*
X15300Y180400D01*
G01D02*
X8400D01*
G01X3500Y188200D02*
Y191500D01*
G01X35400Y194900D02*
Y195084D01*
X34800Y195684D01*
X7684D01*
X3500Y191500D01*
G01X8400Y177800D02*
X5100D01*
X3500Y176200D01*
G01X8400Y175200D02*
X4500D01*
X3500Y176200D01*
G01D02*
Y182200D01*
G01D02*
Y182400D01*
X7300Y186200D01*
G01X8000Y191200D02*
X7300Y190500D01*
Y186200D01*
G01X8000Y191200D02*
X10400Y193600D01*
X25100D01*
X27500Y191200D01*
G01X16700Y186300D02*
Y187500D01*
X13000Y191200D01*
G01X31000Y23000D02*
X30200Y22200D01*
Y16000D01*
X28200Y14000D01*
X28000D01*
G01X20900Y9130D02*
X22130Y7900D01*
X23870D01*
G01X20900Y10870D02*
Y9130D01*
G01Y10870D02*
X21799Y11769D01*
Y13499D01*
X27300Y19000D01*
X27500D01*
G01X34500D02*
Y14500D01*
X34000Y14000D01*
G01X14700Y32700D02*
X16580Y34580D01*
X20700D01*
G01X24122Y29460D02*
X20700D01*
G01X24850Y27923D02*
X24323Y28450D01*
X21710D01*
X20700Y29460D01*
G01Y24340D02*
Y22700D01*
X20000Y22000D01*
G01X20700Y37140D02*
X17255D01*
X16550Y37845D01*
Y42550D01*
X18334Y44334D01*
Y50334D01*
X18475Y50475D01*
G01X20900Y74130D02*
X22130Y72900D01*
X23870D01*
G01X27500Y84000D02*
X27300D01*
X21799Y78499D01*
Y76769D01*
X20900Y75870D01*
Y74130D01*
G01X31000Y88000D02*
X30200Y87200D01*
Y81000D01*
X28200Y79000D01*
X28000D01*
G01X34500Y84000D02*
Y79500D01*
X34000Y79000D01*
G01X24850Y92923D02*
X24323Y93450D01*
X21710D01*
X20700Y94460D01*
G01Y89340D02*
Y87700D01*
X20000Y87000D01*
G01X20700Y102140D02*
X17255D01*
X16550Y102845D01*
Y107550D01*
X18334Y109334D01*
Y115334D01*
X18475Y115475D01*
G01X24122Y94460D02*
X20700D01*
G01X14700Y97700D02*
X16580Y99580D01*
X20700D01*
G01X19400Y134400D02*
X21027Y136027D01*
Y137000D01*
X20900Y137127D01*
Y139600D01*
X22500Y141200D01*
Y142600D01*
G01X27400Y135400D02*
Y135600D01*
X24600Y138400D01*
X23400D01*
G01X15400Y146400D02*
Y147400D01*
X15200Y147600D01*
G01X27400Y158400D02*
Y153900D01*
G01X19200Y153500D02*
Y156100D01*
X19400Y156300D01*
Y157400D01*
X18400Y158400D01*
X17900D01*
G01X27400Y146900D02*
Y147100D01*
X25234Y149266D01*
Y151339D01*
X23073Y153500D01*
X19200D01*
G01X27400Y141400D02*
Y146900D01*
G01X27500Y168200D02*
Y168400D01*
X24700Y171200D01*
X23500D01*
G01X27500Y174200D02*
Y179700D01*
G01X19500Y167200D02*
X21127Y168827D01*
Y169800D01*
X21000Y169927D01*
Y172400D01*
X22600Y174000D01*
Y175400D01*
G01X15500Y179200D02*
Y180200D01*
X15300Y180400D01*
G01X27500Y191200D02*
Y186700D01*
G01X19300Y186300D02*
Y188900D01*
X19500Y189100D01*
Y190200D01*
X18500Y191200D01*
X18000D01*
G01X27500Y179700D02*
Y179900D01*
X25334Y182066D01*
Y184139D01*
X23173Y186300D01*
X19300D01*
G01X40000Y13000D02*
X42600Y10400D01*
X44409D01*
X44621Y10358D01*
X44821Y10275D01*
X45002Y10155D01*
X45419Y9738D01*
X49738D01*
X49879Y9879D01*
G01X50475Y18475D02*
X54121Y14829D01*
Y14121D01*
G01X45525Y13525D02*
X45666Y13666D01*
Y16730D01*
X44396Y18000D01*
G01X50000Y24500D02*
X48290Y22790D01*
X41790D01*
X40000Y21000D01*
G01X43300Y29460D02*
X39250D01*
X34500Y24710D01*
Y19000D01*
G01X50000Y29500D02*
X47390D01*
X47350Y29460D01*
X43300D01*
G01X50000Y34500D02*
X47520Y32020D01*
X43300D01*
G01X39000Y52000D02*
X43830Y47170D01*
X48066D01*
X50916Y50020D01*
X53980D01*
X54121Y49879D01*
G01X45725Y50475D02*
X46233D01*
X49879Y54121D01*
G01X45525Y50475D02*
X45725D01*
G01X50475Y45525D02*
X50334Y45666D01*
X49668Y45000D01*
X44000D01*
G01X40000Y78000D02*
X42600Y75400D01*
X44409D01*
X44621Y75358D01*
X44821Y75275D01*
X45002Y75155D01*
X45419Y74738D01*
X49738D01*
X49879Y74879D01*
G01X50000Y89500D02*
X48290Y87790D01*
X41790D01*
X40000Y86000D01*
G01X43300Y94460D02*
X39250D01*
X34500Y89710D01*
Y84000D01*
G01X50475Y83475D02*
X54121Y79829D01*
Y79121D01*
G01X45525Y78525D02*
X45666Y78666D01*
Y81730D01*
X44396Y83000D01*
G01X39000Y117000D02*
X43830Y112170D01*
X48066D01*
X50916Y115020D01*
X53980D01*
X54121Y114879D01*
G01X50000Y94500D02*
X47390D01*
X47350Y94460D01*
X43300D01*
G01X50000Y99500D02*
X47520Y97020D01*
X43300D01*
G01X44000Y110000D02*
X49668D01*
X50334Y110666D01*
X50475Y110525D01*
G01X45525Y115475D02*
X46233D01*
X49879Y119121D01*
G01X41300Y134400D02*
X46400D01*
X48700Y136700D01*
Y139300D01*
G01X51300Y134400D02*
X52927Y136027D01*
Y137000D01*
X52800Y137127D01*
Y139600D01*
X54400Y141200D01*
Y142600D01*
G01X40200Y150200D02*
X44500D01*
X47100Y147600D01*
G01D02*
X40200D01*
G01X47300Y146400D02*
Y147400D01*
X47100Y147600D01*
G01X35300Y137400D02*
X38300D01*
X40300Y139400D01*
G01X40200Y145000D02*
X36900D01*
X35300Y143400D01*
G01X40200Y142400D02*
X36300D01*
X35300Y143400D01*
G01D02*
Y149400D01*
G01D02*
Y149600D01*
X39100Y153400D01*
G01X39800Y158400D02*
X39100Y157700D01*
Y153400D01*
G01X51100Y153500D02*
Y156100D01*
X51300Y156300D01*
Y157400D01*
X50300Y158400D01*
X49800D01*
G01X59300Y146900D02*
Y147100D01*
X57134Y149266D01*
Y151339D01*
X54973Y153500D01*
X51100D01*
G01X48500D02*
Y154700D01*
X44800Y158400D01*
G01X35000Y162500D02*
X63500D01*
G01X35300Y158200D02*
Y162200D01*
X35000Y162500D01*
G01X35300Y155400D02*
Y158200D01*
G01X35400Y170200D02*
X38400D01*
X40400Y172200D01*
G01X39800Y158400D02*
X42200Y160800D01*
X56900D01*
X59300Y158400D01*
G01X41400Y167200D02*
X46500D01*
X48800Y169500D01*
Y172100D01*
G01X51400Y167200D02*
X53027Y168827D01*
Y169800D01*
X52900Y169927D01*
Y172400D01*
X54500Y174000D01*
Y175400D01*
G01X35400Y188200D02*
Y191400D01*
G01X46200Y180400D02*
X47400Y179200D01*
G01X40300Y183000D02*
X44600D01*
X47200Y180400D01*
X46200D01*
G01D02*
X40300D01*
G01X35400Y191400D02*
Y194900D01*
G01X40300Y177800D02*
X37000D01*
X35400Y176200D01*
G01X40300Y175200D02*
X36400D01*
X35400Y176200D01*
G01D02*
Y182200D01*
G01D02*
Y182400D01*
X39200Y186200D01*
G01X39900Y191200D02*
X39200Y190500D01*
Y186200D01*
G01X39900Y191200D02*
X42300Y193600D01*
X57000D01*
X59400Y191200D01*
G01X48600Y186300D02*
Y187500D01*
X44900Y191200D01*
G01X51200Y186300D02*
Y188900D01*
X51400Y189100D01*
Y190200D01*
X50400Y191200D01*
X49900D01*
G01X59400Y179700D02*
Y179900D01*
X57234Y182066D01*
Y184139D01*
X55073Y186300D01*
X51200D01*
G01X63500Y162500D02*
Y192500D01*
X60000Y196000D01*
X36500D01*
X35400Y194900D01*
G01X72900Y134100D02*
X78000D01*
X80300Y136400D01*
Y139000D01*
G01X59300Y135400D02*
Y135600D01*
X56500Y138400D01*
X55300D01*
G01X71800Y149900D02*
X76100D01*
X78700Y147300D01*
G01D02*
X71800D01*
G01X66900Y137100D02*
X69900D01*
X71900Y139100D01*
G01X59300Y158400D02*
Y153900D01*
G01X71800Y144700D02*
X68500D01*
X66900Y143100D01*
G01X71800Y142100D02*
X67900D01*
X66900Y143100D01*
G01D02*
Y149100D01*
G01D02*
Y149300D01*
X70700Y153100D01*
G01X71400Y158100D02*
X70700Y157400D01*
Y153100D01*
G01X59300Y141400D02*
Y146900D01*
G01X67000Y162500D02*
X97500D01*
X98100Y161900D01*
Y158100D01*
G01X66900Y158400D02*
Y162400D01*
X67000Y162500D01*
G01X66900Y155100D02*
Y158400D01*
G01X63500Y162500D02*
X67000D01*
G01X59400Y168200D02*
Y168400D01*
X56600Y171200D01*
X55400D01*
G01X71400Y158100D02*
X73800Y160500D01*
X88500D01*
X90900Y158100D01*
G01X59400Y174200D02*
Y179700D01*
G01Y191200D02*
Y186700D01*
G01X86300Y18000D02*
X82104D01*
X78084Y13980D01*
X75020D01*
X74879Y14121D01*
G01X96000Y23000D02*
X95200Y22200D01*
Y16000D01*
X93200Y14000D01*
X93000D01*
G01X85900Y9130D02*
X87130Y7900D01*
X88870D01*
G01X85900Y10870D02*
Y9130D01*
G01Y10870D02*
X86799Y11769D01*
Y13499D01*
X92300Y19000D01*
X92500D01*
G01X79121Y9879D02*
X79829D01*
X83475Y13525D01*
G01X79700Y32700D02*
X81580Y34580D01*
X85700D01*
G01Y29460D02*
X81128D01*
X81068Y29400D01*
X78005D01*
X75460Y26855D01*
Y21540D01*
X78525Y18475D01*
G01X89122Y29460D02*
X85700D01*
G01X89850Y27923D02*
X89323Y28450D01*
X86710D01*
X85700Y29460D01*
G01Y24340D02*
Y22700D01*
X85000Y22000D01*
G01X79000Y27000D02*
X81550D01*
X81650Y26900D01*
X85700D01*
G01X79000Y37000D02*
X76900Y34900D01*
Y31207D01*
X77507Y30600D01*
X80570D01*
X81990Y32020D01*
X85700D01*
G01X90000Y50000D02*
X86400Y53600D01*
X84591D01*
X84379Y53642D01*
X84179Y53725D01*
X83998Y53845D01*
X83581Y54262D01*
X79262D01*
X79121Y54121D01*
G01X85700Y37140D02*
X82255D01*
X81550Y37845D01*
Y42550D01*
X83334Y44334D01*
Y50334D01*
X83475Y50475D01*
G01X74879Y49879D02*
Y49171D01*
X78525Y45525D01*
G01X85900Y74130D02*
X87130Y72900D01*
X88870D01*
G01X92500Y84000D02*
X92300D01*
X86799Y78499D01*
Y76769D01*
X85900Y75870D01*
Y74130D01*
G01X86300Y83000D02*
X82104D01*
X78084Y78980D01*
X75020D01*
X74879Y79121D01*
G01X96000Y88000D02*
X95200Y87200D01*
Y81000D01*
X93200Y79000D01*
X93000D01*
G01X79121Y74879D02*
X79829D01*
X83475Y78525D01*
G01X79000Y92000D02*
X81550D01*
X81650Y91900D01*
X85700D01*
G01Y89340D02*
Y87700D01*
X85000Y87000D01*
G01X85700Y94460D02*
X81128D01*
X81068Y94400D01*
X78005D01*
X75460Y91855D01*
Y86540D01*
X78525Y83475D01*
G01X89850Y92923D02*
X89323Y93450D01*
X86710D01*
X85700Y94460D01*
G01X79000Y102000D02*
X76900Y99900D01*
Y96207D01*
X77507Y95600D01*
X80570D01*
X81990Y97020D01*
X85700D01*
G01X74879Y114879D02*
Y114171D01*
X78525Y110525D01*
G01X85700Y102140D02*
X82255D01*
X81550Y102845D01*
Y107550D01*
X83334Y109334D01*
Y115334D01*
X83475Y115475D01*
G01X79700Y97700D02*
X81580Y99580D01*
X85700D01*
G01X89122Y94460D02*
X85700D01*
G01X90000Y115000D02*
X86400Y118600D01*
X84591D01*
X84379Y118642D01*
X84179Y118725D01*
X83998Y118845D01*
X83581Y119262D01*
X79262D01*
X79121Y119121D01*
G01X82900Y134100D02*
X84527Y135727D01*
Y136700D01*
X84400Y136827D01*
Y139300D01*
X86000Y140900D01*
Y142300D01*
G01X90900Y135100D02*
Y135300D01*
X88100Y138100D01*
X86900D01*
G01X78900Y146100D02*
Y147100D01*
X78700Y147300D01*
G01X90900Y158100D02*
Y153600D01*
G01X82700Y153200D02*
Y155800D01*
X82900Y156000D01*
Y157100D01*
X81900Y158100D01*
X81400D01*
G01X90900Y146600D02*
Y146800D01*
X88734Y148966D01*
Y151039D01*
X86573Y153200D01*
X82700D01*
G01X90900Y141100D02*
Y146600D01*
G01X80100Y153200D02*
Y154400D01*
X76400Y158100D01*
G01X105000Y13000D02*
X107600Y10400D01*
X109409D01*
X109621Y10358D01*
X109821Y10275D01*
X110002Y10155D01*
X110419Y9738D01*
X114738D01*
X114879Y9879D01*
G01X99500Y19000D02*
Y14500D01*
X99000Y14000D01*
G01X110525Y13525D02*
X110666Y13666D01*
Y16730D01*
X109396Y18000D01*
G01X115000Y24500D02*
X113290Y22790D01*
X106790D01*
X105000Y21000D01*
G01X108300Y29460D02*
X104250D01*
X99500Y24710D01*
Y19000D01*
G01X115000Y29500D02*
X112390D01*
X112350Y29460D01*
X108300D01*
G01X115000Y34500D02*
X112520Y32020D01*
X108300D01*
G01X104000Y52000D02*
X108830Y47170D01*
X113066D01*
X115916Y50020D01*
X118980D01*
X119121Y49879D01*
G01X110525Y50475D02*
X111233D01*
X114879Y54121D01*
G01X109000Y45000D02*
X114668D01*
X115334Y45666D01*
X115475Y45525D01*
G01X105000Y78000D02*
X107600Y75400D01*
X109409D01*
X109621Y75358D01*
X109821Y75275D01*
X110002Y75155D01*
X110419Y74738D01*
X114738D01*
X114879Y74879D01*
G01X115000Y89500D02*
X113290Y87790D01*
X106790D01*
X105000Y86000D01*
G01X99500Y84000D02*
Y79500D01*
X99000Y79000D01*
G01X108300Y94460D02*
X104250D01*
X99500Y89710D01*
Y84000D01*
G01X110525Y78525D02*
X110666Y78666D01*
Y81730D01*
X109396Y83000D01*
G01X104000Y117000D02*
X108830Y112170D01*
X113066D01*
X115916Y115020D01*
X118980D01*
X119121Y114879D01*
G01X115000Y94500D02*
X112390D01*
X112350Y94460D01*
X108300D01*
G01X115000Y99500D02*
X112520Y97020D01*
X108300D01*
G01X109000Y110000D02*
X114668D01*
X115334Y110666D01*
X115475Y110525D01*
G01X110525Y115475D02*
X111233D01*
X114879Y119121D01*
G01X104100Y134300D02*
X109200D01*
X111500Y136600D01*
Y139200D01*
G01X114100Y134300D02*
X115727Y135927D01*
Y136900D01*
X115600Y137027D01*
Y139500D01*
X117200Y141100D01*
Y142500D01*
G01X103000Y150100D02*
X107300D01*
X109900Y147500D01*
X103000D01*
G01X98100Y137300D02*
X101100D01*
X103100Y139300D01*
G01X103000Y144900D02*
X99700D01*
X98100Y143300D01*
G01X103000Y142300D02*
X99100D01*
X98100Y143300D01*
G01D02*
Y149300D01*
G01D02*
Y149500D01*
X101900Y153300D01*
G01X102600Y158300D02*
X101900Y157600D01*
Y153300D01*
G01X113900Y153400D02*
Y156000D01*
X114100Y156200D01*
Y157300D01*
X113100Y158300D01*
X112600D01*
G01X122100Y146800D02*
Y147000D01*
X119934Y149166D01*
Y151239D01*
X117773Y153400D01*
X113900D01*
G01X111300D02*
Y154600D01*
X107600Y158300D01*
G01X98100Y155300D02*
Y158100D01*
G01X102600Y158300D02*
X105000Y160700D01*
X119700D01*
X122100Y158300D01*
G01X115475Y18475D02*
X119121Y14829D01*
Y14121D01*
G01X115475Y83475D02*
X119121Y79829D01*
Y79121D01*
G01X122100Y135300D02*
Y135500D01*
X119300Y138300D01*
X118100D01*
G01X122100Y158300D02*
Y153800D01*
G01Y141300D02*
Y146800D01*
G01X151300Y18000D02*
X147104D01*
X143084Y13980D01*
X140020D01*
X139879Y14121D01*
G01X153870Y7900D02*
X152130D01*
X150900Y9130D01*
G01D02*
Y10870D01*
X151799Y11769D01*
Y13499D01*
X157300Y19000D01*
X157500D01*
G01X144121Y9879D02*
X144829D01*
X148475Y13525D01*
G01X144000Y27000D02*
X146550D01*
X146650Y26900D01*
X150700D01*
G01Y24340D02*
Y22700D01*
X150000Y22000D01*
G01X144700Y32700D02*
X146580Y34580D01*
X150700D01*
G01X144000Y37000D02*
X141900Y34900D01*
Y31207D01*
X142507Y30600D01*
X145570D01*
X146990Y32020D01*
X150700D01*
G01Y29460D02*
X146128D01*
X146068Y29400D01*
X143005D01*
X140460Y26855D01*
Y21540D01*
X143525Y18475D01*
G01X154122Y29460D02*
X150700D01*
G01X154850Y27923D02*
X154323Y28450D01*
X151710D01*
X150700Y29460D01*
G01X155000Y50000D02*
X151400Y53600D01*
X149591D01*
X149379Y53642D01*
X149179Y53725D01*
X148998Y53845D01*
X148581Y54262D01*
X144262D01*
X144121Y54121D01*
G01X150700Y37140D02*
X147255D01*
X146550Y37845D01*
Y42550D01*
X148334Y44334D01*
Y50334D01*
X148475Y50475D01*
G01X139879Y49879D02*
Y49171D01*
X143525Y45525D01*
G01X150900Y74130D02*
X152130Y72900D01*
X153870D01*
G01X157500Y84000D02*
X157300D01*
X151799Y78499D01*
Y76769D01*
X150900Y75870D01*
Y74130D01*
G01X151300Y83000D02*
X147104D01*
X143084Y78980D01*
X140020D01*
X139879Y79121D01*
G01X150700Y89340D02*
Y87700D01*
X150000Y87000D01*
G01X144000Y92000D02*
X146550D01*
X146650Y91900D01*
X150700D01*
G01X144121Y74879D02*
X144829D01*
X148475Y78525D01*
G01X150700Y94460D02*
X146128D01*
X146068Y94400D01*
X143005D01*
X140460Y91855D01*
Y86540D01*
X143525Y83475D01*
G01X154850Y92923D02*
X154323Y93450D01*
X151710D01*
X150700Y94460D01*
G01X144700Y97700D02*
X146580Y99580D01*
X150700D01*
G01Y102140D02*
X147255D01*
X146550Y102845D01*
Y107550D01*
X148334Y109334D01*
Y115334D01*
X148475Y115475D01*
G01X144000Y102000D02*
X141900Y99900D01*
Y96207D01*
X142507Y95600D01*
X145570D01*
X146990Y97020D01*
X150700D01*
G01X139879Y114879D02*
Y114171D01*
X143525Y110525D01*
G01X154122Y94460D02*
X150700D01*
G01X155000Y115000D02*
X151400Y118600D01*
X149591D01*
X149379Y118642D01*
X149179Y118725D01*
X148998Y118845D01*
X148581Y119262D01*
X144262D01*
X144121Y119121D01*
G01X151300Y148000D02*
X147104D01*
X143084Y143980D01*
X140020D01*
X139879Y144121D01*
G01X150900Y139130D02*
Y140870D01*
G01X152130Y137900D02*
X150900Y139130D01*
G01X153870Y137900D02*
X152130D01*
G01X150900Y140870D02*
X151799Y141769D01*
Y143499D01*
X157300Y149000D01*
X157500D01*
G01X150700Y154340D02*
Y152700D01*
X150000Y152000D01*
G01X144121Y139879D02*
X144829D01*
X148475Y143525D01*
G01X150700Y159460D02*
X146128D01*
X146068Y159400D01*
X143005D01*
X140460Y156855D01*
Y151540D01*
X143525Y148475D01*
G01X144000Y157000D02*
X146550D01*
X146650Y156900D01*
X150700D01*
G01Y167140D02*
X147255D01*
X146550Y167845D01*
Y172550D01*
X148334Y174334D01*
Y180334D01*
X148475Y180475D01*
G01X144700Y162700D02*
X146580Y164580D01*
X150700D01*
G01X144000Y167000D02*
X141900Y164900D01*
Y161207D01*
X142507Y160600D01*
X145570D01*
X146990Y162020D01*
X150700D01*
G01X154122Y159460D02*
X150700D01*
G01X154850Y157923D02*
X154323Y158450D01*
X151710D01*
X150700Y159460D01*
G01X155000Y180000D02*
X151400Y183600D01*
X149591D01*
X149379Y183642D01*
X149179Y183725D01*
X148998Y183845D01*
X148581Y184262D01*
X144262D01*
X144121Y184121D01*
G01X139879Y179879D02*
Y179171D01*
X143525Y175525D01*
G01X161000Y23000D02*
X160200Y22200D01*
Y16000D01*
X158200Y14000D01*
X158000D01*
G01X170000Y13000D02*
X172600Y10400D01*
X174409D01*
X174621Y10358D01*
X174821Y10275D01*
X175002Y10155D01*
X175419Y9738D01*
X179738D01*
X179879Y9879D01*
G01X164500Y19000D02*
Y14500D01*
X164000Y14000D01*
G01X180000Y24500D02*
X178290Y22790D01*
X171790D01*
X170000Y21000D01*
G01X173300Y29460D02*
X169250D01*
X164500Y24710D01*
Y19000D01*
G01X180000Y29500D02*
X177390D01*
X177350Y29460D01*
X173300D01*
G01X180000Y34500D02*
X177520Y32020D01*
X173300D01*
G01X175525Y13525D02*
X175666Y13666D01*
Y16730D01*
X174396Y18000D01*
G01X169000Y52000D02*
X173830Y47170D01*
X178066D01*
X180916Y50020D01*
X183980D01*
X184121Y49879D01*
G01X174000Y45000D02*
X179668D01*
X180334Y45666D01*
X180475Y45525D01*
G01X161000Y88000D02*
X160200Y87200D01*
Y81000D01*
X158200Y79000D01*
X158000D01*
G01X170000Y78000D02*
X172600Y75400D01*
X174409D01*
X174621Y75358D01*
X174821Y75275D01*
X175002Y75155D01*
X175419Y74738D01*
X179738D01*
X179879Y74879D01*
G01X180000Y89500D02*
X178290Y87790D01*
X171790D01*
X170000Y86000D01*
G01X164500Y84000D02*
Y79500D01*
X164000Y79000D01*
G01X173300Y94460D02*
X169250D01*
X164500Y89710D01*
Y84000D01*
G01X175525Y78525D02*
X175666Y78666D01*
Y81730D01*
X174396Y83000D01*
G01X169000Y117000D02*
X173830Y112170D01*
X178066D01*
X180916Y115020D01*
X183980D01*
X184121Y114879D01*
G01X180000Y94500D02*
X177390D01*
X177350Y94460D01*
X173300D01*
G01X180000Y99500D02*
X177520Y97020D01*
X173300D01*
G01X174000Y110000D02*
X179668D01*
X180334Y110666D01*
X180475Y110525D01*
G01X161000Y153000D02*
X160200Y152200D01*
Y146000D01*
X158200Y144000D01*
X158000D01*
G01X170000Y143000D02*
X172600Y140400D01*
X174409D01*
X174621Y140358D01*
X174821Y140275D01*
X175002Y140155D01*
X175419Y139738D01*
X179738D01*
X179879Y139879D01*
G01X180000Y154500D02*
X178290Y152790D01*
X171790D01*
X170000Y151000D01*
G01X164500Y149000D02*
Y144500D01*
X164000Y144000D01*
G01X173300Y159460D02*
X169250D01*
X164500Y154710D01*
Y149000D01*
G01X175525Y143525D02*
X175666Y143666D01*
Y146730D01*
X174396Y148000D01*
G01X180000Y159500D02*
X177390D01*
X177350Y159460D01*
X173300D01*
G01X180000Y164500D02*
X177520Y162020D01*
X173300D01*
G01X169000Y182000D02*
X173830Y177170D01*
X178066D01*
X180916Y180020D01*
X183980D01*
X184121Y179879D01*
G01X174000Y175000D02*
X179668D01*
X180334Y175666D01*
X180475Y175525D01*
G01Y18475D02*
X184121Y14829D01*
Y14121D01*
G01X175525Y50475D02*
X176233D01*
X179879Y54121D01*
G01X180475Y83475D02*
X184121Y79829D01*
Y79121D01*
G01X175525Y115475D02*
X176233D01*
X179879Y119121D01*
G01X180475Y148475D02*
X184121Y144829D01*
Y144121D01*
G01X175525Y180475D02*
X176233D01*
X179879Y184121D01*
G54D12*
X6000Y22000D03*
X4000Y27000D03*
X3000Y32000D03*
X14700Y32700D03*
X6000Y42000D03*
X4000Y37000D03*
X6000Y87000D03*
X4000Y92000D03*
X3000Y97000D03*
X6000Y107000D03*
X4000Y102000D03*
X14700Y97700D03*
X15400Y146400D03*
X8400Y139400D03*
X7200Y153400D03*
X3400Y158400D03*
X8500Y172200D03*
X15500Y179200D03*
X3500Y191500D03*
X7300Y186200D03*
X22000Y6000D03*
X27000Y4000D03*
X32000Y3000D03*
X31000Y23000D03*
X21300Y18000D03*
X20000Y22000D03*
X25000Y50000D03*
X32000Y68000D03*
X27000Y69000D03*
X22000Y71000D03*
X21000Y58000D03*
X26000Y60000D03*
X32000Y61000D03*
X21300Y83000D03*
X31000Y88000D03*
X20000Y87000D03*
X25000Y115000D03*
X32000Y126000D03*
X21000Y123000D03*
X26000Y125000D03*
X23400Y138400D03*
X35300Y158200D03*
X23500Y171200D03*
X27400Y158400D03*
X35400Y191400D03*
X27500Y191200D03*
X40000Y13000D03*
X42000Y6000D03*
X37000Y4000D03*
X40000Y21000D03*
X44396Y18000D03*
X39000Y52000D03*
X44000Y45000D03*
X37000Y69000D03*
X42000Y71000D03*
X43000Y58000D03*
X38000Y60000D03*
X40000Y78000D03*
Y86000D03*
X44396Y83000D03*
X44000Y110000D03*
X39000Y117000D03*
X38000Y125000D03*
X43000Y123000D03*
X47300Y146400D03*
X55300Y138400D03*
X40300Y139400D03*
X39100Y153400D03*
X55400Y171200D03*
X40400Y172200D03*
X47400Y179200D03*
X39200Y186200D03*
X58000Y22000D03*
X60000Y27000D03*
X61000Y32000D03*
X68000D03*
X71000Y22000D03*
X69000Y27000D03*
X59000Y42000D03*
X60000Y37000D03*
X71000Y42000D03*
X69000Y37000D03*
X71000Y87000D03*
X69000Y92000D03*
X60000D03*
X58000Y87000D03*
X68000Y97000D03*
X71000Y107000D03*
X69000Y102000D03*
X61000Y97000D03*
X60000Y102000D03*
X59000Y107000D03*
X71900Y139100D03*
X70700Y153100D03*
X66900Y158400D03*
X59300D03*
X59400Y191200D03*
X92000Y4000D03*
X87000Y6000D03*
X86300Y18000D03*
X96000Y23000D03*
X79700Y32700D03*
X85000Y22000D03*
X90000Y50000D03*
X92000Y69000D03*
X87000Y71000D03*
X86000Y58000D03*
X91000Y60000D03*
X86300Y83000D03*
X96000Y88000D03*
X85000Y87000D03*
X90000Y115000D03*
X79700Y97700D03*
X86000Y123000D03*
X91000Y125000D03*
X78900Y146100D03*
X86900Y138100D03*
X90900Y158100D03*
X105000Y13000D03*
X97000Y3000D03*
X102000Y4000D03*
X107000Y6000D03*
X105000Y21000D03*
X109396Y18000D03*
X104000Y52000D03*
X109000Y45000D03*
X97000Y68000D03*
X102000Y69000D03*
X107000Y71000D03*
X97000Y61000D03*
X103000Y60000D03*
X108000Y58000D03*
X105000Y78000D03*
Y86000D03*
X109396Y83000D03*
X109000Y110000D03*
X104000Y117000D03*
X108000Y123000D03*
X97000Y126000D03*
X103000Y125000D03*
X110100Y146300D03*
X103100Y139300D03*
X101900Y153300D03*
X98100Y158100D03*
X133000Y32000D03*
X136000Y22000D03*
X134000Y27000D03*
X125000D03*
X123000Y22000D03*
X126000Y32000D03*
X136000Y42000D03*
X134000Y37000D03*
X125000D03*
X124000Y42000D03*
X136000Y87000D03*
X134000Y92000D03*
X125000D03*
X123000Y87000D03*
X133000Y97000D03*
X136000Y107000D03*
X134000Y102000D03*
X126000Y97000D03*
X125000Y102000D03*
X124000Y107000D03*
X118100Y138300D03*
X136000Y152000D03*
X134000Y167000D03*
X136000Y172000D03*
X134000Y157000D03*
X133000Y162000D03*
X122100Y158300D03*
X152000Y6000D03*
X151300Y18000D03*
X150000Y22000D03*
X144700Y32700D03*
X155000Y50000D03*
X152000Y71000D03*
X151000Y58000D03*
X156000Y60000D03*
X151300Y83000D03*
X150000Y87000D03*
X155000Y115000D03*
X144700Y97700D03*
X151000Y123000D03*
X156000Y125000D03*
X152000Y136000D03*
X151300Y148000D03*
X150000Y152000D03*
X144700Y162700D03*
X155000Y180000D03*
X156000Y190000D03*
X151000Y188000D03*
X170000Y13000D03*
X162000Y3000D03*
X157000Y4000D03*
X167000D03*
X172000Y6000D03*
X161000Y23000D03*
X170000Y21000D03*
X174396Y18000D03*
X169000Y52000D03*
X174000Y45000D03*
X162000Y68000D03*
X157000Y69000D03*
X167000D03*
X172000Y71000D03*
X162000Y61000D03*
X168000Y60000D03*
X173000Y58000D03*
X161000Y88000D03*
X170000Y78000D03*
Y86000D03*
X174396Y83000D03*
X174000Y110000D03*
X169000Y117000D03*
X173000Y123000D03*
X162000Y126000D03*
X168000Y125000D03*
X172000Y136000D03*
X167000Y134000D03*
X157000D03*
X162000Y133000D03*
X161000Y153000D03*
X170000Y143000D03*
Y151000D03*
X174396Y148000D03*
X174000Y175000D03*
X169000Y182000D03*
X162000Y191000D03*
X173000Y188000D03*
X168000Y190000D03*
X190000Y27000D03*
X188000Y22000D03*
X191000Y32000D03*
X190000Y37000D03*
X189000Y42000D03*
X190000Y92000D03*
X188000Y87000D03*
X191000Y97000D03*
X190000Y102000D03*
X189000Y107000D03*
X188000Y152000D03*
X189000Y172000D03*
X190000Y167000D03*
X191000Y162000D03*
X190000Y157000D03*
G54D13*
X9879Y49879D03*
X14121Y54121D03*
X13525Y45525D03*
X9879Y114879D03*
X13525Y110525D03*
X14121Y119121D03*
X18475Y50475D03*
Y115475D03*
X54121Y14121D03*
X49879Y9879D03*
X45525Y13525D03*
X50475Y18475D03*
X49879Y74879D03*
X54121Y79121D03*
X45525Y78525D03*
X50475Y83475D03*
X74879Y49879D03*
Y114879D03*
X79121Y54121D03*
X83475Y50475D03*
X78525Y45525D03*
X83475Y115475D03*
X78525Y110525D03*
X79121Y119121D03*
X114879Y9879D03*
X110525Y13525D03*
X115475Y18475D03*
X114879Y74879D03*
X110525Y78525D03*
X115475Y83475D03*
X119121Y14121D03*
Y79121D03*
X139879Y49879D03*
X144121Y54121D03*
X148475Y50475D03*
X143525Y45525D03*
X139879Y114879D03*
X148475Y115475D03*
X143525Y110525D03*
X144121Y119121D03*
X143525Y175525D03*
X139879Y179879D03*
X144121Y184121D03*
X148475Y180475D03*
X175525Y13525D03*
Y78525D03*
Y143525D03*
X184121Y14121D03*
X179879Y9879D03*
X180475Y18475D03*
X179879Y74879D03*
X184121Y79121D03*
X180475Y83475D03*
X184121Y144121D03*
X179879Y139879D03*
X180475Y148475D03*
G54D14*
X3400Y149400D03*
Y155400D03*
Y143400D03*
Y137400D03*
X3500Y176200D03*
Y170200D03*
Y182200D03*
Y188200D03*
X27400Y135400D03*
Y141400D03*
X35300Y149400D03*
Y155400D03*
Y143400D03*
Y137400D03*
X27400Y153900D03*
Y146900D03*
X27500Y174200D03*
Y168200D03*
X35400Y176200D03*
Y170200D03*
Y182200D03*
Y188200D03*
X27500Y186700D03*
Y179700D03*
X59300Y135400D03*
Y141400D03*
X66900Y149100D03*
Y155100D03*
Y143100D03*
Y137100D03*
X59300Y153900D03*
Y146900D03*
X59400Y174200D03*
Y168200D03*
Y186700D03*
Y179700D03*
X90900Y135100D03*
Y141100D03*
Y153600D03*
Y146600D03*
X98100Y149300D03*
Y155300D03*
Y143300D03*
Y137300D03*
X122100Y135300D03*
Y141300D03*
Y153800D03*
Y146800D03*
G54D15*
X15400Y146400D03*
X15500Y179200D03*
X47300Y146400D03*
X47400Y179200D03*
X78900Y146100D03*
X110100Y146300D03*
G54D16*
X8300Y142400D03*
Y145000D03*
Y147600D03*
Y150200D03*
X8400Y175200D03*
Y177800D03*
Y180400D03*
Y183000D03*
X22500Y150400D03*
Y147800D03*
Y145200D03*
Y142600D03*
X22600Y183200D03*
Y180600D03*
Y178000D03*
Y175400D03*
X40200Y142400D03*
Y145000D03*
Y147600D03*
Y150200D03*
X54400Y150400D03*
Y147800D03*
Y145200D03*
Y142600D03*
X40300Y175200D03*
Y177800D03*
Y180400D03*
Y183000D03*
X54500Y183200D03*
Y180600D03*
Y178000D03*
Y175400D03*
X71800Y142100D03*
Y144700D03*
Y147300D03*
Y149900D03*
X86000Y150100D03*
Y147500D03*
Y144900D03*
Y142300D03*
X103000D03*
Y144900D03*
Y147500D03*
Y150100D03*
X117200Y150300D03*
Y147700D03*
Y145100D03*
Y142500D03*
G54D17*
X11400Y153500D03*
X14000D03*
X14200Y139300D03*
X11600D03*
X14300Y172100D03*
X11700D03*
X11500Y186300D03*
X14100D03*
X16600Y153500D03*
X19200D03*
X19400Y139300D03*
X16800D03*
X19500Y172100D03*
X16900D03*
X16700Y186300D03*
X19300D03*
X43300Y153500D03*
X45900D03*
X48500D03*
X51100D03*
X51300Y139300D03*
X48700D03*
X46100D03*
X43500D03*
X51400Y172100D03*
X48800D03*
X46200D03*
X43600D03*
X43400Y186300D03*
X46000D03*
X48600D03*
X51200D03*
X74900Y153200D03*
X77500D03*
X80100D03*
X82700D03*
X82900Y139000D03*
X80300D03*
X77700D03*
X75100D03*
X106100Y153400D03*
X108700D03*
X111300D03*
X113900D03*
X114100Y139200D03*
X111500D03*
X108900D03*
X106300D03*
G54D18*
X34000Y14000D03*
X28000D03*
X27500Y19000D03*
X34500D03*
X29000Y50000D03*
X35000D03*
X29000Y45000D03*
X35000D03*
X34000Y79000D03*
X28000D03*
X27500Y84000D03*
X34500D03*
X29000Y115000D03*
X35000D03*
X29000Y110000D03*
X35000D03*
X93000Y14000D03*
X92500Y19000D03*
X94000Y45000D03*
Y50000D03*
X93000Y79000D03*
X92500Y84000D03*
X94000Y115000D03*
Y110000D03*
X99000Y14000D03*
X99500Y19000D03*
X100000Y45000D03*
Y50000D03*
X99000Y79000D03*
X99500Y84000D03*
X100000Y115000D03*
Y110000D03*
X164000Y14000D03*
X158000D03*
X157500Y19000D03*
X164500D03*
X159000Y50000D03*
X165000D03*
X159000Y45000D03*
X165000D03*
X164000Y79000D03*
X158000D03*
X157500Y84000D03*
X164500D03*
X159000Y115000D03*
X165000D03*
X159000Y110000D03*
X165000D03*
X164000Y144000D03*
X158000D03*
X157500Y149000D03*
X164500D03*
X159000Y175000D03*
X165000D03*
X159000Y180000D03*
X165000D03*
G54D19*
X20700Y24340D03*
Y26900D03*
Y29460D03*
Y32020D03*
Y34580D03*
Y37140D03*
Y39700D03*
Y89340D03*
Y91900D03*
Y94460D03*
Y97020D03*
Y99580D03*
Y102140D03*
Y104700D03*
X43300Y34580D03*
Y32020D03*
Y29460D03*
Y26900D03*
Y24340D03*
Y39700D03*
Y37140D03*
Y94460D03*
Y91900D03*
Y89340D03*
Y104700D03*
Y102140D03*
Y99580D03*
Y97020D03*
X85700Y24340D03*
Y26900D03*
Y29460D03*
Y32020D03*
Y34580D03*
Y37140D03*
Y39700D03*
Y89340D03*
Y91900D03*
Y94460D03*
Y97020D03*
Y99580D03*
Y102140D03*
Y104700D03*
X108300Y34580D03*
Y32020D03*
Y29460D03*
Y26900D03*
Y24340D03*
Y39700D03*
Y37140D03*
Y94460D03*
Y91900D03*
Y89340D03*
Y104700D03*
Y102140D03*
Y99580D03*
Y97020D03*
X150700Y24340D03*
Y26900D03*
Y29460D03*
Y32020D03*
Y34580D03*
Y37140D03*
Y39700D03*
Y89340D03*
Y91900D03*
Y94460D03*
Y97020D03*
Y99580D03*
Y102140D03*
Y104700D03*
Y154340D03*
Y156900D03*
Y159460D03*
Y162020D03*
Y164580D03*
Y167140D03*
Y169700D03*
X173300Y34580D03*
Y32020D03*
Y29460D03*
Y26900D03*
Y24340D03*
Y39700D03*
Y37140D03*
Y94460D03*
Y91900D03*
Y89340D03*
Y104700D03*
Y102140D03*
Y99580D03*
Y97020D03*
Y154340D03*
Y169700D03*
Y167140D03*
Y164580D03*
Y162020D03*
Y159460D03*
Y156900D03*
M02*
